<svg width="617" height="674" viewBox="0 0 617 674" fill="none" xmlns="http://www.w3.org/2000/svg">
<path d="M109.843 31.5291C260.919 225.175 452.539 154.587 529.464 95.0881L221.252 459.696L540.789 583.008L153.917 328.642M153.917 328.642L77.7059 278.534L464.884 16.3054L551.807 472.256L128.207 639.716L439.48 369.115L582.414 16.3054L153.917 328.642Z" stroke="#DDD5D5" stroke-opacity="0.35"/>
<ellipse cx="109.1" cy="31.7094" rx="2.14249" ry="2.66415" fill="#FF7A00"/>
<ellipse cx="463.659" cy="15.9248" rx="2.14249" ry="2.66415" fill="#078A83"/>
<ellipse cx="75.5634" cy="277.773" rx="2.14249" ry="2.66415" fill="#078A83"/>
<ellipse cx="126.983" cy="639.336" rx="2.14249" ry="2.66415" fill="#FF7A00"/>
<ellipse cx="541.401" cy="583.008" rx="2.14249" ry="2.66415" fill="#078A83"/>
<ellipse cx="551.195" cy="471.875" rx="2.14249" ry="2.66415" fill="#FF7A00"/>
<ellipse cx="221.252" cy="459.696" rx="2.14249" ry="2.66415" fill="#078A83"/>
<ellipse cx="527.934" cy="98.1329" rx="2.14249" ry="2.66415" fill="#FF7A00"/>
<ellipse cx="582.414" cy="18.2084" rx="2.14249" ry="2.66415" fill="#FF7A00"/>
<path d="M77.9455 6.5H76.6245C76.5464 6.12003 76.4096 5.78622 76.2143 5.49858C76.0226 5.21094 75.7882 4.96946 75.5112 4.77415C75.2378 4.57528 74.9341 4.42614 74.6003 4.3267C74.2665 4.22727 73.9185 4.17756 73.5563 4.17756C72.8958 4.17756 72.2974 4.34446 71.7612 4.67827C71.2285 5.01207 70.8042 5.50391 70.4881 6.15376C70.1756 6.80362 70.0194 7.60085 70.0194 8.54545C70.0194 9.49006 70.1756 10.2873 70.4881 10.9371C70.8042 11.587 71.2285 12.0788 71.7612 12.4126C72.2974 12.7464 72.8958 12.9134 73.5563 12.9134C73.9185 12.9134 74.2665 12.8636 74.6003 12.7642C74.9341 12.6648 75.2378 12.5174 75.5112 12.3221C75.7882 12.1232 76.0226 11.88 76.2143 11.5923C76.4096 11.3011 76.5464 10.9673 76.6245 10.5909H77.9455C77.8461 11.1484 77.665 11.6474 77.4022 12.0877C77.1394 12.5281 76.8127 12.9027 76.4221 13.2116C76.0314 13.517 75.5929 13.7496 75.1064 13.9094C74.6234 14.0692 74.1067 14.1491 73.5563 14.1491C72.6259 14.1491 71.7985 13.9219 71.0741 13.4673C70.3496 13.0128 69.7797 12.3665 69.3642 11.5284C68.9487 10.6903 68.741 9.69602 68.741 8.54545C68.741 7.39489 68.9487 6.40057 69.3642 5.5625C69.7797 4.72443 70.3496 4.07812 71.0741 3.62358C71.7985 3.16903 72.6259 2.94176 73.5563 2.94176C74.1067 2.94176 74.6234 3.02166 75.1064 3.18146C75.5929 3.34126 76.0314 3.57564 76.4221 3.88459C76.8127 4.18999 77.1394 4.56285 77.4022 5.0032C77.665 5.43999 77.8461 5.93892 77.9455 6.5ZM83.4467 14H80.0802V3.09091H83.5958C84.654 3.09091 85.5596 3.3093 86.3124 3.74609C87.0653 4.17933 87.6423 4.80256 88.0436 5.61577C88.4449 6.42543 88.6455 7.39489 88.6455 8.52415C88.6455 9.66051 88.4431 10.6388 88.0383 11.4592C87.6334 12.2759 87.044 12.9045 86.2698 13.3448C85.4957 13.7816 84.5546 14 83.4467 14ZM81.4012 12.8281H83.3614C84.2634 12.8281 85.0109 12.6541 85.604 12.3061C86.197 11.9581 86.6391 11.4627 86.9303 10.82C87.2215 10.1772 87.3671 9.41193 87.3671 8.52415C87.3671 7.64347 87.2233 6.8853 86.9356 6.24964C86.648 5.61044 86.2183 5.12038 85.6466 4.77947C85.0749 4.43501 84.3628 4.26278 83.5106 4.26278H81.4012V12.8281ZM90.8614 14V3.09091H94.6753C95.4353 3.09091 96.0621 3.2223 96.5557 3.48509C97.0493 3.74432 97.4168 4.0941 97.6583 4.53445C97.8998 4.97124 98.0205 5.45597 98.0205 5.98864C98.0205 6.45739 97.9371 6.84446 97.7702 7.14986C97.6068 7.45526 97.3902 7.69673 97.1203 7.87429C96.854 8.05185 96.5646 8.18324 96.2521 8.26847V8.375C96.5859 8.39631 96.9214 8.51349 97.2588 8.72656C97.5962 8.93963 97.8785 9.24503 98.1057 9.64276C98.333 10.0405 98.4467 10.527 98.4467 11.1023C98.4467 11.6491 98.3224 12.141 98.0738 12.5778C97.8252 13.0146 97.4328 13.3608 96.8966 13.6165C96.3604 13.8722 95.6626 14 94.8032 14H90.8614ZM92.1825 12.8281H94.8032C95.6661 12.8281 96.2787 12.6612 96.6409 12.3274C97.0067 11.9901 97.1896 11.5817 97.1896 11.1023C97.1896 10.733 97.0954 10.392 96.9072 10.0795C96.719 9.76349 96.4509 9.51136 96.1029 9.32315C95.7549 9.13139 95.343 9.03551 94.8671 9.03551H92.1825V12.8281ZM92.1825 7.88494H94.6327C95.0305 7.88494 95.3891 7.80682 95.7087 7.65057C96.0319 7.49432 96.2876 7.27415 96.4758 6.99006C96.6675 6.70597 96.7634 6.37216 96.7634 5.98864C96.7634 5.50923 96.5965 5.10263 96.2627 4.76882C95.9289 4.43146 95.3998 4.26278 94.6753 4.26278H92.1825V7.88494ZM72.8106 21.0909V32H71.4895V22.4759H71.4256L68.7623 24.2443V22.902L71.4895 21.0909H72.8106ZM75.948 32V31.0412L79.5488 27.0994C79.9714 26.6378 80.3194 26.2365 80.5929 25.8956C80.8663 25.5511 81.0687 25.228 81.2001 24.9261C81.3351 24.6207 81.4025 24.3011 81.4025 23.9673C81.4025 23.5838 81.3102 23.2518 81.1255 22.9712C80.9444 22.6907 80.6959 22.4741 80.3798 22.3214C80.0638 22.1687 79.7086 22.0923 79.3145 22.0923C78.8954 22.0923 78.5297 22.1793 78.2172 22.3533C77.9082 22.5238 77.6685 22.7635 77.4981 23.0724C77.3312 23.3814 77.2477 23.7436 77.2477 24.1591H75.9906C75.9906 23.5199 76.138 22.9588 76.4327 22.4759C76.7275 21.9929 77.1287 21.6165 77.6366 21.3466C78.1479 21.0767 78.7214 20.9418 79.3571 20.9418C79.9963 20.9418 80.5627 21.0767 81.0563 21.3466C81.5499 21.6165 81.937 21.9805 82.2175 22.4386C82.4981 22.8967 82.6383 23.4062 82.6383 23.9673C82.6383 24.3686 82.5655 24.761 82.4199 25.1445C82.2779 25.5245 82.0293 25.9489 81.6742 26.4176C81.3226 26.8828 80.8344 27.451 80.2094 28.1222L77.7591 30.7429V30.8281H82.8301V32H75.948ZM88.5883 32.1491C87.7857 32.1491 87.1021 31.9308 86.5375 31.494C85.9728 31.0536 85.5414 30.4162 85.2431 29.5817C84.9448 28.7436 84.7956 27.7315 84.7956 26.5455C84.7956 25.3665 84.9448 24.3597 85.2431 23.5252C85.5449 22.6871 85.9782 22.0479 86.5428 21.6076C87.111 21.1637 87.7928 20.9418 88.5883 20.9418C89.3837 20.9418 90.0638 21.1637 90.6284 21.6076C91.1966 22.0479 91.6298 22.6871 91.9281 23.5252C92.2299 24.3597 92.3809 25.3665 92.3809 26.5455C92.3809 27.7315 92.2317 28.7436 91.9334 29.5817C91.6351 30.4162 91.2037 31.0536 90.639 31.494C90.0744 31.9308 89.3908 32.1491 88.5883 32.1491ZM88.5883 30.9773C89.3837 30.9773 90.0016 30.5937 90.442 29.8267C90.8823 29.0597 91.1025 27.9659 91.1025 26.5455C91.1025 25.6009 91.0013 24.7965 90.7988 24.1325C90.6 23.4684 90.3123 22.9624 89.9359 22.6143C89.563 22.2663 89.1138 22.0923 88.5883 22.0923C87.7999 22.0923 87.1838 22.4812 86.7399 23.2589C86.296 24.033 86.0741 25.1286 86.0741 26.5455C86.0741 27.4901 86.1735 28.2926 86.3723 28.9531C86.5712 29.6136 86.8571 30.1161 87.2299 30.4606C87.6064 30.805 88.0591 30.9773 88.5883 30.9773ZM99.9661 29.9545V29.3793C99.9661 28.9815 100.048 28.6175 100.211 28.2873C100.378 27.9535 100.62 27.6871 100.936 27.4883C101.255 27.2859 101.642 27.1847 102.097 27.1847C102.558 27.1847 102.946 27.2859 103.258 27.4883C103.571 27.6871 103.807 27.9535 103.966 28.2873C104.126 28.6175 104.206 28.9815 104.206 29.3793V29.9545C104.206 30.3523 104.124 30.718 103.961 31.0518C103.801 31.3821 103.563 31.6484 103.247 31.8509C102.935 32.0497 102.551 32.1491 102.097 32.1491C101.635 32.1491 101.246 32.0497 100.93 31.8509C100.614 31.6484 100.374 31.3821 100.211 31.0518C100.048 30.718 99.9661 30.3523 99.9661 29.9545ZM101.053 29.3793V29.9545C101.053 30.2848 101.131 30.5813 101.287 30.8441C101.443 31.1033 101.713 31.233 102.097 31.233C102.47 31.233 102.732 31.1033 102.885 30.8441C103.041 30.5813 103.12 30.2848 103.12 29.9545V29.3793C103.12 29.049 103.045 28.7543 102.896 28.495C102.747 28.2322 102.48 28.1009 102.097 28.1009C101.724 28.1009 101.456 28.2322 101.292 28.495C101.133 28.7543 101.053 29.049 101.053 29.3793ZM94.5329 23.7116V23.1364C94.5329 22.7386 94.6145 22.3746 94.7779 22.0444C94.9448 21.7106 95.1863 21.4442 95.5023 21.2454C95.8219 21.043 96.209 20.9418 96.6635 20.9418C97.1252 20.9418 97.5123 21.043 97.8248 21.2454C98.1373 21.4442 98.3734 21.7106 98.5332 22.0444C98.693 22.3746 98.7729 22.7386 98.7729 23.1364V23.7116C98.7729 24.1094 98.6912 24.4751 98.5279 24.8089C98.3681 25.1392 98.1302 25.4055 97.8141 25.608C97.5016 25.8068 97.1181 25.9062 96.6635 25.9062C96.2019 25.9062 95.813 25.8068 95.497 25.608C95.1809 25.4055 94.9412 25.1392 94.7779 24.8089C94.6145 24.4751 94.5329 24.1094 94.5329 23.7116ZM95.6195 23.1364V23.7116C95.6195 24.0419 95.6976 24.3384 95.8539 24.6012C96.0101 24.8604 96.28 24.9901 96.6635 24.9901C97.0364 24.9901 97.2992 24.8604 97.4519 24.6012C97.6081 24.3384 97.6863 24.0419 97.6863 23.7116V23.1364C97.6863 22.8061 97.6117 22.5114 97.4625 22.2521C97.3134 21.9893 97.0471 21.858 96.6635 21.858C96.2907 21.858 96.0226 21.9893 95.8592 22.2521C95.6994 22.5114 95.6195 22.8061 95.6195 23.1364ZM94.9377 32L102.438 21.0909H103.652L96.1522 32H94.9377Z" fill="#DDD5D5" fill-opacity="0.7"/>
<path d="M1.32102 262.3V251.391H2.64205V261.128H7.71307V262.3H1.32102ZM9.58807 262.3V254.118H10.8452V262.3H9.58807ZM10.2273 252.754C9.98224 252.754 9.77095 252.671 9.59339 252.504C9.41939 252.337 9.33239 252.136 9.33239 251.902C9.33239 251.668 9.41939 251.467 9.59339 251.3C9.77095 251.133 9.98224 251.05 10.2273 251.05C10.4723 251.05 10.6818 251.133 10.8558 251.3C11.0334 251.467 11.1222 251.668 11.1222 251.902C11.1222 252.136 11.0334 252.337 10.8558 252.504C10.6818 252.671 10.4723 252.754 10.2273 252.754ZM14.4047 257.378V262.3H13.1476V254.118H14.3621V255.396H14.4687C14.6604 254.981 14.9516 254.647 15.3422 254.395C15.7329 254.139 16.2371 254.011 16.855 254.011C17.409 254.011 17.8937 254.125 18.3092 254.352C18.7247 254.576 19.0479 254.917 19.2787 255.375C19.5095 255.829 19.6249 256.405 19.6249 257.101V262.3H18.3678V257.186C18.3678 256.543 18.2009 256.043 17.8671 255.684C17.5333 255.322 17.0752 255.141 16.4928 255.141C16.0915 255.141 15.7329 255.228 15.4168 255.402C15.1043 255.576 14.8575 255.829 14.6764 256.163C14.4953 256.497 14.4047 256.902 14.4047 257.378ZM23.0939 259.317L23.0726 257.761H23.3283L26.9078 254.118H28.4632L24.6493 257.974H24.5428L23.0939 259.317ZM21.9221 262.3V251.391H23.1792V262.3H21.9221ZM27.1209 262.3L23.9249 258.251L24.8198 257.378L28.7189 262.3H27.1209ZM33.1747 262.47C32.3864 262.47 31.7063 262.296 31.1346 261.948C30.5664 261.597 30.1278 261.106 29.8189 260.478C29.5135 259.846 29.3608 259.111 29.3608 258.273C29.3608 257.435 29.5135 256.696 29.8189 256.057C30.1278 255.414 30.5575 254.913 31.108 254.555C31.6619 254.192 32.3082 254.011 33.0469 254.011C33.473 254.011 33.8938 254.082 34.3093 254.224C34.7248 254.366 35.103 254.597 35.4439 254.917C35.7848 255.233 36.0565 255.652 36.2589 256.174C36.4613 256.696 36.5625 257.339 36.5625 258.102V258.635H30.2557V257.548H35.2841C35.2841 257.087 35.1918 256.675 35.0071 256.312C34.826 255.95 34.5668 255.664 34.2294 255.455C33.8956 255.245 33.5014 255.141 33.0469 255.141C32.5462 255.141 32.1129 255.265 31.7472 255.513C31.3849 255.758 31.1062 256.078 30.9109 256.472C30.7156 256.866 30.6179 257.289 30.6179 257.74V258.464C30.6179 259.082 30.7244 259.606 30.9375 260.036C31.1541 260.462 31.4542 260.787 31.8377 261.011C32.2212 261.231 32.6669 261.341 33.1747 261.341C33.505 261.341 33.8033 261.295 34.0696 261.202C34.3395 261.106 34.5721 260.964 34.7674 260.776C34.9627 260.584 35.1136 260.347 35.2202 260.062L36.4347 260.403C36.3068 260.815 36.092 261.177 35.7901 261.49C35.4883 261.799 35.1154 262.04 34.6715 262.214C34.2276 262.385 33.7287 262.47 33.1747 262.47ZM41.5643 262.47C40.8825 262.47 40.2805 262.298 39.7585 261.953C39.2365 261.605 38.8281 261.115 38.5334 260.483C38.2386 259.848 38.0913 259.097 38.0913 258.23C38.0913 257.371 38.2386 256.625 38.5334 255.993C38.8281 255.361 39.2383 254.872 39.7638 254.528C40.2894 254.184 40.8967 254.011 41.5856 254.011C42.1183 254.011 42.5391 254.1 42.848 254.278C43.1605 254.452 43.3984 254.651 43.5618 254.874C43.7287 255.094 43.8583 255.276 43.9506 255.418H44.0572V251.391H45.3143V262.3H44.0998V261.043H43.9506C43.8583 261.192 43.7269 261.38 43.5565 261.607C43.386 261.831 43.1428 262.032 42.8267 262.209C42.5107 262.383 42.0898 262.47 41.5643 262.47ZM41.7347 261.341C42.239 261.341 42.6651 261.209 43.0131 260.947C43.3612 260.68 43.6257 260.313 43.8068 259.844C43.9879 259.372 44.0785 258.827 44.0785 258.209C44.0785 257.598 43.9897 257.064 43.8121 256.605C43.6346 256.144 43.3718 255.785 43.0238 255.529C42.6758 255.27 42.2461 255.141 41.7347 255.141C41.2021 255.141 40.7582 255.277 40.4031 255.551C40.0515 255.821 39.7869 256.188 39.6094 256.653C39.4354 257.115 39.3484 257.633 39.3484 258.209C39.3484 258.791 39.4371 259.32 39.6147 259.796C39.7958 260.268 40.0621 260.645 40.4137 260.925C40.7688 261.202 41.2092 261.341 41.7347 261.341ZM47.7912 262.3V254.118H49.0483V262.3H47.7912ZM48.4304 252.754C48.1854 252.754 47.9741 252.671 47.7965 252.504C47.6225 252.337 47.5355 252.136 47.5355 251.902C47.5355 251.668 47.6225 251.467 47.7965 251.3C47.9741 251.133 48.1854 251.05 48.4304 251.05C48.6754 251.05 48.8849 251.133 49.0589 251.3C49.2365 251.467 49.3253 251.668 49.3253 251.902C49.3253 252.136 49.2365 252.337 49.0589 252.504C48.8849 252.671 48.6754 252.754 48.4304 252.754ZM52.6079 257.378V262.3H51.3508V254.118H52.5653V255.396H52.6718C52.8635 254.981 53.1547 254.647 53.5454 254.395C53.936 254.139 54.4403 254.011 55.0582 254.011C55.6121 254.011 56.0969 254.125 56.5123 254.352C56.9278 254.576 57.251 254.917 57.4818 255.375C57.7126 255.829 57.828 256.405 57.828 257.101V262.3H56.5709V257.186C56.5709 256.543 56.404 256.043 56.0702 255.684C55.7364 255.322 55.2783 255.141 54.6959 255.141C54.2947 255.141 53.936 255.228 53.6199 255.402C53.3074 255.576 53.0606 255.829 52.8795 256.163C52.6984 256.497 52.6079 256.902 52.6079 257.378ZM1.32102 280.3V269.391H7.90483V270.562H2.64205V274.249H7.56392V275.42H2.64205V279.128H7.99006V280.3H1.32102ZM11.0529 272.118L13.0131 275.463L14.9734 272.118H16.4222L13.7802 276.209L16.4222 280.3H14.9734L13.0131 277.125L11.0529 280.3H9.60405L12.2035 276.209L9.60405 272.118H11.0529ZM21.2029 280.47C20.4359 280.47 19.7754 280.289 19.2214 279.927C18.6674 279.565 18.2413 279.066 17.943 278.43C17.6447 277.794 17.4956 277.068 17.4956 276.251C17.4956 275.42 17.6483 274.687 17.9537 274.051C18.2626 273.412 18.6923 272.913 19.2427 272.555C19.7967 272.192 20.443 272.011 21.1816 272.011C21.7569 272.011 22.2754 272.118 22.737 272.331C23.1987 272.544 23.5769 272.842 23.8716 273.226C24.1664 273.609 24.3493 274.057 24.4203 274.568H23.1632C23.0673 274.195 22.8542 273.865 22.524 273.577C22.1973 273.286 21.7569 273.141 21.2029 273.141C20.7129 273.141 20.2832 273.268 19.9139 273.524C19.5481 273.776 19.2623 274.133 19.0563 274.595C18.8539 275.053 18.7527 275.591 18.7527 276.209C18.7527 276.841 18.8521 277.391 19.051 277.86C19.2534 278.329 19.5375 278.693 19.9032 278.952C20.2725 279.211 20.7058 279.341 21.2029 279.341C21.5297 279.341 21.8262 279.284 22.0925 279.17C22.3588 279.057 22.5843 278.893 22.769 278.68C22.9537 278.467 23.085 278.212 23.1632 277.913H24.4203C24.3493 278.396 24.1735 278.831 23.8929 279.218C23.6159 279.602 23.2484 279.907 22.7903 280.135C22.3358 280.358 21.8066 280.47 21.2029 280.47ZM27.5151 269.391V280.3H26.258V269.391H27.5151ZM34.9738 276.954V272.118H36.2309V280.3H34.9738V278.915H34.8886C34.6968 279.33 34.3985 279.684 33.9937 279.975C33.5889 280.262 33.0775 280.406 32.4596 280.406C31.9482 280.406 31.4937 280.294 31.096 280.071C30.6982 279.843 30.3857 279.502 30.1585 279.048C29.9312 278.59 29.8176 278.013 29.8176 277.317V272.118H31.0747V277.231C31.0747 277.828 31.2416 278.304 31.5754 278.659C31.9127 279.014 32.3424 279.192 32.8644 279.192C33.1769 279.192 33.4948 279.112 33.8179 278.952C34.1446 278.792 34.4181 278.547 34.6382 278.217C34.8619 277.887 34.9738 277.466 34.9738 276.954ZM44.3288 273.95L43.1996 274.27C43.1286 274.082 43.0238 273.899 42.8853 273.721C42.7504 273.54 42.5657 273.391 42.3313 273.274C42.0969 273.157 41.7969 273.098 41.4311 273.098C40.9304 273.098 40.5131 273.213 40.1793 273.444C39.8491 273.671 39.6839 273.961 39.6839 274.312C39.6839 274.625 39.7976 274.872 40.0249 275.053C40.2521 275.234 40.6072 275.385 41.0902 275.506L42.3047 275.804C43.0362 275.981 43.5813 276.253 43.94 276.619C44.2987 276.981 44.478 277.448 44.478 278.02C44.478 278.489 44.343 278.908 44.0732 279.277C43.8068 279.646 43.4339 279.937 42.9545 280.151C42.4751 280.364 41.9176 280.47 41.282 280.47C40.4474 280.47 39.7567 280.289 39.2099 279.927C38.663 279.565 38.3168 279.035 38.1712 278.339L39.3643 278.041C39.478 278.481 39.6928 278.812 40.0089 279.032C40.3285 279.252 40.7457 279.362 41.2607 279.362C41.8466 279.362 42.3118 279.238 42.6562 278.989C43.0043 278.737 43.1783 278.435 43.1783 278.084C43.1783 277.8 43.0788 277.562 42.88 277.37C42.6811 277.175 42.3757 277.029 41.9638 276.933L40.6001 276.614C39.8509 276.436 39.3004 276.161 38.9489 275.788C38.6009 275.412 38.4268 274.941 38.4268 274.376C38.4268 273.915 38.5565 273.506 38.8157 273.151C39.0785 272.796 39.4354 272.517 39.8864 272.315C40.3409 272.113 40.8558 272.011 41.4311 272.011C42.2408 272.011 42.8764 272.189 43.3381 272.544C43.8033 272.899 44.1335 273.368 44.3288 273.95ZM46.3703 280.3V272.118H47.6274V280.3H46.3703ZM47.0095 270.754C46.7645 270.754 46.5532 270.671 46.3756 270.504C46.2016 270.337 46.1146 270.136 46.1146 269.902C46.1146 269.668 46.2016 269.467 46.3756 269.3C46.5532 269.133 46.7645 269.05 47.0095 269.05C47.2545 269.05 47.464 269.133 47.6381 269.3C47.8156 269.467 47.9044 269.668 47.9044 269.902C47.9044 270.136 47.8156 270.337 47.6381 270.504C47.464 270.671 47.2545 270.754 47.0095 270.754ZM56.6202 272.118L53.5946 280.3H52.3162L49.2907 272.118H50.6543L52.9128 278.638H52.998L55.2566 272.118H56.6202ZM61.4169 280.47C60.6286 280.47 59.9485 280.296 59.3768 279.948C58.8086 279.597 58.37 279.106 58.0611 278.478C57.7557 277.846 57.603 277.111 57.603 276.273C57.603 275.435 57.7557 274.696 58.0611 274.057C58.37 273.414 58.7997 272.913 59.3501 272.555C59.9041 272.192 60.5504 272.011 61.2891 272.011C61.7152 272.011 62.136 272.082 62.5515 272.224C62.967 272.366 63.3452 272.597 63.6861 272.917C64.027 273.233 64.2987 273.652 64.5011 274.174C64.7035 274.696 64.8047 275.339 64.8047 276.102V276.635H58.4979V275.548H63.5263C63.5263 275.087 63.4339 274.675 63.2493 274.312C63.0682 273.95 62.8089 273.664 62.4716 273.455C62.1378 273.245 61.7436 273.141 61.2891 273.141C60.7884 273.141 60.3551 273.265 59.9893 273.513C59.6271 273.758 59.3484 274.078 59.1531 274.472C58.9577 274.866 58.8601 275.289 58.8601 275.74V276.464C58.8601 277.082 58.9666 277.606 59.1797 278.036C59.3963 278.462 59.6964 278.787 60.0799 279.011C60.4634 279.231 60.9091 279.341 61.4169 279.341C61.7472 279.341 62.0455 279.295 62.3118 279.202C62.5817 279.106 62.8143 278.964 63.0096 278.776C63.2049 278.584 63.3558 278.347 63.4624 278.062L64.6768 278.403C64.549 278.815 64.3342 279.177 64.0323 279.49C63.7305 279.799 63.3576 280.04 62.9137 280.214C62.4698 280.385 61.9709 280.47 61.4169 280.47Z" fill="#DDD5D5" fill-opacity="0.7"/>
<path d="M139.642 444.885V455.794H138.321V444.885H139.642ZM143.377 450.873V455.794H142.12V447.613H143.335V448.891H143.441C143.633 448.476 143.924 448.142 144.315 447.89C144.706 447.634 145.21 447.506 145.828 447.506C146.382 447.506 146.866 447.62 147.282 447.847C147.697 448.071 148.021 448.412 148.251 448.87C148.482 449.324 148.598 449.9 148.598 450.596V455.794H147.34V450.681C147.34 450.038 147.174 449.537 146.84 449.179C146.506 448.816 146.048 448.635 145.465 448.635C145.064 448.635 144.706 448.722 144.389 448.896C144.077 449.07 143.83 449.324 143.649 449.658C143.468 449.992 143.377 450.397 143.377 450.873ZM156.69 449.445L155.561 449.765C155.49 449.576 155.385 449.394 155.247 449.216C155.112 449.035 154.927 448.886 154.693 448.769C154.458 448.651 154.158 448.593 153.792 448.593C153.292 448.593 152.874 448.708 152.541 448.939C152.21 449.166 152.045 449.456 152.045 449.807C152.045 450.12 152.159 450.367 152.386 450.548C152.613 450.729 152.969 450.88 153.452 451L154.666 451.299C155.398 451.476 155.943 451.748 156.301 452.114C156.66 452.476 156.839 452.943 156.839 453.515C156.839 453.983 156.704 454.402 156.434 454.772C156.168 455.141 155.795 455.432 155.316 455.645C154.836 455.858 154.279 455.965 153.643 455.965C152.809 455.965 152.118 455.784 151.571 455.422C151.024 455.059 150.678 454.53 150.532 453.834L151.726 453.536C151.839 453.976 152.054 454.307 152.37 454.527C152.69 454.747 153.107 454.857 153.622 454.857C154.208 454.857 154.673 454.733 155.018 454.484C155.366 454.232 155.54 453.93 155.54 453.579C155.54 453.294 155.44 453.057 155.241 452.865C155.042 452.669 154.737 452.524 154.325 452.428L152.961 452.108C152.212 451.931 151.662 451.656 151.31 451.283C150.962 450.906 150.788 450.436 150.788 449.871C150.788 449.409 150.918 449.001 151.177 448.646C151.44 448.291 151.797 448.012 152.248 447.81C152.702 447.607 153.217 447.506 153.792 447.506C154.602 447.506 155.238 447.684 155.699 448.039C156.165 448.394 156.495 448.863 156.69 449.445ZM162.29 447.613V448.678H158.05V447.613H162.29ZM159.286 445.652H160.543V453.451C160.543 453.806 160.594 454.072 160.697 454.25C160.804 454.424 160.939 454.541 161.102 454.601C161.269 454.658 161.445 454.686 161.629 454.686C161.768 454.686 161.881 454.679 161.97 454.665C162.059 454.647 162.13 454.633 162.183 454.623L162.439 455.752C162.354 455.784 162.235 455.816 162.082 455.848C161.929 455.883 161.736 455.901 161.502 455.901C161.146 455.901 160.798 455.825 160.457 455.672C160.12 455.519 159.84 455.287 159.616 454.974C159.396 454.662 159.286 454.267 159.286 453.792V445.652ZM166.589 455.986C166.07 455.986 165.6 455.889 165.177 455.693C164.754 455.494 164.419 455.208 164.17 454.836C163.922 454.459 163.797 454.005 163.797 453.472C163.797 453.003 163.89 452.623 164.074 452.332C164.259 452.037 164.506 451.807 164.815 451.64C165.124 451.473 165.465 451.348 165.837 451.267C166.214 451.182 166.592 451.114 166.972 451.064C167.469 451 167.872 450.952 168.181 450.92C168.494 450.885 168.721 450.826 168.863 450.745C169.009 450.663 169.081 450.521 169.081 450.319V450.276C169.081 449.75 168.938 449.342 168.65 449.051C168.366 448.76 167.934 448.614 167.356 448.614C166.755 448.614 166.285 448.745 165.944 449.008C165.603 449.271 165.363 449.552 165.225 449.85L164.032 449.424C164.245 448.927 164.529 448.539 164.884 448.262C165.243 447.982 165.633 447.787 166.056 447.677C166.482 447.563 166.901 447.506 167.313 447.506C167.576 447.506 167.878 447.538 168.218 447.602C168.563 447.662 168.895 447.788 169.215 447.98C169.538 448.172 169.806 448.461 170.019 448.848C170.232 449.235 170.339 449.754 170.339 450.404V455.794H169.081V454.686H169.017C168.932 454.864 168.79 455.054 168.591 455.256C168.392 455.459 168.128 455.631 167.798 455.773C167.467 455.915 167.064 455.986 166.589 455.986ZM166.78 454.857C167.277 454.857 167.696 454.759 168.037 454.564C168.382 454.369 168.641 454.117 168.815 453.808C168.993 453.499 169.081 453.174 169.081 452.833V451.682C169.028 451.746 168.911 451.805 168.73 451.858C168.552 451.908 168.346 451.952 168.112 451.991C167.881 452.027 167.656 452.059 167.435 452.087C167.219 452.112 167.043 452.133 166.908 452.151C166.581 452.194 166.276 452.263 165.992 452.359C165.711 452.451 165.484 452.591 165.31 452.78C165.14 452.964 165.054 453.216 165.054 453.536C165.054 453.973 165.216 454.303 165.539 454.527C165.866 454.747 166.28 454.857 166.78 454.857ZM175.936 459.033C175.328 459.033 174.806 458.955 174.369 458.799C173.933 458.646 173.569 458.444 173.278 458.191C172.99 457.943 172.761 457.677 172.59 457.392L173.592 456.689C173.705 456.838 173.849 457.009 174.023 457.201C174.197 457.396 174.435 457.565 174.737 457.707C175.042 457.852 175.442 457.925 175.936 457.925C176.596 457.925 177.141 457.765 177.571 457.446C178.001 457.126 178.215 456.625 178.215 455.944V454.282H178.109C178.017 454.431 177.885 454.615 177.715 454.836C177.548 455.052 177.306 455.246 176.99 455.416C176.678 455.583 176.255 455.667 175.722 455.667C175.062 455.667 174.469 455.51 173.943 455.198C173.421 454.885 173.008 454.431 172.702 453.834C172.4 453.238 172.249 452.513 172.249 451.661C172.249 450.823 172.397 450.093 172.692 449.472C172.986 448.847 173.396 448.364 173.922 448.023C174.448 447.678 175.055 447.506 175.744 447.506C176.276 447.506 176.699 447.595 177.012 447.772C177.328 447.946 177.569 448.145 177.736 448.369C177.906 448.589 178.038 448.77 178.13 448.912H178.258V447.613H179.472V456.029C179.472 456.732 179.313 457.304 178.993 457.744C178.677 458.188 178.251 458.513 177.715 458.719C177.182 458.928 176.589 459.033 175.936 459.033ZM175.893 454.537C176.397 454.537 176.823 454.422 177.171 454.191C177.519 453.96 177.784 453.628 177.965 453.195C178.146 452.762 178.237 452.243 178.237 451.64C178.237 451.05 178.148 450.53 177.97 450.079C177.793 449.628 177.53 449.275 177.182 449.019C176.834 448.763 176.404 448.635 175.893 448.635C175.36 448.635 174.916 448.77 174.561 449.04C174.21 449.31 173.945 449.672 173.768 450.127C173.594 450.581 173.507 451.086 173.507 451.64C173.507 452.208 173.595 452.71 173.773 453.147C173.954 453.58 174.22 453.921 174.572 454.17C174.927 454.415 175.367 454.537 175.893 454.537ZM181.774 455.794V447.613H182.988V448.848H183.073C183.222 448.444 183.492 448.115 183.883 447.863C184.274 447.611 184.714 447.485 185.204 447.485C185.296 447.485 185.412 447.487 185.55 447.49C185.689 447.494 185.794 447.499 185.865 447.506V448.784C185.822 448.774 185.724 448.758 185.572 448.737C185.422 448.712 185.264 448.699 185.097 448.699C184.7 448.699 184.345 448.783 184.032 448.95C183.723 449.113 183.478 449.34 183.297 449.631C183.119 449.919 183.031 450.248 183.031 450.617V455.794H181.774ZM189.762 455.986C189.244 455.986 188.773 455.889 188.351 455.693C187.928 455.494 187.593 455.208 187.344 454.836C187.095 454.459 186.971 454.005 186.971 453.472C186.971 453.003 187.063 452.623 187.248 452.332C187.433 452.037 187.68 451.807 187.989 451.64C188.297 451.473 188.638 451.348 189.011 451.267C189.388 451.182 189.766 451.114 190.146 451.064C190.643 451 191.046 450.952 191.355 450.92C191.668 450.885 191.895 450.826 192.037 450.745C192.182 450.663 192.255 450.521 192.255 450.319V450.276C192.255 449.75 192.111 449.342 191.824 449.051C191.54 448.76 191.108 448.614 190.529 448.614C189.929 448.614 189.459 448.745 189.118 449.008C188.777 449.271 188.537 449.552 188.399 449.85L187.206 449.424C187.419 448.927 187.703 448.539 188.058 448.262C188.416 447.982 188.807 447.787 189.23 447.677C189.656 447.563 190.075 447.506 190.487 447.506C190.75 447.506 191.051 447.538 191.392 447.602C191.737 447.662 192.069 447.788 192.388 447.98C192.712 448.172 192.98 448.461 193.193 448.848C193.406 449.235 193.512 449.754 193.512 450.404V455.794H192.255V454.686H192.191C192.106 454.864 191.964 455.054 191.765 455.256C191.566 455.459 191.302 455.631 190.972 455.773C190.641 455.915 190.238 455.986 189.762 455.986ZM189.954 454.857C190.451 454.857 190.87 454.759 191.211 454.564C191.556 454.369 191.815 454.117 191.989 453.808C192.166 453.499 192.255 453.174 192.255 452.833V451.682C192.202 451.746 192.085 451.805 191.904 451.858C191.726 451.908 191.52 451.952 191.286 451.991C191.055 452.027 190.829 452.059 190.609 452.087C190.393 452.112 190.217 452.133 190.082 452.151C189.755 452.194 189.45 452.263 189.166 452.359C188.885 452.451 188.658 452.591 188.484 452.78C188.313 452.964 188.228 453.216 188.228 453.536C188.228 453.973 188.39 454.303 188.713 454.527C189.04 454.747 189.453 454.857 189.954 454.857ZM195.807 455.794V447.613H197.021V448.891H197.128C197.298 448.454 197.574 448.115 197.953 447.874C198.333 447.629 198.79 447.506 199.322 447.506C199.862 447.506 200.311 447.629 200.67 447.874C201.032 448.115 201.315 448.454 201.517 448.891H201.602C201.812 448.468 202.126 448.133 202.545 447.884C202.964 447.632 203.467 447.506 204.053 447.506C204.784 447.506 205.382 447.735 205.848 448.193C206.313 448.648 206.545 449.356 206.545 450.319V455.794H205.288V450.319C205.288 449.715 205.123 449.283 204.793 449.024C204.463 448.765 204.074 448.635 203.626 448.635C203.051 448.635 202.605 448.809 202.289 449.157C201.973 449.502 201.815 449.939 201.815 450.468V455.794H200.537V450.191C200.537 449.726 200.386 449.351 200.084 449.067C199.782 448.779 199.393 448.635 198.918 448.635C198.591 448.635 198.286 448.722 198.001 448.896C197.721 449.07 197.494 449.312 197.32 449.621C197.149 449.926 197.064 450.28 197.064 450.681V455.794H195.807ZM138.321 473.794V462.885H144.905V464.057H139.642V467.743H144.564V468.915H139.642V472.623H144.99V473.794H138.321ZM148.053 465.613L150.013 468.958L151.973 465.613H153.422L150.78 469.704L153.422 473.794H151.973L150.013 470.62L148.053 473.794H146.604L149.203 469.704L146.604 465.613H148.053ZM158.203 473.965C157.436 473.965 156.775 473.784 156.221 473.422C155.667 473.059 155.241 472.56 154.943 471.925C154.645 471.289 154.496 470.563 154.496 469.746C154.496 468.915 154.648 468.182 154.954 467.546C155.263 466.907 155.692 466.408 156.243 466.049C156.797 465.687 157.443 465.506 158.182 465.506C158.757 465.506 159.275 465.613 159.737 465.826C160.199 466.039 160.577 466.337 160.872 466.721C161.166 467.104 161.349 467.552 161.42 468.063H160.163C160.067 467.69 159.854 467.36 159.524 467.072C159.197 466.781 158.757 466.635 158.203 466.635C157.713 466.635 157.283 466.763 156.914 467.019C156.548 467.271 156.262 467.628 156.056 468.09C155.854 468.548 155.753 469.086 155.753 469.704C155.753 470.336 155.852 470.886 156.051 471.355C156.253 471.824 156.537 472.188 156.903 472.447C157.273 472.706 157.706 472.836 158.203 472.836C158.53 472.836 158.826 472.779 159.093 472.665C159.359 472.552 159.584 472.388 159.769 472.175C159.954 471.962 160.085 471.706 160.163 471.408H161.42C161.349 471.891 161.173 472.326 160.893 472.713C160.616 473.097 160.248 473.402 159.79 473.629C159.336 473.853 158.807 473.965 158.203 473.965ZM164.515 462.885V473.794H163.258V462.885H164.515ZM171.974 470.449V465.613H173.231V473.794H171.974V472.409H171.889C171.697 472.825 171.399 473.178 170.994 473.47C170.589 473.757 170.078 473.901 169.46 473.901C168.948 473.901 168.494 473.789 168.096 473.565C167.698 473.338 167.386 472.997 167.158 472.543C166.931 472.085 166.818 471.508 166.818 470.811V465.613H168.075V470.726C168.075 471.323 168.242 471.799 168.575 472.154C168.913 472.509 169.342 472.686 169.864 472.686C170.177 472.686 170.495 472.607 170.818 472.447C171.145 472.287 171.418 472.042 171.638 471.712C171.862 471.381 171.974 470.961 171.974 470.449ZM181.329 467.445L180.2 467.765C180.129 467.576 180.024 467.394 179.885 467.216C179.75 467.035 179.566 466.886 179.331 466.769C179.097 466.651 178.797 466.593 178.431 466.593C177.93 466.593 177.513 466.708 177.179 466.939C176.849 467.166 176.684 467.456 176.684 467.807C176.684 468.12 176.798 468.367 177.025 468.548C177.252 468.729 177.607 468.88 178.09 469L179.305 469.299C180.036 469.476 180.581 469.748 180.94 470.114C181.299 470.476 181.478 470.943 181.478 471.515C181.478 471.983 181.343 472.402 181.073 472.772C180.807 473.141 180.434 473.432 179.955 473.645C179.475 473.858 178.918 473.965 178.282 473.965C177.447 473.965 176.757 473.784 176.21 473.422C175.663 473.059 175.317 472.53 175.171 471.834L176.364 471.536C176.478 471.976 176.693 472.307 177.009 472.527C177.328 472.747 177.746 472.857 178.261 472.857C178.847 472.857 179.312 472.733 179.656 472.484C180.004 472.232 180.178 471.93 180.178 471.579C180.178 471.294 180.079 471.057 179.88 470.865C179.681 470.669 179.376 470.524 178.964 470.428L177.6 470.108C176.851 469.931 176.3 469.656 175.949 469.283C175.601 468.906 175.427 468.436 175.427 467.871C175.427 467.409 175.556 467.001 175.816 466.646C176.078 466.291 176.435 466.012 176.886 465.81C177.341 465.607 177.856 465.506 178.431 465.506C179.241 465.506 179.876 465.684 180.338 466.039C180.803 466.394 181.134 466.863 181.329 467.445ZM183.37 473.794V465.613H184.627V473.794H183.37ZM184.009 464.249C183.764 464.249 183.553 464.166 183.376 463.999C183.202 463.832 183.115 463.631 183.115 463.397C183.115 463.162 183.202 462.962 183.376 462.795C183.553 462.628 183.764 462.544 184.009 462.544C184.255 462.544 184.464 462.628 184.638 462.795C184.816 462.962 184.904 463.162 184.904 463.397C184.904 463.631 184.816 463.832 184.638 463.999C184.464 464.166 184.255 464.249 184.009 464.249ZM193.62 465.613L190.595 473.794H189.316L186.291 465.613H187.654L189.913 472.133H189.998L192.257 465.613H193.62ZM198.417 473.965C197.629 473.965 196.949 473.791 196.377 473.443C195.809 473.091 195.37 472.601 195.061 471.973C194.756 471.341 194.603 470.606 194.603 469.767C194.603 468.929 194.756 468.191 195.061 467.552C195.37 466.909 195.8 466.408 196.35 466.049C196.904 465.687 197.55 465.506 198.289 465.506C198.715 465.506 199.136 465.577 199.551 465.719C199.967 465.861 200.345 466.092 200.686 466.412C201.027 466.728 201.299 467.147 201.501 467.669C201.703 468.191 201.805 468.833 201.805 469.597V470.13H195.498V469.043H200.526C200.526 468.581 200.434 468.169 200.249 467.807C200.068 467.445 199.809 467.159 199.472 466.95C199.138 466.74 198.744 466.635 198.289 466.635C197.788 466.635 197.355 466.76 196.989 467.008C196.627 467.253 196.348 467.573 196.153 467.967C195.958 468.361 195.86 468.784 195.86 469.235V469.959C195.86 470.577 195.967 471.101 196.18 471.531C196.396 471.957 196.696 472.282 197.08 472.505C197.463 472.726 197.909 472.836 198.417 472.836C198.747 472.836 199.045 472.789 199.312 472.697C199.582 472.601 199.814 472.459 200.01 472.271C200.205 472.079 200.356 471.841 200.462 471.557L201.677 471.898C201.549 472.31 201.334 472.672 201.032 472.985C200.73 473.294 200.358 473.535 199.914 473.709C199.47 473.88 198.971 473.965 198.417 473.965Z" fill="#DDD5D5" fill-opacity="0.69"/>
<path d="M519.155 605.762V594.853H522.969C523.728 594.853 524.355 594.984 524.849 595.247C525.342 595.506 525.71 595.856 525.951 596.296C526.193 596.733 526.314 597.218 526.314 597.75C526.314 598.219 526.23 598.606 526.063 598.912C525.9 599.217 525.683 599.459 525.413 599.636C525.147 599.814 524.858 599.945 524.545 600.03V600.137C524.879 600.158 525.215 600.275 525.552 600.488C525.889 600.701 526.172 601.007 526.399 601.405C526.626 601.802 526.74 602.289 526.74 602.864C526.74 603.411 526.616 603.903 526.367 604.34C526.118 604.776 525.726 605.123 525.19 605.378C524.654 605.634 523.956 605.762 523.096 605.762H519.155ZM520.476 604.59H523.096C523.959 604.59 524.572 604.423 524.934 604.089C525.3 603.752 525.483 603.343 525.483 602.864C525.483 602.495 525.389 602.154 525.2 601.841C525.012 601.525 524.744 601.273 524.396 601.085C524.048 600.893 523.636 600.797 523.16 600.797H520.476V604.59ZM520.476 599.647H522.926C523.324 599.647 523.682 599.569 524.002 599.412C524.325 599.256 524.581 599.036 524.769 598.752C524.961 598.468 525.057 598.134 525.057 597.75C525.057 597.271 524.89 596.864 524.556 596.531C524.222 596.193 523.693 596.025 522.969 596.025H520.476V599.647ZM532.17 605.932C531.382 605.932 530.702 605.758 530.13 605.41C529.562 605.059 529.124 604.569 528.815 603.94C528.509 603.308 528.356 602.573 528.356 601.735C528.356 600.897 528.509 600.158 528.815 599.519C529.124 598.876 529.553 598.375 530.104 598.017C530.658 597.655 531.304 597.473 532.043 597.473C532.469 597.473 532.889 597.544 533.305 597.686C533.72 597.829 534.099 598.059 534.44 598.379C534.78 598.695 535.052 599.114 535.255 599.636C535.457 600.158 535.558 600.801 535.558 601.564V602.097H529.251V601.01H534.28C534.28 600.549 534.187 600.137 534.003 599.775C533.822 599.412 533.562 599.126 533.225 598.917C532.891 598.707 532.497 598.603 532.043 598.603C531.542 598.603 531.109 598.727 530.743 598.976C530.381 599.221 530.102 599.54 529.907 599.934C529.711 600.329 529.614 600.751 529.614 601.202V601.927C529.614 602.544 529.72 603.068 529.933 603.498C530.15 603.924 530.45 604.249 530.833 604.473C531.217 604.693 531.663 604.803 532.17 604.803C532.501 604.803 532.799 604.757 533.065 604.664C533.335 604.569 533.568 604.427 533.763 604.238C533.958 604.047 534.109 603.809 534.216 603.525L535.43 603.865C535.302 604.277 535.088 604.64 534.786 604.952C534.484 605.261 534.111 605.503 533.667 605.677C533.223 605.847 532.724 605.932 532.17 605.932ZM538.728 600.84V605.762H537.47V597.58H538.685V598.858H538.791C538.983 598.443 539.274 598.109 539.665 597.857C540.056 597.601 540.56 597.473 541.178 597.473C541.732 597.473 542.217 597.587 542.632 597.814C543.048 598.038 543.371 598.379 543.601 598.837C543.832 599.292 543.948 599.867 543.948 600.563V605.762H542.691V600.648C542.691 600.005 542.524 599.505 542.19 599.146C541.856 598.784 541.398 598.603 540.816 598.603C540.414 598.603 540.056 598.69 539.74 598.864C539.427 599.038 539.18 599.292 538.999 599.625C538.818 599.959 538.728 600.364 538.728 600.84ZM549.675 605.932C548.887 605.932 548.207 605.758 547.635 605.41C547.067 605.059 546.628 604.569 546.319 603.94C546.014 603.308 545.861 602.573 545.861 601.735C545.861 600.897 546.014 600.158 546.319 599.519C546.628 598.876 547.058 598.375 547.609 598.017C548.162 597.655 548.809 597.473 549.547 597.473C549.974 597.473 550.394 597.544 550.81 597.686C551.225 597.829 551.604 598.059 551.944 598.379C552.285 598.695 552.557 599.114 552.759 599.636C552.962 600.158 553.063 600.801 553.063 601.564V602.097H546.756V601.01H551.785C551.785 600.549 551.692 600.137 551.508 599.775C551.327 599.412 551.067 599.126 550.73 598.917C550.396 598.707 550.002 598.603 549.547 598.603C549.047 598.603 548.613 598.727 548.248 598.976C547.885 599.221 547.607 599.54 547.411 599.934C547.216 600.329 547.118 600.751 547.118 601.202V601.927C547.118 602.544 547.225 603.068 547.438 603.498C547.655 603.924 547.955 604.249 548.338 604.473C548.722 604.693 549.167 604.803 549.675 604.803C550.006 604.803 550.304 604.757 550.57 604.664C550.84 604.569 551.073 604.427 551.268 604.238C551.463 604.047 551.614 603.809 551.721 603.525L552.935 603.865C552.807 604.277 552.593 604.64 552.291 604.952C551.989 605.261 551.616 605.503 551.172 605.677C550.728 605.847 550.229 605.932 549.675 605.932ZM558.619 597.58V598.645H554.208V597.58H558.619ZM555.529 605.762V596.451C555.529 595.982 555.639 595.591 555.86 595.279C556.08 594.966 556.366 594.732 556.717 594.576C557.069 594.419 557.44 594.341 557.83 594.341C558.139 594.341 558.392 594.366 558.587 594.416C558.782 594.466 558.928 594.512 559.024 594.554L558.661 595.641C558.597 595.62 558.509 595.593 558.395 595.561C558.285 595.529 558.139 595.513 557.958 595.513C557.543 595.513 557.243 595.618 557.058 595.827C556.877 596.037 556.786 596.344 556.786 596.749V605.762H555.529ZM560.381 605.762V597.58H561.638V605.762H560.381ZM560.445 596.472L561.744 594H563.214L561.552 596.472H560.445ZM567.264 605.932C566.497 605.932 565.836 605.751 565.283 605.389C564.729 605.027 564.302 604.528 564.004 603.892C563.706 603.256 563.557 602.53 563.557 601.713C563.557 600.883 563.709 600.149 564.015 599.514C564.324 598.874 564.753 598.375 565.304 598.017C565.858 597.655 566.504 597.473 567.243 597.473C567.818 597.473 568.336 597.58 568.798 597.793C569.26 598.006 569.638 598.304 569.933 598.688C570.227 599.071 570.41 599.519 570.481 600.03H569.224C569.128 599.657 568.915 599.327 568.585 599.039C568.258 598.748 567.818 598.603 567.264 598.603C566.774 598.603 566.344 598.731 565.975 598.986C565.609 599.238 565.323 599.595 565.117 600.057C564.915 600.515 564.814 601.053 564.814 601.671C564.814 602.303 564.913 602.853 565.112 603.322C565.314 603.791 565.599 604.155 565.964 604.414C566.334 604.673 566.767 604.803 567.264 604.803C567.591 604.803 567.887 604.746 568.154 604.633C568.42 604.519 568.645 604.356 568.83 604.142C569.015 603.929 569.146 603.674 569.224 603.375H570.481C570.41 603.858 570.235 604.293 569.954 604.68C569.677 605.064 569.309 605.369 568.851 605.597C568.397 605.82 567.868 605.932 567.264 605.932ZM572.319 605.762V597.58H573.576V605.762H572.319ZM572.958 596.216C572.713 596.216 572.502 596.133 572.324 595.966C572.15 595.799 572.063 595.598 572.063 595.364C572.063 595.13 572.15 594.929 572.324 594.762C572.502 594.595 572.713 594.512 572.958 594.512C573.203 594.512 573.413 594.595 573.587 594.762C573.764 594.929 573.853 595.13 573.853 595.364C573.853 595.598 573.764 595.799 573.587 595.966C573.413 596.133 573.203 596.216 572.958 596.216ZM579.203 605.932C578.464 605.932 577.816 605.756 577.258 605.405C576.704 605.053 576.271 604.561 575.959 603.929C575.65 603.297 575.495 602.559 575.495 601.713C575.495 600.861 575.65 600.117 575.959 599.482C576.271 598.846 576.704 598.352 577.258 598.001C577.816 597.649 578.464 597.473 579.203 597.473C579.941 597.473 580.587 597.649 581.141 598.001C581.699 598.352 582.132 598.846 582.441 599.482C582.754 600.117 582.91 600.861 582.91 601.713C582.91 602.559 582.754 603.297 582.441 603.929C582.132 604.561 581.699 605.053 581.141 605.405C580.587 605.756 579.941 605.932 579.203 605.932ZM579.203 604.803C579.764 604.803 580.225 604.659 580.587 604.372C580.95 604.084 581.218 603.706 581.392 603.237C581.566 602.768 581.653 602.26 581.653 601.713C581.653 601.167 581.566 600.657 581.392 600.185C581.218 599.712 580.95 599.331 580.587 599.039C580.225 598.748 579.764 598.603 579.203 598.603C578.641 598.603 578.18 598.748 577.818 599.039C577.455 599.331 577.187 599.712 577.013 600.185C576.839 600.657 576.752 601.167 576.752 601.713C576.752 602.26 576.839 602.768 577.013 603.237C577.187 603.706 577.455 604.084 577.818 604.372C578.18 604.659 578.641 604.803 579.203 604.803ZM590.624 599.412L589.495 599.732C589.424 599.544 589.319 599.361 589.181 599.183C589.046 599.002 588.861 598.853 588.627 598.736C588.392 598.619 588.092 598.56 587.727 598.56C587.226 598.56 586.809 598.675 586.475 598.906C586.145 599.134 585.979 599.423 585.979 599.775C585.979 600.087 586.093 600.334 586.32 600.515C586.548 600.696 586.903 600.847 587.386 600.968L588.6 601.266C589.332 601.444 589.877 601.715 590.235 602.081C590.594 602.443 590.773 602.91 590.773 603.482C590.773 603.951 590.639 604.37 590.369 604.739C590.102 605.108 589.729 605.4 589.25 605.613C588.771 605.826 588.213 605.932 587.577 605.932C586.743 605.932 586.052 605.751 585.505 605.389C584.958 605.027 584.612 604.498 584.467 603.802L585.66 603.503C585.773 603.944 585.988 604.274 586.304 604.494C586.624 604.714 587.041 604.824 587.556 604.824C588.142 604.824 588.607 604.7 588.952 604.451C589.3 604.199 589.474 603.897 589.474 603.546C589.474 603.262 589.374 603.024 589.175 602.832C588.977 602.637 588.671 602.491 588.259 602.395L586.896 602.076C586.146 601.898 585.596 601.623 585.244 601.25C584.896 600.874 584.722 600.403 584.722 599.838C584.722 599.377 584.852 598.968 585.111 598.613C585.374 598.258 585.731 597.979 586.182 597.777C586.636 597.575 587.151 597.473 587.727 597.473C588.536 597.473 589.172 597.651 589.634 598.006C590.099 598.361 590.429 598.83 590.624 599.412ZM518.984 626.83V615.58H520.199V616.88H520.348C520.44 616.738 520.568 616.557 520.731 616.336C520.898 616.113 521.136 615.914 521.445 615.74C521.758 615.562 522.18 615.473 522.713 615.473C523.402 615.473 524.009 615.646 524.535 615.99C525.06 616.335 525.47 616.823 525.765 617.455C526.06 618.087 526.207 618.833 526.207 619.692C526.207 620.559 526.06 621.31 525.765 621.945C525.47 622.577 525.062 623.068 524.54 623.416C524.018 623.76 523.416 623.932 522.734 623.932C522.209 623.932 521.788 623.845 521.472 623.671C521.156 623.494 520.912 623.293 520.742 623.069C520.571 622.842 520.44 622.654 520.348 622.505H520.241V626.83H518.984ZM520.22 619.671C520.22 620.289 520.31 620.834 520.492 621.306C520.673 621.775 520.937 622.142 521.285 622.409C521.633 622.672 522.059 622.803 522.564 622.803C523.089 622.803 523.528 622.664 523.879 622.387C524.234 622.107 524.501 621.731 524.678 621.258C524.859 620.782 524.95 620.253 524.95 619.671C524.95 619.096 524.861 618.577 524.684 618.115C524.51 617.65 524.245 617.283 523.89 617.013C523.538 616.739 523.096 616.603 522.564 616.603C522.052 616.603 521.623 616.732 521.275 616.992C520.927 617.247 520.664 617.606 520.486 618.068C520.309 618.526 520.22 619.06 520.22 619.671ZM531.449 623.932C530.71 623.932 530.062 623.756 529.504 623.405C528.95 623.053 528.517 622.561 528.205 621.929C527.896 621.297 527.741 620.559 527.741 619.713C527.741 618.861 527.896 618.117 528.205 617.482C528.517 616.846 528.95 616.352 529.504 616.001C530.062 615.649 530.71 615.473 531.449 615.473C532.187 615.473 532.834 615.649 533.388 616.001C533.945 616.352 534.378 616.846 534.687 617.482C535 618.117 535.156 618.861 535.156 619.713C535.156 620.559 535 621.297 534.687 621.929C534.378 622.561 533.945 623.053 533.388 623.405C532.834 623.756 532.187 623.932 531.449 623.932ZM531.449 622.803C532.01 622.803 532.471 622.659 532.834 622.372C533.196 622.084 533.464 621.706 533.638 621.237C533.812 620.768 533.899 620.26 533.899 619.713C533.899 619.167 533.812 618.657 533.638 618.185C533.464 617.712 533.196 617.331 532.834 617.039C532.471 616.748 532.01 616.603 531.449 616.603C530.888 616.603 530.426 616.748 530.064 617.039C529.701 617.331 529.433 617.712 529.259 618.185C529.085 618.657 528.998 619.167 528.998 619.713C528.998 620.26 529.085 620.768 529.259 621.237C529.433 621.706 529.701 622.084 530.064 622.372C530.426 622.659 530.888 622.803 531.449 622.803ZM537.075 623.762V615.58H538.289V616.816H538.375C538.524 616.411 538.794 616.082 539.184 615.83C539.575 615.578 540.015 615.452 540.505 615.452C540.598 615.452 540.713 615.454 540.852 615.457C540.99 615.461 541.095 615.466 541.166 615.473V616.752C541.123 616.741 541.026 616.725 540.873 616.704C540.724 616.679 540.566 616.667 540.399 616.667C540.001 616.667 539.646 616.75 539.333 616.917C539.025 617.08 538.779 617.308 538.598 617.599C538.421 617.886 538.332 618.215 538.332 618.584V623.762H537.075ZM552.67 617.412L551.541 617.732C551.47 617.544 551.365 617.361 551.227 617.183C551.092 617.002 550.907 616.853 550.673 616.736C550.438 616.619 550.138 616.56 549.772 616.56C549.272 616.56 548.855 616.675 548.521 616.906C548.19 617.134 548.025 617.423 548.025 617.775C548.025 618.087 548.139 618.334 548.366 618.515C548.594 618.696 548.949 618.847 549.432 618.968L550.646 619.266C551.378 619.444 551.923 619.715 552.281 620.081C552.64 620.443 552.819 620.91 552.819 621.482C552.819 621.951 552.684 622.37 552.415 622.739C552.148 623.108 551.775 623.4 551.296 623.613C550.817 623.826 550.259 623.932 549.623 623.932C548.789 623.932 548.098 623.751 547.551 623.389C547.004 623.027 546.658 622.498 546.513 621.802L547.706 621.503C547.819 621.944 548.034 622.274 548.35 622.494C548.67 622.714 549.087 622.824 549.602 622.824C550.188 622.824 550.653 622.7 550.998 622.451C551.346 622.199 551.52 621.897 551.52 621.546C551.52 621.262 551.42 621.024 551.221 620.832C551.022 620.637 550.717 620.491 550.305 620.395L548.942 620.076C548.192 619.898 547.642 619.623 547.29 619.25C546.942 618.874 546.768 618.403 546.768 617.838C546.768 617.377 546.898 616.968 547.157 616.613C547.42 616.258 547.777 615.979 548.228 615.777C548.682 615.575 549.197 615.473 549.772 615.473C550.582 615.473 551.218 615.651 551.679 616.006C552.145 616.361 552.475 616.83 552.67 617.412ZM558.142 623.932C557.354 623.932 556.674 623.758 556.102 623.41C555.534 623.059 555.095 622.569 554.786 621.94C554.481 621.308 554.328 620.573 554.328 619.735C554.328 618.897 554.481 618.158 554.786 617.519C555.095 616.876 555.525 616.375 556.075 616.017C556.629 615.655 557.276 615.473 558.014 615.473C558.44 615.473 558.861 615.544 559.277 615.686C559.692 615.829 560.07 616.059 560.411 616.379C560.752 616.695 561.024 617.114 561.226 617.636C561.429 618.158 561.53 618.801 561.53 619.564V620.097H555.223V619.01H560.251C560.251 618.549 560.159 618.137 559.974 617.775C559.793 617.412 559.534 617.126 559.197 616.917C558.863 616.707 558.469 616.603 558.014 616.603C557.514 616.603 557.08 616.727 556.715 616.976C556.352 617.221 556.074 617.54 555.878 617.934C555.683 618.329 555.585 618.751 555.585 619.202V619.927C555.585 620.544 555.692 621.068 555.905 621.498C556.121 621.924 556.422 622.249 556.805 622.473C557.189 622.693 557.634 622.803 558.142 622.803C558.472 622.803 558.771 622.757 559.037 622.664C559.307 622.569 559.539 622.427 559.735 622.238C559.93 622.047 560.081 621.809 560.188 621.525L561.402 621.865C561.274 622.277 561.059 622.64 560.757 622.952C560.456 623.261 560.083 623.503 559.639 623.677C559.195 623.847 558.696 623.932 558.142 623.932ZM566.745 627C566.137 627 565.615 626.922 565.179 626.766C564.742 626.613 564.378 626.411 564.087 626.159C563.799 625.91 563.57 625.644 563.4 625.36L564.401 624.657C564.515 624.806 564.658 624.976 564.832 625.168C565.006 625.363 565.244 625.532 565.546 625.674C565.852 625.82 566.251 625.892 566.745 625.892C567.405 625.892 567.95 625.733 568.38 625.413C568.81 625.093 569.025 624.593 569.025 623.911V622.249H568.918C568.826 622.398 568.694 622.583 568.524 622.803C568.357 623.02 568.115 623.213 567.799 623.384C567.487 623.55 567.064 623.634 566.532 623.634C565.871 623.634 565.278 623.478 564.753 623.165C564.23 622.853 563.817 622.398 563.511 621.802C563.21 621.205 563.059 620.481 563.059 619.628C563.059 618.79 563.206 618.06 563.501 617.439C563.795 616.814 564.206 616.331 564.731 615.99C565.257 615.646 565.864 615.473 566.553 615.473C567.086 615.473 567.508 615.562 567.821 615.74C568.137 615.914 568.378 616.113 568.545 616.336C568.716 616.557 568.847 616.738 568.939 616.88H569.067V615.58H570.282V623.996C570.282 624.699 570.122 625.271 569.802 625.711C569.486 626.155 569.06 626.48 568.524 626.686C567.991 626.896 567.398 627 566.745 627ZM566.702 622.505C567.206 622.505 567.632 622.389 567.98 622.158C568.328 621.928 568.593 621.596 568.774 621.162C568.955 620.729 569.046 620.211 569.046 619.607C569.046 619.017 568.957 618.497 568.779 618.046C568.602 617.595 568.339 617.242 567.991 616.986C567.643 616.731 567.213 616.603 566.702 616.603C566.169 616.603 565.726 616.738 565.37 617.008C565.019 617.277 564.754 617.64 564.577 618.094C564.403 618.549 564.316 619.053 564.316 619.607C564.316 620.175 564.404 620.678 564.582 621.114C564.763 621.548 565.029 621.889 565.381 622.137C565.736 622.382 566.177 622.505 566.702 622.505ZM572.583 623.762V615.58H573.797V616.858H573.904C574.074 616.422 574.349 616.082 574.729 615.841C575.109 615.596 575.566 615.473 576.098 615.473C576.638 615.473 577.087 615.596 577.446 615.841C577.808 616.082 578.091 616.422 578.293 616.858H578.378C578.588 616.436 578.902 616.1 579.321 615.852C579.74 615.599 580.243 615.473 580.828 615.473C581.56 615.473 582.158 615.702 582.624 616.161C583.089 616.615 583.321 617.324 583.321 618.286V623.762H582.064V618.286C582.064 617.682 581.899 617.251 581.569 616.992C581.239 616.732 580.85 616.603 580.402 616.603C579.827 616.603 579.381 616.777 579.065 617.125C578.749 617.469 578.591 617.906 578.591 618.435V623.762H577.313V618.158C577.313 617.693 577.162 617.318 576.86 617.034C576.558 616.747 576.169 616.603 575.694 616.603C575.367 616.603 575.061 616.69 574.777 616.864C574.497 617.038 574.27 617.279 574.096 617.588C573.925 617.894 573.84 618.247 573.84 618.648V623.762H572.583ZM589.05 623.932C588.262 623.932 587.582 623.758 587.01 623.41C586.442 623.059 586.003 622.569 585.694 621.94C585.389 621.308 585.236 620.573 585.236 619.735C585.236 618.897 585.389 618.158 585.694 617.519C586.003 616.876 586.433 616.375 586.984 616.017C587.537 615.655 588.184 615.473 588.922 615.473C589.349 615.473 589.769 615.544 590.185 615.686C590.6 615.829 590.979 616.059 591.319 616.379C591.66 616.695 591.932 617.114 592.134 617.636C592.337 618.158 592.438 618.801 592.438 619.564V620.097H586.131V619.01H591.16C591.16 618.549 591.067 618.137 590.883 617.775C590.702 617.412 590.442 617.126 590.105 616.917C589.771 616.707 589.377 616.603 588.922 616.603C588.422 616.603 587.988 616.727 587.623 616.976C587.26 617.221 586.982 617.54 586.786 617.934C586.591 618.329 586.493 618.751 586.493 619.202V619.927C586.493 620.544 586.6 621.068 586.813 621.498C587.03 621.924 587.33 622.249 587.713 622.473C588.097 622.693 588.542 622.803 589.05 622.803C589.381 622.803 589.679 622.757 589.945 622.664C590.215 622.569 590.448 622.427 590.643 622.238C590.838 622.047 590.989 621.809 591.096 621.525L592.31 621.865C592.182 622.277 591.968 622.64 591.666 622.952C591.364 623.261 590.991 623.503 590.547 623.677C590.103 623.847 589.604 623.932 589.05 623.932ZM595.607 618.84V623.762H594.35V615.58H595.565V616.858H595.671C595.863 616.443 596.154 616.109 596.545 615.857C596.936 615.601 597.44 615.473 598.058 615.473C598.612 615.473 599.096 615.587 599.512 615.814C599.927 616.038 600.251 616.379 600.481 616.837C600.712 617.292 600.828 617.867 600.828 618.563V623.762H599.571V618.648C599.571 618.005 599.404 617.505 599.07 617.146C598.736 616.784 598.278 616.603 597.696 616.603C597.294 616.603 596.936 616.69 596.62 616.864C596.307 617.038 596.06 617.292 595.879 617.625C595.698 617.959 595.607 618.364 595.607 618.84ZM606.683 615.58V616.645H602.443V615.58H606.683ZM603.679 613.62H604.936V621.418C604.936 621.773 604.987 622.039 605.09 622.217C605.197 622.391 605.332 622.508 605.495 622.569C605.662 622.625 605.838 622.654 606.022 622.654C606.161 622.654 606.275 622.647 606.363 622.633C606.452 622.615 606.523 622.601 606.576 622.59L606.832 623.719C606.747 623.751 606.628 623.783 606.475 623.815C606.323 623.851 606.129 623.868 605.895 623.868C605.54 623.868 605.192 623.792 604.851 623.639C604.513 623.487 604.233 623.254 604.009 622.941C603.789 622.629 603.679 622.235 603.679 621.759V613.62ZM611.81 623.932C611.071 623.932 610.423 623.756 609.866 623.405C609.312 623.053 608.878 622.561 608.566 621.929C608.257 621.297 608.103 620.559 608.103 619.713C608.103 618.861 608.257 618.117 608.566 617.482C608.878 616.846 609.312 616.352 609.866 616.001C610.423 615.649 611.071 615.473 611.81 615.473C612.549 615.473 613.195 615.649 613.749 616.001C614.306 616.352 614.74 616.846 615.049 617.482C615.361 618.117 615.517 618.861 615.517 619.713C615.517 620.559 615.361 621.297 615.049 621.929C614.74 622.561 614.306 623.053 613.749 623.405C613.195 623.756 612.549 623.932 611.81 623.932ZM611.81 622.803C612.371 622.803 612.833 622.659 613.195 622.372C613.557 622.084 613.825 621.706 613.999 621.237C614.173 620.768 614.26 620.26 614.26 619.713C614.26 619.167 614.173 618.657 613.999 618.185C613.825 617.712 613.557 617.331 613.195 617.039C612.833 616.748 612.371 616.603 611.81 616.603C611.249 616.603 610.787 616.748 610.425 617.039C610.063 617.331 609.795 617.712 609.621 618.185C609.447 618.657 609.36 619.167 609.36 619.713C609.36 620.26 609.447 620.768 609.621 621.237C609.795 621.706 610.063 622.084 610.425 622.372C610.787 622.659 611.249 622.803 611.81 622.803ZM522.074 641.932C521.392 641.932 520.79 641.76 520.268 641.416C519.746 641.068 519.337 640.577 519.043 639.945C518.748 639.31 518.601 638.559 518.601 637.692C518.601 636.833 518.748 636.087 519.043 635.455C519.337 634.823 519.748 634.335 520.273 633.99C520.799 633.646 521.406 633.473 522.095 633.473C522.628 633.473 523.048 633.562 523.357 633.74C523.67 633.914 523.908 634.113 524.071 634.336C524.238 634.557 524.368 634.738 524.46 634.88H524.567V630.853H525.824V641.762H524.609V640.505H524.46C524.368 640.654 524.236 640.842 524.066 641.069C523.895 641.293 523.652 641.494 523.336 641.671C523.02 641.845 522.599 641.932 522.074 641.932ZM522.244 640.803C522.748 640.803 523.174 640.672 523.522 640.409C523.87 640.142 524.135 639.775 524.316 639.306C524.497 638.834 524.588 638.289 524.588 637.671C524.588 637.06 524.499 636.526 524.321 636.068C524.144 635.606 523.881 635.247 523.533 634.992C523.185 634.732 522.755 634.603 522.244 634.603C521.711 634.603 521.268 634.739 520.912 635.013C520.561 635.283 520.296 635.65 520.119 636.115C519.945 636.577 519.858 637.096 519.858 637.671C519.858 638.253 519.946 638.782 520.124 639.258C520.305 639.731 520.571 640.107 520.923 640.387C521.278 640.664 521.719 640.803 522.244 640.803ZM531.731 641.932C530.943 641.932 530.263 641.758 529.691 641.41C529.123 641.059 528.684 640.569 528.375 639.94C528.07 639.308 527.917 638.573 527.917 637.735C527.917 636.897 528.07 636.158 528.375 635.519C528.684 634.876 529.114 634.375 529.664 634.017C530.218 633.655 530.864 633.473 531.603 633.473C532.029 633.473 532.45 633.544 532.866 633.686C533.281 633.829 533.659 634.059 534 634.379C534.341 634.695 534.613 635.114 534.815 635.636C535.018 636.158 535.119 636.801 535.119 637.564V638.097H528.812V637.01H533.84C533.84 636.549 533.748 636.137 533.563 635.775C533.382 635.412 533.123 635.126 532.786 634.917C532.452 634.707 532.058 634.603 531.603 634.603C531.102 634.603 530.669 634.727 530.303 634.976C529.941 635.221 529.662 635.54 529.467 635.934C529.272 636.329 529.174 636.751 529.174 637.202V637.927C529.174 638.544 529.281 639.068 529.494 639.498C529.71 639.924 530.01 640.249 530.394 640.473C530.777 640.693 531.223 640.803 531.731 640.803C532.061 640.803 532.359 640.757 532.626 640.664C532.896 640.569 533.128 640.427 533.324 640.238C533.519 640.047 533.67 639.809 533.776 639.525L534.991 639.865C534.863 640.277 534.648 640.64 534.346 640.952C534.044 641.261 533.672 641.503 533.228 641.677C532.784 641.847 532.285 641.932 531.731 641.932ZM541.25 641.762V633.58H542.507V641.762H541.25ZM541.889 632.216C541.644 632.216 541.433 632.133 541.255 631.966C541.081 631.799 540.994 631.598 540.994 631.364C540.994 631.13 541.081 630.929 541.255 630.762C541.433 630.595 541.644 630.512 541.889 630.512C542.134 630.512 542.344 630.595 542.518 630.762C542.695 630.929 542.784 631.13 542.784 631.364C542.784 631.598 542.695 631.799 542.518 631.966C542.344 632.133 542.134 632.216 541.889 632.216ZM546.066 636.84V641.762H544.809V633.58H546.024V634.858H546.13C546.322 634.443 546.613 634.109 547.004 633.857C547.395 633.601 547.899 633.473 548.517 633.473C549.071 633.473 549.555 633.587 549.971 633.814C550.386 634.038 550.71 634.379 550.94 634.837C551.171 635.292 551.287 635.867 551.287 636.563V641.762H550.029V636.648C550.029 636.005 549.863 635.505 549.529 635.146C549.195 634.784 548.737 634.603 548.154 634.603C547.753 634.603 547.395 634.69 547.078 634.864C546.766 635.038 546.519 635.292 546.338 635.625C546.157 635.959 546.066 636.364 546.066 636.84ZM557.227 633.58V634.645H552.817V633.58H557.227ZM554.138 641.762V632.451C554.138 631.982 554.248 631.591 554.468 631.279C554.688 630.966 554.974 630.732 555.326 630.576C555.677 630.419 556.048 630.341 556.439 630.341C556.748 630.341 557 630.366 557.195 630.416C557.391 630.466 557.536 630.512 557.632 630.554L557.27 631.641C557.206 631.62 557.117 631.593 557.003 631.561C556.893 631.529 556.748 631.513 556.567 631.513C556.151 631.513 555.851 631.618 555.666 631.827C555.485 632.037 555.395 632.344 555.395 632.749V641.762H554.138ZM560.246 630.853V641.762H558.989V630.853H560.246ZM567.705 638.417V633.58H568.962V641.762H567.705V640.377H567.62C567.428 640.792 567.13 641.146 566.725 641.437C566.32 641.724 565.809 641.868 565.191 641.868C564.679 641.868 564.225 641.756 563.827 641.533C563.429 641.305 563.117 640.965 562.889 640.51C562.662 640.052 562.549 639.475 562.549 638.779V633.58H563.806V638.694C563.806 639.29 563.973 639.766 564.306 640.121C564.644 640.476 565.073 640.654 565.595 640.654C565.908 640.654 566.226 640.574 566.549 640.414C566.876 640.254 567.149 640.009 567.369 639.679C567.593 639.349 567.705 638.928 567.705 638.417ZM574.695 641.932C573.906 641.932 573.226 641.758 572.655 641.41C572.086 641.059 571.648 640.569 571.339 639.94C571.034 639.308 570.881 638.573 570.881 637.735C570.881 636.897 571.034 636.158 571.339 635.519C571.648 634.876 572.078 634.375 572.628 634.017C573.182 633.655 573.828 633.473 574.567 633.473C574.993 633.473 575.414 633.544 575.829 633.686C576.245 633.829 576.623 634.059 576.964 634.379C577.305 634.695 577.577 635.114 577.779 635.636C577.981 636.158 578.083 636.801 578.083 637.564V638.097H571.776V637.01H576.804C576.804 636.549 576.712 636.137 576.527 635.775C576.346 635.412 576.087 635.126 575.749 634.917C575.416 634.707 575.022 634.603 574.567 634.603C574.066 634.603 573.633 634.727 573.267 634.976C572.905 635.221 572.626 635.54 572.431 635.934C572.236 636.329 572.138 636.751 572.138 637.202V637.927C572.138 638.544 572.245 639.068 572.458 639.498C572.674 639.924 572.974 640.249 573.358 640.473C573.741 640.693 574.187 640.803 574.695 640.803C575.025 640.803 575.323 640.757 575.59 640.664C575.86 640.569 576.092 640.427 576.287 640.238C576.483 640.047 576.634 639.809 576.74 639.525L577.955 639.865C577.827 640.277 577.612 640.64 577.31 640.952C577.008 641.261 576.635 641.503 576.192 641.677C575.748 641.847 575.249 641.932 574.695 641.932ZM575.611 632.6L574.503 631.108L573.395 632.6H572.202V632.515L573.928 630.299H575.078L576.804 632.515V632.6H575.611ZM581.252 636.84V641.762H579.995V633.58H581.209V634.858H581.316C581.508 634.443 581.799 634.109 582.189 633.857C582.58 633.601 583.084 633.473 583.702 633.473C584.256 633.473 584.741 633.587 585.156 633.814C585.572 634.038 585.895 634.379 586.126 634.837C586.357 635.292 586.472 635.867 586.472 636.563V641.762H585.215V636.648C585.215 636.005 585.048 635.505 584.714 635.146C584.381 634.784 583.922 634.603 583.34 634.603C582.939 634.603 582.58 634.69 582.264 634.864C581.952 635.038 581.705 635.292 581.524 635.625C581.343 635.959 581.252 636.364 581.252 636.84ZM592.093 641.932C591.326 641.932 590.666 641.751 590.112 641.389C589.558 641.027 589.131 640.528 588.833 639.892C588.535 639.256 588.386 638.53 588.386 637.713C588.386 636.883 588.538 636.149 588.844 635.514C589.153 634.874 589.582 634.375 590.133 634.017C590.687 633.655 591.333 633.473 592.072 633.473C592.647 633.473 593.166 633.58 593.627 633.793C594.089 634.006 594.467 634.304 594.762 634.688C595.057 635.071 595.239 635.519 595.31 636.03H594.053C593.957 635.657 593.744 635.327 593.414 635.039C593.087 634.748 592.647 634.603 592.093 634.603C591.603 634.603 591.173 634.731 590.804 634.986C590.438 635.238 590.152 635.595 589.946 636.057C589.744 636.515 589.643 637.053 589.643 637.671C589.643 638.303 589.742 638.853 589.941 639.322C590.144 639.791 590.428 640.155 590.793 640.414C591.163 640.673 591.596 640.803 592.093 640.803C592.42 640.803 592.716 640.746 592.983 640.633C593.249 640.519 593.475 640.356 593.659 640.142C593.844 639.929 593.975 639.674 594.053 639.375H595.31C595.239 639.858 595.064 640.293 594.783 640.68C594.506 641.064 594.139 641.369 593.681 641.597C593.226 641.82 592.697 641.932 592.093 641.932ZM597.148 641.762V633.58H598.405V641.762H597.148ZM597.787 632.216C597.542 632.216 597.331 632.133 597.154 631.966C596.98 631.799 596.893 631.598 596.893 631.364C596.893 631.13 596.98 630.929 597.154 630.762C597.331 630.595 597.542 630.512 597.787 630.512C598.032 630.512 598.242 630.595 598.416 630.762C598.594 630.929 598.682 631.13 598.682 631.364C598.682 631.598 598.594 631.799 598.416 631.966C598.242 632.133 598.032 632.216 597.787 632.216ZM603.115 641.954C602.597 641.954 602.126 641.856 601.704 641.661C601.281 641.462 600.946 641.176 600.697 640.803C600.449 640.427 600.324 639.972 600.324 639.439C600.324 638.971 600.417 638.591 600.601 638.299C600.786 638.005 601.033 637.774 601.342 637.607C601.651 637.44 601.991 637.316 602.364 637.234C602.741 637.149 603.119 637.081 603.499 637.032C603.996 636.968 604.399 636.92 604.708 636.888C605.021 636.852 605.248 636.794 605.39 636.712C605.536 636.63 605.608 636.488 605.608 636.286V636.243C605.608 635.718 605.465 635.309 605.177 635.018C604.893 634.727 604.461 634.581 603.882 634.581C603.282 634.581 602.812 634.713 602.471 634.976C602.13 635.238 601.89 635.519 601.752 635.817L600.559 635.391C600.772 634.894 601.056 634.507 601.411 634.23C601.77 633.949 602.16 633.754 602.583 633.644C603.009 633.53 603.428 633.473 603.84 633.473C604.103 633.473 604.404 633.505 604.745 633.569C605.09 633.63 605.422 633.756 605.741 633.948C606.065 634.139 606.333 634.429 606.546 634.816C606.759 635.203 606.865 635.721 606.865 636.371V641.762H605.608V640.654H605.544C605.459 640.831 605.317 641.021 605.118 641.224C604.919 641.426 604.655 641.598 604.325 641.74C603.994 641.883 603.591 641.954 603.115 641.954ZM603.307 640.824C603.804 640.824 604.223 640.727 604.564 640.531C604.909 640.336 605.168 640.084 605.342 639.775C605.52 639.466 605.608 639.141 605.608 638.8V637.65C605.555 637.713 605.438 637.772 605.257 637.825C605.079 637.875 604.873 637.919 604.639 637.959C604.408 637.994 604.183 638.026 603.962 638.054C603.746 638.079 603.57 638.101 603.435 638.118C603.108 638.161 602.803 638.23 602.519 638.326C602.238 638.418 602.011 638.559 601.837 638.747C601.667 638.932 601.581 639.184 601.581 639.503C601.581 639.94 601.743 640.27 602.066 640.494C602.393 640.714 602.806 640.824 603.307 640.824Z" fill="#DDD5D5" fill-opacity="0.7"/>
<path d="M1.76847 623.057L5.0071 632.24H5.13494L8.37358 623.057H9.75852L5.75284 633.966H4.3892L0.383523 623.057H1.76847ZM12.9332 634.157C12.4148 634.157 11.9442 634.06 11.5217 633.864C11.0991 633.666 10.7635 633.38 10.5149 633.007C10.2663 632.63 10.142 632.176 10.142 631.643C10.142 631.175 10.2344 630.795 10.419 630.503C10.6037 630.209 10.8505 629.978 11.1594 629.811C11.4684 629.644 11.8093 629.52 12.1822 629.438C12.5586 629.353 12.9368 629.285 13.3168 629.236C13.8139 629.172 14.217 629.124 14.5259 629.092C14.8384 629.056 15.0657 628.998 15.2077 628.916C15.3533 628.834 15.4261 628.692 15.4261 628.49V628.447C15.4261 627.922 15.2823 627.513 14.9947 627.222C14.7106 626.931 14.2791 626.785 13.7003 626.785C13.1001 626.785 12.6296 626.917 12.2887 627.179C11.9478 627.442 11.7081 627.723 11.5696 628.021L10.3764 627.595C10.5895 627.098 10.8736 626.711 11.2287 626.434C11.5874 626.153 11.978 625.958 12.4006 625.848C12.8267 625.734 13.2457 625.677 13.6577 625.677C13.9205 625.677 14.2223 625.709 14.5632 625.773C14.9077 625.834 15.2397 625.96 15.5593 626.151C15.8825 626.343 16.1506 626.633 16.3636 627.02C16.5767 627.407 16.6832 627.925 16.6832 628.575V633.966H15.4261V632.858H15.3622C15.277 633.035 15.1349 633.225 14.9361 633.428C14.7372 633.63 14.4727 633.802 14.1424 633.944C13.8121 634.086 13.4091 634.157 12.9332 634.157ZM13.125 633.028C13.6222 633.028 14.0412 632.931 14.3821 632.735C14.7266 632.54 14.9858 632.288 15.1598 631.979C15.3374 631.67 15.4261 631.345 15.4261 631.004V629.853C15.3729 629.917 15.2557 629.976 15.0746 630.029C14.897 630.079 14.6911 630.123 14.4567 630.162C14.2259 630.198 14.0004 630.23 13.7802 630.258C13.5636 630.283 13.3878 630.304 13.2528 630.322C12.9261 630.365 12.6207 630.434 12.3366 630.53C12.0561 630.622 11.8288 630.763 11.6548 630.951C11.4844 631.135 11.3991 631.388 11.3991 631.707C11.3991 632.144 11.5607 632.474 11.8839 632.698C12.2106 632.918 12.6243 633.028 13.125 633.028ZM20.2348 629.044V633.966H18.9777V625.784H20.1922V627.062H20.2987C20.4905 626.647 20.7817 626.313 21.1723 626.061C21.5629 625.805 22.0672 625.677 22.6851 625.677C23.2391 625.677 23.7238 625.791 24.1393 626.018C24.5548 626.242 24.8779 626.583 25.1088 627.041C25.3396 627.496 25.455 628.071 25.455 628.767V633.966H24.1979V628.852C24.1979 628.209 24.031 627.709 23.6972 627.35C23.3634 626.988 22.9053 626.807 22.3229 626.807C21.9216 626.807 21.5629 626.894 21.2469 627.068C20.9344 627.242 20.6876 627.496 20.5065 627.829C20.3254 628.163 20.2348 628.568 20.2348 629.044ZM31.3104 625.784V626.849H27.0703V625.784H31.3104ZM28.3061 623.824H29.5632V631.622C29.5632 631.977 29.6147 632.243 29.7177 632.421C29.8242 632.595 29.9592 632.712 30.1225 632.773C30.2894 632.829 30.4652 632.858 30.6499 632.858C30.7884 632.858 30.902 632.851 30.9908 632.836C31.0795 632.819 31.1506 632.804 31.2038 632.794L31.4595 633.923C31.3743 633.955 31.2553 633.987 31.1026 634.019C30.9499 634.054 30.7564 634.072 30.522 634.072C30.1669 634.072 29.8189 633.996 29.478 633.843C29.1406 633.69 28.8601 633.458 28.6364 633.145C28.4162 632.833 28.3061 632.439 28.3061 631.963V623.824ZM35.609 634.157C35.0906 634.157 34.62 634.06 34.1974 633.864C33.7749 633.666 33.4393 633.38 33.1907 633.007C32.9421 632.63 32.8178 632.176 32.8178 631.643C32.8178 631.175 32.9102 630.795 33.0948 630.503C33.2795 630.209 33.5263 629.978 33.8352 629.811C34.1442 629.644 34.4851 629.52 34.858 629.438C35.2344 629.353 35.6126 629.285 35.9925 629.236C36.4897 629.172 36.8928 629.124 37.2017 629.092C37.5142 629.056 37.7415 628.998 37.8835 628.916C38.0291 628.834 38.1019 628.692 38.1019 628.49V628.447C38.1019 627.922 37.9581 627.513 37.6705 627.222C37.3864 626.931 36.9549 626.785 36.3761 626.785C35.7759 626.785 35.3054 626.917 34.9645 627.179C34.6236 627.442 34.3839 627.723 34.2454 628.021L33.0522 627.595C33.2653 627.098 33.5494 626.711 33.9045 626.434C34.2631 626.153 34.6538 625.958 35.0763 625.848C35.5025 625.734 35.9215 625.677 36.3335 625.677C36.5962 625.677 36.8981 625.709 37.239 625.773C37.5835 625.834 37.9155 625.96 38.2351 626.151C38.5582 626.343 38.8263 626.633 39.0394 627.02C39.2525 627.407 39.359 627.925 39.359 628.575V633.966H38.1019V632.858H38.038C37.9528 633.035 37.8107 633.225 37.6119 633.428C37.413 633.63 37.1484 633.802 36.8182 633.944C36.4879 634.086 36.0849 634.157 35.609 634.157ZM35.8008 633.028C36.2979 633.028 36.717 632.931 37.0579 632.735C37.4023 632.54 37.6616 632.288 37.8356 631.979C38.0131 631.67 38.1019 631.345 38.1019 631.004V629.853C38.0487 629.917 37.9315 629.976 37.7504 630.029C37.5728 630.079 37.3668 630.123 37.1325 630.162C36.9016 630.198 36.6761 630.23 36.456 630.258C36.2393 630.283 36.0636 630.304 35.9286 630.322C35.6019 630.365 35.2965 630.434 35.0124 630.53C34.7319 630.622 34.5046 630.763 34.3306 630.951C34.1602 631.135 34.0749 631.388 34.0749 631.707C34.0749 632.144 34.2365 632.474 34.5597 632.698C34.8864 632.918 35.3001 633.028 35.8008 633.028ZM44.9561 637.204C44.3488 637.204 43.8268 637.126 43.39 636.97C42.9532 636.817 42.5892 636.615 42.298 636.363C42.0104 636.114 41.7813 635.848 41.6109 635.564L42.6123 634.861C42.7259 635.01 42.8698 635.18 43.0438 635.372C43.2178 635.567 43.4557 635.736 43.7575 635.878C44.0629 636.024 44.4624 636.096 44.9561 636.096C45.6166 636.096 46.1617 635.937 46.5914 635.617C47.021 635.297 47.2359 634.797 47.2359 634.115V632.453H47.1294C47.037 632.602 46.9056 632.787 46.7352 633.007C46.5683 633.224 46.3268 633.417 46.0107 633.588C45.6982 633.754 45.2757 633.838 44.743 633.838C44.0825 633.838 43.4894 633.682 42.9639 633.369C42.4419 633.057 42.0281 632.602 41.7227 632.005C41.4209 631.409 41.27 630.684 41.27 629.832C41.27 628.994 41.4173 628.264 41.7121 627.643C42.0068 627.018 42.417 626.535 42.9426 626.194C43.4681 625.85 44.0754 625.677 44.7643 625.677C45.297 625.677 45.7195 625.766 46.032 625.944C46.3481 626.118 46.5896 626.317 46.7565 626.54C46.9269 626.76 47.0583 626.942 47.1507 627.084H47.2785V625.784H48.493V634.2C48.493 634.903 48.3332 635.475 48.0136 635.915C47.6975 636.359 47.2714 636.684 46.7352 636.89C46.2025 637.1 45.6095 637.204 44.9561 637.204ZM44.9134 632.709C45.4177 632.709 45.8438 632.593 46.1919 632.362C46.5399 632.132 46.8044 631.8 46.9855 631.366C47.1666 630.933 47.2572 630.415 47.2572 629.811C47.2572 629.221 47.1684 628.701 46.9909 628.25C46.8133 627.799 46.5505 627.446 46.2025 627.19C45.8545 626.934 45.4248 626.807 44.9134 626.807C44.3808 626.807 43.9369 626.942 43.5818 627.211C43.2302 627.481 42.9656 627.844 42.7881 628.298C42.6141 628.753 42.5271 629.257 42.5271 629.811C42.5271 630.379 42.6159 630.882 42.7934 631.318C42.9745 631.752 43.2409 632.092 43.5924 632.341C43.9475 632.586 44.3879 632.709 44.9134 632.709ZM54.2245 634.136C53.4362 634.136 52.7561 633.962 52.1844 633.614C51.6162 633.263 51.1776 632.773 50.8687 632.144C50.5633 631.512 50.4106 630.777 50.4106 629.939C50.4106 629.101 50.5633 628.362 50.8687 627.723C51.1776 627.08 51.6073 626.579 52.1578 626.221C52.7117 625.858 53.358 625.677 54.0967 625.677C54.5228 625.677 54.9436 625.748 55.3591 625.89C55.7746 626.032 56.1528 626.263 56.4937 626.583C56.8346 626.899 57.1063 627.318 57.3087 627.84C57.5111 628.362 57.6123 629.005 57.6123 629.768V630.301H51.3055V629.214H56.3339C56.3339 628.753 56.2416 628.341 56.0569 627.978C55.8758 627.616 55.6166 627.33 55.2792 627.121C54.9454 626.911 54.5512 626.807 54.0967 626.807C53.596 626.807 53.1627 626.931 52.797 627.179C52.4347 627.425 52.156 627.744 51.9607 628.138C51.7654 628.532 51.6677 628.955 51.6677 629.406V630.13C51.6677 630.748 51.7742 631.272 51.9873 631.702C52.2039 632.128 52.504 632.453 52.8875 632.677C53.271 632.897 53.7167 633.007 54.2245 633.007C54.5548 633.007 54.8531 632.961 55.1194 632.868C55.3893 632.773 55.6219 632.63 55.8172 632.442C56.0125 632.25 56.1634 632.013 56.27 631.728L57.4845 632.069C57.3566 632.481 57.1418 632.844 56.8399 633.156C56.5381 633.465 56.1652 633.706 55.7213 633.88C55.2774 634.051 54.7785 634.136 54.2245 634.136ZM60.7817 629.044V633.966H59.5246V625.784H60.7391V627.062H60.8456C61.0374 626.647 61.3286 626.313 61.7192 626.061C62.1098 625.805 62.6141 625.677 63.232 625.677C63.786 625.677 64.2707 625.791 64.6862 626.018C65.1017 626.242 65.4248 626.583 65.6556 627.041C65.8865 627.496 66.0019 628.071 66.0019 628.767V633.966H64.7448V628.852C64.7448 628.209 64.5779 627.709 64.2441 627.35C63.9102 626.988 63.4521 626.807 62.8698 626.807C62.4685 626.807 62.1098 626.894 61.7938 627.068C61.4813 627.242 61.2345 627.496 61.0534 627.829C60.8722 628.163 60.7817 628.568 60.7817 629.044ZM74.0945 627.616L72.9652 627.936C72.8942 627.748 72.7894 627.565 72.6509 627.387C72.516 627.206 72.3313 627.057 72.0969 626.94C71.8626 626.823 71.5625 626.764 71.1967 626.764C70.696 626.764 70.2788 626.879 69.945 627.11C69.6147 627.338 69.4496 627.627 69.4496 627.978C69.4496 628.291 69.5632 628.538 69.7905 628.719C70.0178 628.9 70.3729 629.051 70.8558 629.172L72.0703 629.47C72.8018 629.648 73.3469 629.919 73.7056 630.285C74.0643 630.647 74.2436 631.114 74.2436 631.686C74.2436 632.155 74.1087 632.574 73.8388 632.943C73.5724 633.312 73.1996 633.603 72.7202 633.817C72.2408 634.03 71.6832 634.136 71.0476 634.136C70.2131 634.136 69.5224 633.955 68.9755 633.593C68.4286 633.231 68.0824 632.701 67.9368 632.005L69.13 631.707C69.2436 632.148 69.4585 632.478 69.7745 632.698C70.0941 632.918 70.5114 633.028 71.0263 633.028C71.6122 633.028 72.0774 632.904 72.4219 632.655C72.7699 632.403 72.9439 632.101 72.9439 631.75C72.9439 631.466 72.8445 631.228 72.6456 631.036C72.4467 630.841 72.1413 630.695 71.7294 630.599L70.3658 630.28C69.6165 630.102 69.0661 629.827 68.7145 629.454C68.3665 629.078 68.1925 628.607 68.1925 628.042C68.1925 627.581 68.3221 627.172 68.5813 626.817C68.8441 626.462 69.201 626.183 69.652 625.981C70.1065 625.779 70.6214 625.677 71.1967 625.677C72.0064 625.677 72.642 625.855 73.1037 626.21C73.5689 626.565 73.8991 627.034 74.0945 627.616ZM4.58097 652.136C3.79261 652.136 3.11257 651.962 2.54084 651.614C1.97266 651.263 1.53409 650.773 1.22514 650.144C0.919744 649.512 0.767046 648.777 0.767046 647.939C0.767046 647.101 0.919744 646.362 1.22514 645.723C1.53409 645.08 1.96378 644.579 2.5142 644.221C3.06818 643.858 3.71449 643.677 4.45312 643.677C4.87926 643.677 5.30007 643.748 5.71555 643.89C6.13104 644.032 6.50923 644.263 6.85014 644.583C7.19105 644.899 7.46271 645.318 7.66513 645.84C7.86754 646.362 7.96875 647.005 7.96875 647.768V648.301H1.66193V647.214H6.69034C6.69034 646.753 6.59801 646.341 6.41335 645.978C6.23224 645.616 5.97301 645.33 5.63565 645.121C5.30185 644.911 4.90767 644.807 4.45312 644.807C3.95241 644.807 3.51918 644.931 3.15341 645.179C2.79119 645.425 2.51243 645.744 2.31712 646.138C2.1218 646.532 2.02415 646.955 2.02415 647.406V648.13C2.02415 648.748 2.13068 649.272 2.34375 649.702C2.56037 650.128 2.86044 650.453 3.24396 650.677C3.62749 650.897 4.07315 651.007 4.58097 651.007C4.91122 651.007 5.20952 650.961 5.47585 650.868C5.74574 650.773 5.97834 650.63 6.17365 650.442C6.36896 650.25 6.51989 650.013 6.62642 649.728L7.84091 650.069C7.71307 650.481 7.49822 650.844 7.19638 651.156C6.89453 651.465 6.52166 651.706 6.07777 651.88C5.63388 652.051 5.13494 652.136 4.58097 652.136ZM10.5988 643.784L12.559 647.129L14.5193 643.784H15.9681L13.3261 647.875L15.9681 651.966H14.5193L12.559 648.791L10.5988 651.966H9.14995L11.7494 647.875L9.14995 643.784H10.5988ZM20.7488 652.136C19.9818 652.136 19.3213 651.955 18.7673 651.593C18.2133 651.231 17.7872 650.732 17.4889 650.096C17.1906 649.46 17.0415 648.734 17.0415 647.917C17.0415 647.086 17.1942 646.353 17.4996 645.717C17.8085 645.078 18.2382 644.579 18.7886 644.221C19.3426 643.858 19.9889 643.677 20.7275 643.677C21.3028 643.677 21.8213 643.784 22.2829 643.997C22.7446 644.21 23.1228 644.508 23.4175 644.892C23.7123 645.275 23.8952 645.723 23.9662 646.234H22.7091C22.6132 645.861 22.4001 645.531 22.0699 645.243C21.7432 644.952 21.3028 644.807 20.7488 644.807C20.2588 644.807 19.8291 644.934 19.4598 645.19C19.094 645.442 18.8081 645.799 18.6022 646.261C18.3998 646.719 18.2986 647.257 18.2986 647.875C18.2986 648.507 18.398 649.057 18.5969 649.526C18.7993 649.995 19.0834 650.359 19.4491 650.618C19.8184 650.877 20.2517 651.007 20.7488 651.007C21.0756 651.007 21.3721 650.95 21.6384 650.836C21.9047 650.723 22.1302 650.559 22.3149 650.346C22.4996 650.133 22.6309 649.878 22.7091 649.579H23.9662C23.8952 650.062 23.7194 650.497 23.4388 650.884C23.1618 651.268 22.7943 651.573 22.3362 651.801C21.8817 652.024 21.3525 652.136 20.7488 652.136ZM27.061 641.057V651.966H25.8039V641.057H27.061ZM34.5197 648.621V643.784H35.7768V651.966H34.5197V650.581H34.4345C34.2427 650.996 33.9444 651.35 33.5396 651.641C33.1348 651.928 32.6234 652.072 32.0055 652.072C31.4941 652.072 31.0396 651.96 30.6419 651.737C30.2441 651.509 29.9316 651.168 29.7044 650.714C29.4771 650.256 29.3635 649.679 29.3635 648.983V643.784H30.6206V648.898C30.6206 649.494 30.7875 649.97 31.1213 650.325C31.4586 650.68 31.8883 650.858 32.4103 650.858C32.7228 650.858 33.0407 650.778 33.3638 650.618C33.6905 650.458 33.964 650.213 34.1841 649.883C34.4078 649.553 34.5197 649.132 34.5197 648.621ZM43.8747 645.616L42.7455 645.936C42.6744 645.748 42.5697 645.565 42.4312 645.387C42.2963 645.206 42.1116 645.057 41.8772 644.94C41.6428 644.823 41.3428 644.764 40.977 644.764C40.4763 644.764 40.059 644.879 39.7252 645.11C39.395 645.338 39.2298 645.627 39.2298 645.978C39.2298 646.291 39.3435 646.538 39.5708 646.719C39.798 646.9 40.1531 647.051 40.6361 647.172L41.8506 647.47C42.5821 647.648 43.1272 647.919 43.4859 648.285C43.8445 648.647 44.0239 649.114 44.0239 649.686C44.0239 650.155 43.8889 650.574 43.6191 650.943C43.3527 651.312 42.9798 651.603 42.5004 651.817C42.021 652.03 41.4635 652.136 40.8279 652.136C39.9933 652.136 39.3026 651.955 38.7558 651.593C38.2089 651.231 37.8627 650.701 37.7171 650.005L38.9102 649.707C39.0239 650.148 39.2387 650.478 39.5548 650.698C39.8744 650.918 40.2916 651.028 40.8066 651.028C41.3925 651.028 41.8577 650.904 42.2021 650.655C42.5502 650.403 42.7242 650.101 42.7242 649.75C42.7242 649.466 42.6247 649.228 42.4259 649.036C42.227 648.841 41.9216 648.695 41.5097 648.599L40.146 648.28C39.3968 648.102 38.8463 647.827 38.4948 647.454C38.1468 647.078 37.9727 646.607 37.9727 646.042C37.9727 645.581 38.1024 645.172 38.3616 644.817C38.6244 644.462 38.9813 644.183 39.4323 643.981C39.8868 643.779 40.4017 643.677 40.977 643.677C41.7867 643.677 42.4223 643.855 42.884 644.21C43.3492 644.565 43.6794 645.034 43.8747 645.616ZM45.9162 651.966V643.784H47.1733V651.966H45.9162ZM46.5554 642.42C46.3104 642.42 46.0991 642.337 45.9215 642.17C45.7475 642.003 45.6605 641.802 45.6605 641.568C45.6605 641.334 45.7475 641.133 45.9215 640.966C46.0991 640.799 46.3104 640.716 46.5554 640.716C46.8004 640.716 47.0099 640.799 47.1839 640.966C47.3615 641.133 47.4503 641.334 47.4503 641.568C47.4503 641.802 47.3615 642.003 47.1839 642.17C47.0099 642.337 46.8004 642.42 46.5554 642.42ZM56.1661 643.784L53.1405 651.966H51.8621L48.8366 643.784H50.2002L52.4587 650.304H52.5439L54.8025 643.784H56.1661ZM59.984 652.157C59.4656 652.157 58.995 652.06 58.5724 651.864C58.1499 651.666 57.8143 651.38 57.5657 651.007C57.3171 650.63 57.1928 650.176 57.1928 649.643C57.1928 649.175 57.2852 648.795 57.4698 648.503C57.6545 648.209 57.9013 647.978 58.2102 647.811C58.5192 647.644 58.8601 647.52 59.233 647.438C59.6094 647.353 59.9876 647.285 60.3675 647.236C60.8647 647.172 61.2678 647.124 61.5767 647.092C61.8892 647.056 62.1165 646.998 62.2585 646.916C62.4041 646.834 62.4769 646.692 62.4769 646.49V646.447C62.4769 645.922 62.3331 645.513 62.0455 645.222C61.7614 644.931 61.3299 644.785 60.7511 644.785C60.1509 644.785 59.6804 644.917 59.3395 645.179C58.9986 645.442 58.7589 645.723 58.6204 646.021L57.4272 645.595C57.6403 645.098 57.9244 644.711 58.2795 644.434C58.6381 644.153 59.0288 643.958 59.4513 643.848C59.8775 643.734 60.2965 643.677 60.7085 643.677C60.9712 643.677 61.2731 643.709 61.614 643.773C61.9585 643.834 62.2905 643.96 62.6101 644.151C62.9332 644.343 63.2013 644.633 63.4144 645.02C63.6275 645.407 63.734 645.925 63.734 646.575V651.966H62.4769V650.858H62.413C62.3278 651.035 62.1857 651.225 61.9869 651.428C61.788 651.63 61.5234 651.802 61.1932 651.944C60.8629 652.086 60.4599 652.157 59.984 652.157ZM60.1758 651.028C60.6729 651.028 61.092 650.931 61.4329 650.735C61.7773 650.54 62.0366 650.288 62.2106 649.979C62.3881 649.67 62.4769 649.345 62.4769 649.004V647.853C62.4237 647.917 62.3065 647.976 62.1254 648.029C61.9478 648.079 61.7418 648.123 61.5075 648.162C61.2766 648.198 61.0511 648.23 60.831 648.258C60.6143 648.283 60.4386 648.304 60.3036 648.322C59.9769 648.365 59.6715 648.434 59.3874 648.53C59.1069 648.622 58.8796 648.763 58.7056 648.951C58.5352 649.135 58.4499 649.388 58.4499 649.707C58.4499 650.144 58.6115 650.474 58.9347 650.698C59.2614 650.918 59.6751 651.028 60.1758 651.028ZM71.824 645.616L70.6947 645.936C70.6237 645.748 70.5189 645.565 70.3804 645.387C70.2455 645.206 70.0608 645.057 69.8264 644.94C69.5921 644.823 69.292 644.764 68.9262 644.764C68.4255 644.764 68.0083 644.879 67.6744 645.11C67.3442 645.338 67.1791 645.627 67.1791 645.978C67.1791 646.291 67.2927 646.538 67.52 646.719C67.7472 646.9 68.1024 647.051 68.5853 647.172L69.7998 647.47C70.5313 647.648 71.0764 647.919 71.4351 648.285C71.7938 648.647 71.9731 649.114 71.9731 649.686C71.9731 650.155 71.8382 650.574 71.5683 650.943C71.3019 651.312 70.9291 651.603 70.4497 651.817C69.9703 652.03 69.4127 652.136 68.7771 652.136C67.9426 652.136 67.2519 651.955 66.705 651.593C66.1581 651.231 65.8119 650.701 65.6663 650.005L66.8595 649.707C66.9731 650.148 67.1879 650.478 67.504 650.698C67.8236 650.918 68.2409 651.028 68.7558 651.028C69.3417 651.028 69.8069 650.904 70.1514 650.655C70.4994 650.403 70.6734 650.101 70.6734 649.75C70.6734 649.466 70.574 649.228 70.3751 649.036C70.1762 648.841 69.8708 648.695 69.4589 648.599L68.0953 648.28C67.346 648.102 66.7955 647.827 66.444 647.454C66.096 647.078 65.922 646.607 65.922 646.042C65.922 645.581 66.0516 645.172 66.3108 644.817C66.5736 644.462 66.9305 644.183 67.3815 643.981C67.836 643.779 68.3509 643.677 68.9262 643.677C69.7359 643.677 70.3715 643.855 70.8332 644.21C71.2984 644.565 71.6286 645.034 71.824 645.616ZM78.0842 655.034V643.784H79.2987V645.084H79.4478C79.5401 644.942 79.668 644.76 79.8313 644.54C79.9982 644.317 80.2362 644.118 80.5451 643.944C80.8576 643.766 81.2802 643.677 81.8129 643.677C82.5018 643.677 83.109 643.85 83.6346 644.194C84.1602 644.538 84.5703 645.027 84.8651 645.659C85.1598 646.291 85.3072 647.037 85.3072 647.896C85.3072 648.763 85.1598 649.514 84.8651 650.149C84.5703 650.781 84.1619 651.271 83.6399 651.619C83.1179 651.964 82.516 652.136 81.8342 652.136C81.3086 652.136 80.8878 652.049 80.5717 651.875C80.2557 651.698 80.0124 651.497 79.842 651.273C79.6715 651.046 79.5401 650.858 79.4478 650.709H79.3413V655.034H78.0842ZM79.32 647.875C79.32 648.493 79.4105 649.038 79.5916 649.51C79.7727 649.979 80.0373 650.346 80.3853 650.613C80.7333 650.875 81.1594 651.007 81.6637 651.007C82.1893 651.007 82.6278 650.868 82.9794 650.591C83.3345 650.311 83.6009 649.934 83.7784 649.462C83.9595 648.986 84.0501 648.457 84.0501 647.875C84.0501 647.3 83.9613 646.781 83.7837 646.319C83.6097 645.854 83.3452 645.487 82.9901 645.217C82.6385 644.943 82.1964 644.807 81.6637 644.807C81.1523 644.807 80.7227 644.936 80.3746 645.195C80.0266 645.451 79.7638 645.81 79.5863 646.271C79.4087 646.73 79.32 647.264 79.32 647.875ZM89.6325 652.157C89.114 652.157 88.6435 652.06 88.2209 651.864C87.7983 651.666 87.4627 651.38 87.2141 651.007C86.9656 650.63 86.8413 650.176 86.8413 649.643C86.8413 649.175 86.9336 648.795 87.1183 648.503C87.3029 648.209 87.5497 647.978 87.8587 647.811C88.1676 647.644 88.5085 647.52 88.8814 647.438C89.2578 647.353 89.636 647.285 90.016 647.236C90.5131 647.172 90.9162 647.124 91.2251 647.092C91.5376 647.056 91.7649 646.998 91.907 646.916C92.0526 646.834 92.1254 646.692 92.1254 646.49V646.447C92.1254 645.922 91.9815 645.513 91.6939 645.222C91.4098 644.931 90.9783 644.785 90.3995 644.785C89.7994 644.785 89.3288 644.917 88.9879 645.179C88.647 645.442 88.4073 645.723 88.2688 646.021L87.0756 645.595C87.2887 645.098 87.5728 644.711 87.9279 644.434C88.2866 644.153 88.6772 643.958 89.0998 643.848C89.5259 643.734 89.945 643.677 90.3569 643.677C90.6197 643.677 90.9215 643.709 91.2624 643.773C91.6069 643.834 91.9389 643.96 92.2585 644.151C92.5817 644.343 92.8498 644.633 93.0629 645.02C93.2759 645.407 93.3825 645.925 93.3825 646.575V651.966H92.1254V650.858H92.0614C91.9762 651.035 91.8342 651.225 91.6353 651.428C91.4364 651.63 91.1719 651.802 90.8416 651.944C90.5114 652.086 90.1083 652.157 89.6325 652.157ZM89.8242 651.028C90.3214 651.028 90.7404 650.931 91.0813 650.735C91.4258 650.54 91.685 650.288 91.859 649.979C92.0366 649.67 92.1254 649.345 92.1254 649.004V647.853C92.0721 647.917 91.9549 647.976 91.7738 648.029C91.5962 648.079 91.3903 648.123 91.1559 648.162C90.9251 648.198 90.6996 648.23 90.4794 648.258C90.2628 648.283 90.087 648.304 89.9521 648.322C89.6254 648.365 89.32 648.434 89.0359 648.53C88.7553 648.622 88.5281 648.763 88.354 648.951C88.1836 649.135 88.0984 649.388 88.0984 649.707C88.0984 650.144 88.2599 650.474 88.5831 650.698C88.9098 650.918 89.3235 651.028 89.8242 651.028ZM95.6769 651.966V643.784H96.8914V645.02H96.9767C97.1258 644.615 97.3957 644.286 97.7863 644.034C98.1769 643.782 98.6173 643.656 99.1073 643.656C99.1997 643.656 99.3151 643.658 99.4536 643.661C99.5921 643.665 99.6968 643.67 99.7678 643.677V644.956C99.7252 644.945 99.6276 644.929 99.4749 644.908C99.3257 644.883 99.1677 644.871 99.0008 644.871C98.6031 644.871 98.248 644.954 97.9355 645.121C97.6265 645.284 97.3815 645.512 97.2004 645.803C97.0228 646.09 96.934 646.419 96.934 646.788V651.966H95.6769ZM103.666 652.157C103.147 652.157 102.677 652.06 102.254 651.864C101.831 651.666 101.496 651.38 101.247 651.007C100.999 650.63 100.874 650.176 100.874 649.643C100.874 649.175 100.967 648.795 101.151 648.503C101.336 648.209 101.583 647.978 101.892 647.811C102.201 647.644 102.542 647.52 102.915 647.438C103.291 647.353 103.669 647.285 104.049 647.236C104.546 647.172 104.949 647.124 105.258 647.092C105.571 647.056 105.798 646.998 105.94 646.916C106.086 646.834 106.159 646.692 106.159 646.49V646.447C106.159 645.922 106.015 645.513 105.727 645.222C105.443 644.931 105.012 644.785 104.433 644.785C103.833 644.785 103.362 644.917 103.021 645.179C102.68 645.442 102.441 645.723 102.302 646.021L101.109 645.595C101.322 645.098 101.606 644.711 101.961 644.434C102.32 644.153 102.71 643.958 103.133 643.848C103.559 643.734 103.978 643.677 104.39 643.677C104.653 643.677 104.955 643.709 105.296 643.773C105.64 643.834 105.972 643.96 106.292 644.151C106.615 644.343 106.883 644.633 107.096 645.02C107.309 645.407 107.416 645.925 107.416 646.575V651.966H106.159V650.858H106.095C106.009 651.035 105.867 651.225 105.669 651.428C105.47 651.63 105.205 651.802 104.875 651.944C104.545 652.086 104.142 652.157 103.666 652.157ZM103.857 651.028C104.355 651.028 104.774 650.931 105.115 650.735C105.459 650.54 105.718 650.288 105.892 649.979C106.07 649.67 106.159 649.345 106.159 649.004V647.853C106.105 647.917 105.988 647.976 105.807 648.029C105.629 648.079 105.423 648.123 105.189 648.162C104.958 648.198 104.733 648.23 104.513 648.258C104.296 648.283 104.12 648.304 103.985 648.322C103.659 648.365 103.353 648.434 103.069 648.53C102.789 648.622 102.561 648.763 102.387 648.951C102.217 649.135 102.132 649.388 102.132 649.707C102.132 650.144 102.293 650.474 102.616 650.698C102.943 650.918 103.357 651.028 103.857 651.028ZM6.94602 663.616L5.81676 663.936C5.74574 663.748 5.64098 663.565 5.50249 663.387C5.36754 663.206 5.18288 663.057 4.94851 662.94C4.71413 662.823 4.41406 662.764 4.0483 662.764C3.54759 662.764 3.13033 662.879 2.79652 663.11C2.46626 663.338 2.30114 663.627 2.30114 663.978C2.30114 664.291 2.41477 664.538 2.64205 664.719C2.86932 664.9 3.22443 665.051 3.70739 665.172L4.92188 665.47C5.65341 665.648 6.19851 665.919 6.55717 666.285C6.91584 666.647 7.09517 667.114 7.09517 667.686C7.09517 668.155 6.96023 668.574 6.69034 668.943C6.42401 669.312 6.05114 669.603 5.57173 669.817C5.09233 670.03 4.5348 670.136 3.89915 670.136C3.06463 670.136 2.37393 669.955 1.82706 669.593C1.28018 669.231 0.933949 668.701 0.788352 668.005L1.98153 667.707C2.09517 668.148 2.31001 668.478 2.62607 668.698C2.94567 668.918 3.36293 669.028 3.87784 669.028C4.46378 669.028 4.92898 668.904 5.27344 668.655C5.62145 668.403 5.79545 668.101 5.79545 667.75C5.79545 667.466 5.69602 667.228 5.49716 667.036C5.2983 666.841 4.9929 666.695 4.58097 666.599L3.21733 666.28C2.46804 666.102 1.91761 665.827 1.56605 665.454C1.21804 665.078 1.04403 664.607 1.04403 664.042C1.04403 663.581 1.17365 663.172 1.43288 662.817C1.69567 662.462 2.05256 662.183 2.50355 661.981C2.9581 661.779 3.47301 661.677 4.0483 661.677C4.85795 661.677 5.49361 661.855 5.95526 662.21C6.42045 662.565 6.75071 663.034 6.94602 663.616ZM12.4179 670.136C11.6295 670.136 10.9495 669.962 10.3778 669.614C9.80957 669.263 9.371 668.773 9.06206 668.144C8.75666 667.512 8.60396 666.777 8.60396 665.939C8.60396 665.101 8.75666 664.362 9.06206 663.723C9.371 663.08 9.80069 662.579 10.3511 662.221C10.9051 661.858 11.5514 661.677 12.29 661.677C12.7162 661.677 13.137 661.748 13.5525 661.89C13.968 662.032 14.3461 662.263 14.6871 662.583C15.028 662.899 15.2996 663.318 15.502 663.84C15.7045 664.362 15.8057 665.005 15.8057 665.768V666.301H9.49885V665.214H14.5273C14.5273 664.753 14.4349 664.341 14.2503 663.978C14.0692 663.616 13.8099 663.33 13.4726 663.121C13.1388 662.911 12.7446 662.807 12.29 662.807C11.7893 662.807 11.3561 662.931 10.9903 663.179C10.6281 663.425 10.3493 663.744 10.154 664.138C9.95872 664.532 9.86106 664.955 9.86106 665.406V666.13C9.86106 666.748 9.9676 667.272 10.1807 667.702C10.3973 668.128 10.6974 668.453 11.0809 668.677C11.4644 668.897 11.9101 669.007 12.4179 669.007C12.7481 669.007 13.0464 668.961 13.3128 668.868C13.5827 668.773 13.8153 668.63 14.0106 668.442C14.2059 668.25 14.3568 668.013 14.4633 667.728L15.6778 668.069C15.55 668.481 15.3351 668.844 15.0333 669.156C14.7314 669.465 14.3586 669.706 13.9147 669.88C13.4708 670.051 12.9719 670.136 12.4179 670.136ZM21.0205 673.204C20.4133 673.204 19.8912 673.126 19.4545 672.97C19.0177 672.817 18.6537 672.615 18.3625 672.363C18.0748 672.114 17.8458 671.848 17.6753 671.564L18.6768 670.861C18.7904 671.01 18.9342 671.18 19.1082 671.372C19.2822 671.567 19.5202 671.736 19.822 671.878C20.1274 672.024 20.5269 672.096 21.0205 672.096C21.681 672.096 22.2261 671.937 22.6558 671.617C23.0855 671.297 23.3003 670.797 23.3003 670.115V668.453H23.1938C23.1015 668.602 22.9701 668.787 22.7996 669.007C22.6327 669.224 22.3912 669.417 22.0752 669.588C21.7627 669.754 21.3401 669.838 20.8074 669.838C20.1469 669.838 19.5539 669.682 19.0283 669.369C18.5063 669.057 18.0926 668.602 17.7872 668.005C17.4854 667.409 17.3344 666.684 17.3344 665.832C17.3344 664.994 17.4818 664.264 17.7765 663.643C18.0713 663.018 18.4814 662.535 19.007 662.194C19.5326 661.85 20.1398 661.677 20.8287 661.677C21.3614 661.677 21.784 661.766 22.0965 661.944C22.4126 662.118 22.654 662.317 22.8209 662.54C22.9914 662.76 23.1228 662.942 23.2151 663.084H23.343V661.784H24.5574V670.2C24.5574 670.903 24.3976 671.475 24.078 671.915C23.762 672.359 23.3358 672.684 22.7996 672.89C22.267 673.1 21.6739 673.204 21.0205 673.204ZM20.9779 668.709C21.4822 668.709 21.9083 668.593 22.2563 668.362C22.6043 668.132 22.8689 667.8 23.05 667.366C23.2311 666.933 23.3216 666.415 23.3216 665.811C23.3216 665.221 23.2329 664.701 23.0553 664.25C22.8778 663.799 22.615 663.446 22.267 663.19C21.9189 662.934 21.4893 662.807 20.9779 662.807C20.4452 662.807 20.0013 662.942 19.6462 663.211C19.2947 663.481 19.0301 663.844 18.8525 664.298C18.6785 664.753 18.5915 665.257 18.5915 665.811C18.5915 666.379 18.6803 666.882 18.8579 667.318C19.039 667.752 19.3053 668.092 19.6569 668.341C20.012 668.586 20.4523 668.709 20.9779 668.709ZM32.0148 666.621V661.784H33.2719V669.966H32.0148V668.581H31.9296C31.7378 668.996 31.4395 669.35 31.0347 669.641C30.6299 669.928 30.1185 670.072 29.5006 670.072C28.9893 670.072 28.5347 669.96 28.137 669.737C27.7393 669.509 27.4268 669.168 27.1995 668.714C26.9722 668.256 26.8586 667.679 26.8586 666.983V661.784H28.1157V666.898C28.1157 667.494 28.2826 667.97 28.6164 668.325C28.9537 668.68 29.3834 668.858 29.9055 668.858C30.218 668.858 30.5358 668.778 30.8589 668.618C31.1856 668.458 31.4591 668.213 31.6792 667.883C31.903 667.553 32.0148 667.132 32.0148 666.621ZM35.5744 669.966V661.784H36.8315V669.966H35.5744ZM36.2136 660.42C35.9686 660.42 35.7573 660.337 35.5797 660.17C35.4057 660.003 35.3187 659.802 35.3187 659.568C35.3187 659.334 35.4057 659.133 35.5797 658.966C35.7573 658.799 35.9686 658.716 36.2136 658.716C36.4586 658.716 36.6681 658.799 36.8422 658.966C37.0197 659.133 37.1085 659.334 37.1085 659.568C37.1085 659.802 37.0197 660.003 36.8422 660.17C36.6681 660.337 36.4586 660.42 36.2136 660.42ZM42.2235 670.136C41.5416 670.136 40.9397 669.964 40.4177 669.619C39.8957 669.271 39.4873 668.781 39.1926 668.149C38.8978 667.514 38.7504 666.763 38.7504 665.896C38.7504 665.037 38.8978 664.291 39.1926 663.659C39.4873 663.027 39.8975 662.538 40.423 662.194C40.9486 661.85 41.5558 661.677 42.2448 661.677C42.7774 661.677 43.1982 661.766 43.5072 661.944C43.8197 662.118 44.0576 662.317 44.221 662.54C44.3879 662.76 44.5175 662.942 44.6098 663.084H44.7164V659.057H45.9735V669.966H44.759V668.709H44.6098C44.5175 668.858 44.3861 669.046 44.2156 669.273C44.0452 669.497 43.8019 669.698 43.4859 669.875C43.1698 670.049 42.749 670.136 42.2235 670.136ZM42.3939 669.007C42.8982 669.007 43.3243 668.875 43.6723 668.613C44.0203 668.346 44.2849 667.979 44.466 667.51C44.6471 667.038 44.7377 666.493 44.7377 665.875C44.7377 665.264 44.6489 664.73 44.4713 664.271C44.2938 663.81 44.031 663.451 43.683 663.195C43.335 662.936 42.9053 662.807 42.3939 662.807C41.8612 662.807 41.4173 662.943 41.0622 663.217C40.7107 663.487 40.4461 663.854 40.2686 664.319C40.0945 664.781 40.0075 665.3 40.0075 665.875C40.0075 666.457 40.0963 666.986 40.2739 667.462C40.455 667.934 40.7213 668.311 41.0729 668.591C41.428 668.868 41.8683 669.007 42.3939 669.007ZM51.7742 670.136C51.0356 670.136 50.3875 669.96 49.83 669.609C49.276 669.257 48.8428 668.765 48.5303 668.133C48.2213 667.501 48.0669 666.763 48.0669 665.917C48.0669 665.065 48.2213 664.321 48.5303 663.686C48.8428 663.05 49.276 662.556 49.83 662.205C50.3875 661.853 51.0356 661.677 51.7742 661.677C52.5129 661.677 53.1592 661.853 53.7132 662.205C54.2707 662.556 54.7039 663.05 55.0129 663.686C55.3254 664.321 55.4816 665.065 55.4816 665.917C55.4816 666.763 55.3254 667.501 55.0129 668.133C54.7039 668.765 54.2707 669.257 53.7132 669.609C53.1592 669.96 52.5129 670.136 51.7742 670.136ZM51.7742 669.007C52.3353 669.007 52.797 668.863 53.1592 668.575C53.5214 668.288 53.7895 667.91 53.9635 667.441C54.1375 666.972 54.2245 666.464 54.2245 665.917C54.2245 665.371 54.1375 664.861 53.9635 664.389C53.7895 663.916 53.5214 663.535 53.1592 663.243C52.797 662.952 52.3353 662.807 51.7742 662.807C51.2132 662.807 50.7515 662.952 50.3893 663.243C50.0271 663.535 49.759 663.916 49.585 664.389C49.411 664.861 49.324 665.371 49.324 665.917C49.324 666.464 49.411 666.972 49.585 667.441C49.759 667.91 50.0271 668.288 50.3893 668.575C50.7515 668.863 51.2132 669.007 51.7742 669.007ZM57.4006 669.966V661.784H58.6151V663.02H58.7003C58.8494 662.615 59.1193 662.286 59.5099 662.034C59.9006 661.782 60.3409 661.656 60.831 661.656C60.9233 661.656 61.0387 661.658 61.1772 661.661C61.3157 661.665 61.4205 661.67 61.4915 661.677V662.956C61.4489 662.945 61.3512 662.929 61.1985 662.908C61.0494 662.883 60.8913 662.871 60.7244 662.871C60.3267 662.871 59.9716 662.954 59.6591 663.121C59.3501 663.284 59.1051 663.512 58.924 663.803C58.7464 664.09 58.6577 664.419 58.6577 664.788V669.966H57.4006ZM66.163 670.136C65.3746 670.136 64.6946 669.962 64.1229 669.614C63.5547 669.263 63.1161 668.773 62.8072 668.144C62.5018 667.512 62.3491 666.777 62.3491 665.939C62.3491 665.101 62.5018 664.362 62.8072 663.723C63.1161 663.08 63.5458 662.579 64.0962 662.221C64.6502 661.858 65.2965 661.677 66.0352 661.677C66.4613 661.677 66.8821 661.748 67.2976 661.89C67.7131 662.032 68.0913 662.263 68.4322 662.583C68.7731 662.899 69.0447 663.318 69.2472 663.84C69.4496 664.362 69.5508 665.005 69.5508 665.768V666.301H63.244V665.214H68.2724C68.2724 664.753 68.18 664.341 67.9954 663.978C67.8143 663.616 67.555 663.33 67.2177 663.121C66.8839 662.911 66.4897 662.807 66.0352 662.807C65.5344 662.807 65.1012 662.931 64.7354 663.179C64.3732 663.425 64.0945 663.744 63.8991 664.138C63.7038 664.532 63.6062 664.955 63.6062 665.406V666.13C63.6062 666.748 63.7127 667.272 63.9258 667.702C64.1424 668.128 64.4425 668.453 64.826 668.677C65.2095 668.897 65.6552 669.007 66.163 669.007C66.4933 669.007 66.7915 668.961 67.0579 668.868C67.3278 668.773 67.5604 668.63 67.7557 668.442C67.951 668.25 68.1019 668.013 68.2085 667.728L69.4229 668.069C69.2951 668.481 69.0803 668.844 68.7784 669.156C68.4766 669.465 68.1037 669.706 67.6598 669.88C67.2159 670.051 66.717 670.136 66.163 670.136ZM77.2585 663.616L76.1293 663.936C76.0582 663.748 75.9535 663.565 75.815 663.387C75.68 663.206 75.4954 663.057 75.261 662.94C75.0266 662.823 74.7266 662.764 74.3608 662.764C73.8601 662.764 73.4428 662.879 73.109 663.11C72.7788 663.338 72.6136 663.627 72.6136 663.978C72.6136 664.291 72.7273 664.538 72.9545 664.719C73.1818 664.9 73.5369 665.051 74.0199 665.172L75.2344 665.47C75.9659 665.648 76.511 665.919 76.8697 666.285C77.2283 666.647 77.4077 667.114 77.4077 667.686C77.4077 668.155 77.2727 668.574 77.0028 668.943C76.7365 669.312 76.3636 669.603 75.8842 669.817C75.4048 670.03 74.8473 670.136 74.2116 670.136C73.3771 670.136 72.6864 669.955 72.1396 669.593C71.5927 669.231 71.2464 668.701 71.1009 668.005L72.294 667.707C72.4077 668.148 72.6225 668.478 72.9386 668.698C73.2582 668.918 73.6754 669.028 74.1903 669.028C74.7763 669.028 75.2415 668.904 75.5859 668.655C75.9339 668.403 76.108 668.101 76.108 667.75C76.108 667.466 76.0085 667.228 75.8097 667.036C75.6108 666.841 75.3054 666.695 74.8935 666.599L73.5298 666.28C72.7805 666.102 72.2301 665.827 71.8786 665.454C71.5305 665.078 71.3565 664.607 71.3565 664.042C71.3565 663.581 71.4862 663.172 71.7454 662.817C72.0082 662.462 72.3651 662.183 72.8161 661.981C73.2706 661.779 73.7855 661.677 74.3608 661.677C75.1705 661.677 75.8061 661.855 76.2678 662.21C76.733 662.565 77.0632 663.034 77.2585 663.616Z" fill="#DDD5D5" fill-opacity="0.69"/>
</svg>
