<svg width="653" height="673" viewBox="0 0 653 673" fill="none" xmlns="http://www.w3.org/2000/svg">
<path d="M118.843 43.5291C269.919 237.175 461.539 166.587 538.464 107.088L230.252 471.696L549.789 595.008L162.917 340.642M162.917 340.642L86.7059 290.534L473.884 28.3054L560.807 484.256L137.207 651.716L448.48 381.115L591.414 28.3054L162.917 340.642Z" stroke="#DDD5D5" stroke-opacity="0.35"/>
<ellipse cx="118.1" cy="43.7094" rx="2.14249" ry="2.66415" fill="#FF7A00"/>
<ellipse cx="472.659" cy="27.9248" rx="2.14249" ry="2.66415" fill="#078A83"/>
<ellipse cx="84.5634" cy="289.773" rx="2.14249" ry="2.66415" fill="#078A83"/>
<ellipse cx="135.983" cy="651.336" rx="2.14249" ry="2.66415" fill="#FF7A00"/>
<ellipse cx="550.401" cy="595.008" rx="2.14249" ry="2.66415" fill="#078A83"/>
<ellipse cx="560.195" cy="483.875" rx="2.14249" ry="2.66415" fill="#FF7A00"/>
<ellipse cx="230.252" cy="471.696" rx="2.14249" ry="2.66415" fill="#078A83"/>
<ellipse cx="536.934" cy="110.133" rx="2.14249" ry="2.66415" fill="#FF7A00"/>
<ellipse cx="591.414" cy="30.2084" rx="2.14249" ry="2.66415" fill="#FF7A00"/>
<path d="M77.0994 15.5H75.7784C75.7003 15.12 75.5636 14.7862 75.3683 14.4986C75.1765 14.2109 74.9421 13.9695 74.6651 13.7741C74.3917 13.5753 74.0881 13.4261 73.7543 13.3267C73.4205 13.2273 73.0724 13.1776 72.7102 13.1776C72.0497 13.1776 71.4513 13.3445 70.9151 13.6783C70.3825 14.0121 69.9581 14.5039 69.642 15.1538C69.3295 15.8036 69.1733 16.6009 69.1733 17.5455C69.1733 18.4901 69.3295 19.2873 69.642 19.9371C69.9581 20.587 70.3825 21.0788 70.9151 21.4126C71.4513 21.7464 72.0497 21.9134 72.7102 21.9134C73.0724 21.9134 73.4205 21.8636 73.7543 21.7642C74.0881 21.6648 74.3917 21.5174 74.6651 21.3221C74.9421 21.1232 75.1765 20.88 75.3683 20.5923C75.5636 20.3011 75.7003 19.9673 75.7784 19.5909H77.0994C77 20.1484 76.8189 20.6474 76.5561 21.0877C76.2933 21.5281 75.9666 21.9027 75.576 22.2116C75.1854 22.517 74.7468 22.7496 74.2603 22.9094C73.7773 23.0692 73.2607 23.1491 72.7102 23.1491C71.7798 23.1491 70.9524 22.9219 70.228 22.4673C69.5036 22.0128 68.9336 21.3665 68.5181 20.5284C68.1026 19.6903 67.8949 18.696 67.8949 17.5455C67.8949 16.3949 68.1026 15.4006 68.5181 14.5625C68.9336 13.7244 69.5036 13.0781 70.228 12.6236C70.9524 12.169 71.7798 11.9418 72.7102 11.9418C73.2607 11.9418 73.7773 12.0217 74.2603 12.1815C74.7468 12.3413 75.1854 12.5756 75.576 12.8846C75.9666 13.19 76.2933 13.5629 76.5561 14.0032C76.8189 14.44 77 14.9389 77.0994 15.5ZM82.6006 23H79.2341V12.0909H82.7497C83.808 12.0909 84.7135 12.3093 85.4664 12.7461C86.2192 13.1793 86.7963 13.8026 87.1975 14.6158C87.5988 15.4254 87.7994 16.3949 87.7994 17.5241C87.7994 18.6605 87.597 19.6388 87.1922 20.4592C86.7874 21.2759 86.1979 21.9045 85.4237 22.3448C84.6496 22.7816 83.7085 23 82.6006 23ZM80.5551 21.8281H82.5154C83.4173 21.8281 84.1649 21.6541 84.7579 21.3061C85.3509 20.9581 85.7931 20.4627 86.0843 19.82C86.3754 19.1772 86.521 18.4119 86.521 17.5241C86.521 16.6435 86.3772 15.8853 86.0896 15.2496C85.8019 14.6104 85.3722 14.1204 84.8005 13.7795C84.2288 13.435 83.5168 13.2628 82.6645 13.2628H80.5551V21.8281ZM91.3364 12.0909V23H90.0154V12.0909H91.3364ZM71.9645 30.0909V41H70.6435V31.4759H70.5795L67.9162 33.2443V31.902L70.6435 30.0909H71.9645ZM78.6602 41.1491C77.8576 41.1491 77.174 40.9308 76.6094 40.494C76.0447 40.0536 75.6133 39.4162 75.315 38.5817C75.0167 37.7436 74.8675 36.7315 74.8675 35.5455C74.8675 34.3665 75.0167 33.3597 75.315 32.5252C75.6168 31.6871 76.0501 31.0479 76.6147 30.6076C77.1829 30.1637 77.8647 29.9418 78.6602 29.9418C79.4556 29.9418 80.1357 30.1637 80.7003 30.6076C81.2685 31.0479 81.7017 31.6871 82 32.5252C82.3018 33.3597 82.4528 34.3665 82.4528 35.5455C82.4528 36.7315 82.3036 37.7436 82.0053 38.5817C81.707 39.4162 81.2756 40.0536 80.7109 40.494C80.1463 40.9308 79.4627 41.1491 78.6602 41.1491ZM78.6602 39.9773C79.4556 39.9773 80.0735 39.5937 80.5138 38.8267C80.9542 38.0597 81.1744 36.9659 81.1744 35.5455C81.1744 34.6009 81.0732 33.7965 80.8707 33.1325C80.6719 32.4684 80.3842 31.9624 80.0078 31.6143C79.6349 31.2663 79.1857 31.0923 78.6602 31.0923C77.8718 31.0923 77.2557 31.4812 76.8118 32.2589C76.3679 33.033 76.146 34.1286 76.146 35.5455C76.146 36.4901 76.2454 37.2926 76.4442 37.9531C76.6431 38.6136 76.929 39.1161 77.3018 39.4606C77.6783 39.805 78.131 39.9773 78.6602 39.9773ZM88.163 41.1491C87.4599 41.1491 86.8331 41.0284 86.2827 40.7869C85.7358 40.5455 85.3008 40.2099 84.9776 39.7802C84.658 39.3469 84.484 38.8445 84.4556 38.2727H85.7979C85.8263 38.6243 85.9471 38.9279 86.1602 39.1836C86.3732 39.4357 86.652 39.631 86.9964 39.7695C87.3409 39.908 87.7227 39.9773 88.1417 39.9773C88.6104 39.9773 89.0259 39.8956 89.3881 39.7322C89.7504 39.5689 90.0344 39.3416 90.2404 39.0504C90.4464 38.7592 90.5494 38.4219 90.5494 38.0384C90.5494 37.6371 90.4499 37.2837 90.2511 36.9783C90.0522 36.6694 89.761 36.4279 89.3775 36.2539C88.994 36.0799 88.5252 35.9929 87.9712 35.9929H87.0977V34.821H87.9712C88.4045 34.821 88.7844 34.7429 89.1112 34.5866C89.4414 34.4304 89.6989 34.2102 89.8835 33.9261C90.0717 33.642 90.1658 33.3082 90.1658 32.9247C90.1658 32.5554 90.0842 32.234 89.9208 31.9606C89.7575 31.6871 89.5266 31.4741 89.2283 31.3214C88.9336 31.1687 88.5856 31.0923 88.1843 31.0923C87.8079 31.0923 87.4528 31.1616 87.119 31.3001C86.7887 31.435 86.5188 31.6321 86.3093 31.8913C86.0998 32.147 85.9862 32.456 85.9684 32.8182H84.69C84.7113 32.2464 84.8835 31.7457 85.2067 31.3161C85.5298 30.8828 85.9524 30.5455 86.4744 30.304C87 30.0625 87.5771 29.9418 88.2056 29.9418C88.8803 29.9418 89.4592 30.0785 89.9421 30.3519C90.4251 30.6218 90.7962 30.9787 91.0554 31.4226C91.3146 31.8665 91.4442 32.3459 91.4442 32.8608C91.4442 33.4751 91.2827 33.9989 90.9595 34.4322C90.6399 34.8654 90.2049 35.1655 89.6545 35.3324V35.4176C90.3434 35.5312 90.8814 35.8242 91.2685 36.2965C91.6555 36.7653 91.8491 37.3459 91.8491 38.0384C91.8491 38.6314 91.6875 39.1641 91.3643 39.6364C91.0447 40.1051 90.608 40.4744 90.054 40.7443C89.5 41.0142 88.8697 41.1491 88.163 41.1491ZM99.5888 38.9545V38.3793C99.5888 37.9815 99.6705 37.6175 99.8338 37.2873C100.001 36.9535 100.242 36.6871 100.558 36.4883C100.878 36.2859 101.265 36.1847 101.719 36.1847C102.181 36.1847 102.568 36.2859 102.881 36.4883C103.193 36.6871 103.429 36.9535 103.589 37.2873C103.749 37.6175 103.829 37.9815 103.829 38.3793V38.9545C103.829 39.3523 103.747 39.718 103.584 40.0518C103.424 40.3821 103.186 40.6484 102.87 40.8509C102.558 41.0497 102.174 41.1491 101.719 41.1491C101.258 41.1491 100.869 41.0497 100.553 40.8509C100.237 40.6484 99.9972 40.3821 99.8338 40.0518C99.6705 39.718 99.5888 39.3523 99.5888 38.9545ZM100.675 38.3793V38.9545C100.675 39.2848 100.754 39.5813 100.91 39.8441C101.066 40.1033 101.336 40.233 101.719 40.233C102.092 40.233 102.355 40.1033 102.508 39.8441C102.664 39.5813 102.742 39.2848 102.742 38.9545V38.3793C102.742 38.049 102.668 37.7543 102.518 37.495C102.369 37.2322 102.103 37.1009 101.719 37.1009C101.347 37.1009 101.078 37.2322 100.915 37.495C100.755 37.7543 100.675 38.049 100.675 38.3793ZM94.1555 32.7116V32.1364C94.1555 31.7386 94.2372 31.3746 94.4006 31.0444C94.5675 30.7106 94.8089 30.4442 95.125 30.2454C95.4446 30.043 95.8317 29.9418 96.2862 29.9418C96.7479 29.9418 97.1349 30.043 97.4474 30.2454C97.7599 30.4442 97.9961 30.7106 98.1559 31.0444C98.3157 31.3746 98.3956 31.7386 98.3956 32.1364V32.7116C98.3956 33.1094 98.3139 33.4751 98.1506 33.8089C97.9908 34.1392 97.7528 34.4055 97.4368 34.608C97.1243 34.8068 96.7408 34.9062 96.2862 34.9062C95.8246 34.9062 95.4357 34.8068 95.1197 34.608C94.8036 34.4055 94.5639 34.1392 94.4006 33.8089C94.2372 33.4751 94.1555 33.1094 94.1555 32.7116ZM95.2422 32.1364V32.7116C95.2422 33.0419 95.3203 33.3384 95.4766 33.6012C95.6328 33.8604 95.9027 33.9901 96.2862 33.9901C96.6591 33.9901 96.9219 33.8604 97.0746 33.6012C97.2308 33.3384 97.3089 33.0419 97.3089 32.7116V32.1364C97.3089 31.8061 97.2344 31.5114 97.0852 31.2521C96.9361 30.9893 96.6697 30.858 96.2862 30.858C95.9134 30.858 95.6452 30.9893 95.4819 31.2521C95.3221 31.5114 95.2422 31.8061 95.2422 32.1364ZM94.5604 41L102.06 30.0909H103.275L95.7749 41H94.5604Z" fill="#DDD5D5" fill-opacity="0.7"/>
<path d="M10.0994 266.5H8.77841C8.70028 266.12 8.56357 265.786 8.36825 265.499C8.17649 265.211 7.94212 264.969 7.66513 264.774C7.39169 264.575 7.08807 264.426 6.75426 264.327C6.42045 264.227 6.07244 264.178 5.71023 264.178C5.04972 264.178 4.45135 264.344 3.91513 264.678C3.38246 265.012 2.9581 265.504 2.64205 266.154C2.32955 266.804 2.1733 267.601 2.1733 268.545C2.1733 269.49 2.32955 270.287 2.64205 270.937C2.9581 271.587 3.38246 272.079 3.91513 272.413C4.45135 272.746 5.04972 272.913 5.71023 272.913C6.07244 272.913 6.42045 272.864 6.75426 272.764C7.08807 272.665 7.39169 272.517 7.66513 272.322C7.94212 272.123 8.17649 271.88 8.36825 271.592C8.56357 271.301 8.70028 270.967 8.77841 270.591H10.0994C10 271.148 9.81889 271.647 9.55611 272.088C9.29332 272.528 8.96662 272.903 8.57599 273.212C8.18537 273.517 7.7468 273.75 7.2603 273.909C6.77734 274.069 6.26065 274.149 5.71023 274.149C4.77983 274.149 3.95241 273.922 3.22798 273.467C2.50355 273.013 1.93359 272.366 1.51811 271.528C1.10263 270.69 0.894886 269.696 0.894886 268.545C0.894886 267.395 1.10263 266.401 1.51811 265.562C1.93359 264.724 2.50355 264.078 3.22798 263.624C3.95241 263.169 4.77983 262.942 5.71023 262.942C6.26065 262.942 6.77734 263.022 7.2603 263.181C7.7468 263.341 8.18537 263.576 8.57599 263.885C8.96662 264.19 9.29332 264.563 9.55611 265.003C9.81889 265.44 10 265.939 10.0994 266.5ZM17.2199 270.655V265.818H18.477V274H17.2199V272.615H17.1347C16.9429 273.031 16.6446 273.384 16.2398 273.675C15.835 273.963 15.3236 274.107 14.7057 274.107C14.1943 274.107 13.7398 273.995 13.3421 273.771C12.9443 273.544 12.6318 273.203 12.4046 272.748C12.1773 272.29 12.0637 271.713 12.0637 271.017V265.818H13.3208V270.932C13.3208 271.528 13.4877 272.004 13.8215 272.359C14.1588 272.714 14.5885 272.892 15.1105 272.892C15.423 272.892 15.7409 272.812 16.064 272.652C16.3907 272.493 16.6642 272.248 16.8843 271.917C17.108 271.587 17.2199 271.166 17.2199 270.655ZM20.7795 277.068V265.818H21.994V267.118H22.1431C22.2354 266.976 22.3633 266.795 22.5266 266.575C22.6935 266.351 22.9315 266.152 23.2404 265.978C23.5529 265.8 23.9755 265.712 24.5082 265.712C25.1971 265.712 25.8043 265.884 26.3299 266.228C26.8555 266.573 27.2656 267.061 27.5604 267.693C27.8551 268.325 28.0025 269.071 28.0025 269.93C28.0025 270.797 27.8551 271.548 27.5604 272.184C27.2656 272.816 26.8572 273.306 26.3352 273.654C25.8132 273.998 25.2113 274.17 24.5295 274.17C24.0039 274.17 23.5831 274.083 23.267 273.909C22.951 273.732 22.7077 273.531 22.5373 273.308C22.3668 273.08 22.2354 272.892 22.1431 272.743H22.0366V277.068H20.7795ZM22.0153 269.909C22.0153 270.527 22.1058 271.072 22.2869 271.544C22.468 272.013 22.7326 272.381 23.0806 272.647C23.4286 272.91 23.8548 273.041 24.359 273.041C24.8846 273.041 25.3232 272.903 25.6747 272.626C26.0298 272.345 26.2962 271.969 26.4737 271.496C26.6548 271.021 26.7454 270.491 26.7454 269.909C26.7454 269.334 26.6566 268.815 26.479 268.354C26.305 267.888 26.0405 267.521 25.6854 267.251C25.3338 266.978 24.8917 266.841 24.359 266.841C23.8477 266.841 23.418 266.971 23.07 267.23C22.7219 267.485 22.4592 267.844 22.2816 268.306C22.104 268.764 22.0153 269.298 22.0153 269.909ZM33.244 274.17C32.5053 274.17 31.8572 273.995 31.2997 273.643C30.7457 273.292 30.3125 272.8 30 272.168C29.6911 271.536 29.5366 270.797 29.5366 269.952C29.5366 269.099 29.6911 268.355 30 267.72C30.3125 267.084 30.7457 266.591 31.2997 266.239C31.8572 265.887 32.5053 265.712 33.244 265.712C33.9826 265.712 34.6289 265.887 35.1829 266.239C35.7404 266.591 36.1737 267.084 36.4826 267.72C36.7951 268.355 36.9513 269.099 36.9513 269.952C36.9513 270.797 36.7951 271.536 36.4826 272.168C36.1737 272.8 35.7404 273.292 35.1829 273.643C34.6289 273.995 33.9826 274.17 33.244 274.17ZM33.244 273.041C33.805 273.041 34.2667 272.897 34.6289 272.61C34.9911 272.322 35.2592 271.944 35.4332 271.475C35.6072 271.006 35.6942 270.499 35.6942 269.952C35.6942 269.405 35.6072 268.895 35.4332 268.423C35.2592 267.951 34.9911 267.569 34.6289 267.278C34.2667 266.987 33.805 266.841 33.244 266.841C32.6829 266.841 32.2212 266.987 31.859 267.278C31.4968 267.569 31.2287 267.951 31.0547 268.423C30.8807 268.895 30.7937 269.405 30.7937 269.952C30.7937 270.499 30.8807 271.006 31.0547 271.475C31.2287 271.944 31.4968 272.322 31.859 272.61C32.2212 272.897 32.6829 273.041 33.244 273.041ZM40.1274 269.078V274H38.8703V265.818H40.0848V267.097H40.1913C40.3831 266.681 40.6743 266.347 41.0649 266.095C41.4555 265.839 41.9598 265.712 42.5777 265.712C43.1317 265.712 43.6164 265.825 44.0319 266.053C44.4474 266.276 44.7705 266.617 45.0013 267.075C45.2322 267.53 45.3476 268.105 45.3476 268.801V274H44.0905V268.886C44.0905 268.244 43.9236 267.743 43.5898 267.384C43.2559 267.022 42.7979 266.841 42.2155 266.841C41.8142 266.841 41.4555 266.928 41.1395 267.102C40.827 267.276 40.5802 267.53 40.3991 267.864C40.218 268.197 40.1274 268.602 40.1274 269.078ZM53.4402 267.651L52.3109 267.97C52.2399 267.782 52.1351 267.599 51.9966 267.422C51.8617 267.24 51.677 267.091 51.4426 266.974C51.2083 266.857 50.9082 266.798 50.5424 266.798C50.0417 266.798 49.6245 266.914 49.2907 267.145C48.9604 267.372 48.7953 267.661 48.7953 268.013C48.7953 268.325 48.9089 268.572 49.1362 268.753C49.3635 268.934 49.7186 269.085 50.2015 269.206L51.416 269.504C52.1475 269.682 52.6926 269.953 53.0513 270.319C53.41 270.681 53.5893 271.148 53.5893 271.72C53.5893 272.189 53.4544 272.608 53.1845 272.977C52.9181 273.347 52.5453 273.638 52.0659 273.851C51.5865 274.064 51.0289 274.17 50.3933 274.17C49.5588 274.17 48.8681 273.989 48.3212 273.627C47.7743 273.265 47.4281 272.736 47.2825 272.04L48.4757 271.741C48.5893 272.182 48.8042 272.512 49.1202 272.732C49.4398 272.952 49.8571 273.062 50.372 273.062C50.9579 273.062 51.4231 272.938 51.7676 272.69C52.1156 272.437 52.2896 272.136 52.2896 271.784C52.2896 271.5 52.1902 271.262 51.9913 271.07C51.7924 270.875 51.487 270.729 51.0751 270.634L49.7115 270.314C48.9622 270.136 48.4118 269.861 48.0602 269.488C47.7122 269.112 47.5382 268.641 47.5382 268.077C47.5382 267.615 47.6678 267.207 47.927 266.852C48.1898 266.496 48.5467 266.218 48.9977 266.015C49.4522 265.813 49.9672 265.712 50.5424 265.712C51.3521 265.712 51.9877 265.889 52.4494 266.244C52.9146 266.599 53.2449 267.068 53.4402 267.651ZM62.7899 274.17C62.108 274.17 61.5061 273.998 60.9841 273.654C60.4621 273.306 60.0537 272.816 59.759 272.184C59.4642 271.548 59.3169 270.797 59.3169 269.93C59.3169 269.071 59.4642 268.325 59.759 267.693C60.0537 267.061 60.4639 266.573 60.9894 266.228C61.515 265.884 62.1222 265.712 62.8112 265.712C63.3438 265.712 63.7646 265.8 64.0736 265.978C64.3861 266.152 64.624 266.351 64.7874 266.575C64.9543 266.795 65.0839 266.976 65.1762 267.118H65.2828V263.091H66.5399V274H65.3254V272.743H65.1762C65.0839 272.892 64.9525 273.08 64.782 273.308C64.6116 273.531 64.3683 273.732 64.0523 273.909C63.7362 274.083 63.3154 274.17 62.7899 274.17ZM62.9603 273.041C63.4646 273.041 63.8907 272.91 64.2387 272.647C64.5867 272.381 64.8513 272.013 65.0324 271.544C65.2135 271.072 65.3041 270.527 65.3041 269.909C65.3041 269.298 65.2153 268.764 65.0377 268.306C64.8602 267.844 64.5974 267.485 64.2494 267.23C63.9014 266.971 63.4717 266.841 62.9603 266.841C62.4276 266.841 61.9838 266.978 61.6286 267.251C61.2771 267.521 61.0125 267.888 60.835 268.354C60.661 268.815 60.574 269.334 60.574 269.909C60.574 270.491 60.6627 271.021 60.8403 271.496C61.0214 271.969 61.2877 272.345 61.6393 272.626C61.9944 272.903 62.4347 273.041 62.9603 273.041ZM72.4472 274.17C71.6588 274.17 70.9788 273.996 70.407 273.648C69.8389 273.297 69.4003 272.807 69.0914 272.178C68.786 271.546 68.6333 270.811 68.6333 269.973C68.6333 269.135 68.786 268.396 69.0914 267.757C69.4003 267.114 69.83 266.614 70.3804 266.255C70.9344 265.893 71.5807 265.712 72.3193 265.712C72.7455 265.712 73.1663 265.783 73.5818 265.925C73.9972 266.067 74.3754 266.298 74.7164 266.617C75.0573 266.933 75.3289 267.352 75.5313 267.874C75.7338 268.396 75.835 269.039 75.835 269.803V270.335H69.5281V269.249H74.5566C74.5566 268.787 74.4642 268.375 74.2796 268.013C74.0985 267.651 73.8392 267.365 73.5019 267.155C73.1681 266.946 72.7739 266.841 72.3193 266.841C71.8186 266.841 71.3854 266.965 71.0196 267.214C70.6574 267.459 70.3786 267.778 70.1833 268.173C69.988 268.567 69.8904 268.989 69.8904 269.44V270.165C69.8904 270.783 69.9969 271.306 70.21 271.736C70.4266 272.162 70.7267 272.487 71.1102 272.711C71.4937 272.931 71.9394 273.041 72.4472 273.041C72.7774 273.041 73.0757 272.995 73.3421 272.903C73.6119 272.807 73.8445 272.665 74.0399 272.477C74.2352 272.285 74.3861 272.047 74.4926 271.763L75.7071 272.104C75.5793 272.516 75.3644 272.878 75.0626 273.19C74.7607 273.499 74.3879 273.741 73.944 273.915C73.5001 274.085 73.0012 274.17 72.4472 274.17ZM4.47443 292.17C3.70739 292.17 3.04688 291.989 2.4929 291.627C1.93892 291.265 1.51278 290.766 1.21449 290.13C0.916193 289.495 0.767046 288.768 0.767046 287.952C0.767046 287.121 0.919744 286.387 1.22514 285.752C1.53409 285.113 1.96378 284.614 2.5142 284.255C3.06818 283.893 3.71449 283.712 4.45312 283.712C5.02841 283.712 5.54688 283.818 6.00852 284.031C6.47017 284.244 6.84837 284.543 7.14311 284.926C7.43786 285.31 7.62074 285.757 7.69176 286.268H6.43466C6.33878 285.896 6.12571 285.565 5.79545 285.278C5.46875 284.987 5.02841 284.841 4.47443 284.841C3.98438 284.841 3.55469 284.969 3.18537 285.224C2.8196 285.477 2.53374 285.833 2.32777 286.295C2.12536 286.753 2.02415 287.291 2.02415 287.909C2.02415 288.541 2.12358 289.092 2.32244 289.56C2.52486 290.029 2.80895 290.393 3.17472 290.652C3.54403 290.912 3.97727 291.041 4.47443 291.041C4.80114 291.041 5.09766 290.984 5.36399 290.871C5.63033 290.757 5.85582 290.594 6.04048 290.381C6.22514 290.168 6.35653 289.912 6.43466 289.614H7.69176C7.62074 290.097 7.44496 290.532 7.16442 290.919C6.88743 291.302 6.51989 291.608 6.06179 291.835C5.60724 292.059 5.07813 292.17 4.47443 292.17ZM11.9371 292.192C11.4187 292.192 10.9482 292.094 10.5256 291.899C10.103 291.7 9.7674 291.414 9.51882 291.041C9.27024 290.665 9.14595 290.21 9.14595 289.678C9.14595 289.209 9.23828 288.829 9.42294 288.538C9.6076 288.243 9.8544 288.012 10.1634 287.845C10.4723 287.678 10.8132 287.554 11.1861 287.472C11.5625 287.387 11.9407 287.32 12.3207 287.27C12.8178 287.206 13.2209 287.158 13.5298 287.126C13.8423 287.091 14.0696 287.032 14.2116 286.95C14.3572 286.869 14.43 286.727 14.43 286.524V286.482C14.43 285.956 14.2862 285.548 13.9986 285.256C13.7145 284.965 13.283 284.82 12.7042 284.82C12.104 284.82 11.6335 284.951 11.2926 285.214C10.9517 285.477 10.712 285.757 10.5735 286.055L9.38033 285.629C9.59339 285.132 9.87749 284.745 10.2326 284.468C10.5913 284.187 10.9819 283.992 11.4045 283.882C11.8306 283.768 12.2496 283.712 12.6616 283.712C12.9244 283.712 13.2262 283.744 13.5671 283.808C13.9116 283.868 14.2436 283.994 14.5632 284.186C14.8864 284.377 15.1545 284.667 15.3675 285.054C15.5806 285.441 15.6871 285.96 15.6871 286.609V292H14.43V290.892H14.3661C14.2809 291.07 14.1388 291.26 13.94 291.462C13.7411 291.664 13.4766 291.837 13.1463 291.979C12.8161 292.121 12.413 292.192 11.9371 292.192ZM12.1289 291.062C12.6261 291.062 13.0451 290.965 13.386 290.77C13.7305 290.574 13.9897 290.322 14.1637 290.013C14.3413 289.704 14.43 289.379 14.43 289.038V287.888C14.3768 287.952 14.2596 288.01 14.0785 288.064C13.9009 288.113 13.695 288.158 13.4606 288.197C13.2298 288.232 13.0043 288.264 12.7841 288.293C12.5675 288.317 12.3917 288.339 12.2567 288.357C11.93 288.399 11.6246 288.468 11.3406 288.564C11.06 288.657 10.8327 288.797 10.6587 288.985C10.4883 289.17 10.4031 289.422 10.4031 289.741C10.4031 290.178 10.5646 290.509 10.8878 290.732C11.2145 290.952 11.6282 291.062 12.1289 291.062ZM23.7771 285.651L22.6478 285.97C22.5768 285.782 22.472 285.599 22.3335 285.422C22.1986 285.24 22.0139 285.091 21.7796 284.974C21.5452 284.857 21.2451 284.798 20.8794 284.798C20.3786 284.798 19.9614 284.914 19.6276 285.145C19.2973 285.372 19.1322 285.661 19.1322 286.013C19.1322 286.325 19.2458 286.572 19.4731 286.753C19.7004 286.934 20.0555 287.085 20.5384 287.206L21.7529 287.504C22.4845 287.682 23.0296 287.953 23.3882 288.319C23.7469 288.681 23.9262 289.148 23.9262 289.72C23.9262 290.189 23.7913 290.608 23.5214 290.977C23.2551 291.347 22.8822 291.638 22.4028 291.851C21.9234 292.064 21.3659 292.17 20.7302 292.17C19.8957 292.17 19.205 291.989 18.6581 291.627C18.1112 291.265 17.765 290.736 17.6194 290.04L18.8126 289.741C18.9262 290.182 19.1411 290.512 19.4571 290.732C19.7767 290.952 20.194 291.062 20.7089 291.062C21.2948 291.062 21.76 290.938 22.1045 290.69C22.4525 290.437 22.6265 290.136 22.6265 289.784C22.6265 289.5 22.5271 289.262 22.3282 289.07C22.1294 288.875 21.824 288.729 21.412 288.634L20.0484 288.314C19.2991 288.136 18.7487 287.861 18.3971 287.488C18.0491 287.112 17.8751 286.641 17.8751 286.077C17.8751 285.615 18.0047 285.207 18.2639 284.852C18.5267 284.496 18.8836 284.218 19.3346 284.015C19.7892 283.813 20.3041 283.712 20.8794 283.712C21.689 283.712 22.3247 283.889 22.7863 284.244C23.2515 284.599 23.5818 285.068 23.7771 285.651ZM27.0756 287.078V292H25.8185V281.091H27.0756V285.097H27.1822C27.3739 284.674 27.6616 284.338 28.0451 284.09C28.4322 283.838 28.9471 283.712 29.5898 283.712C30.1474 283.712 30.6357 283.824 31.0547 284.047C31.4737 284.267 31.7987 284.607 32.0295 285.065C32.2638 285.519 32.381 286.098 32.381 286.801V292H31.1239V286.886C31.1239 286.237 30.9553 285.734 30.6179 285.379C30.2841 285.02 29.8207 284.841 29.2276 284.841C28.8157 284.841 28.4464 284.928 28.1197 285.102C27.7965 285.276 27.5408 285.53 27.3526 285.864C27.168 286.197 27.0756 286.602 27.0756 287.078ZM34.8513 292V281.091H36.1084V285.118H36.2149C36.3073 284.976 36.4351 284.795 36.5985 284.575C36.7654 284.351 37.0033 284.152 37.3122 283.978C37.6247 283.8 38.0473 283.712 38.58 283.712C39.2689 283.712 39.8762 283.884 40.4017 284.228C40.9273 284.573 41.3374 285.061 41.6322 285.693C41.9269 286.325 42.0743 287.071 42.0743 287.93C42.0743 288.797 41.9269 289.548 41.6322 290.184C41.3374 290.816 40.9291 291.306 40.407 291.654C39.885 291.998 39.2831 292.17 38.6013 292.17C38.0757 292.17 37.6549 292.083 37.3389 291.909C37.0228 291.732 36.7796 291.531 36.6091 291.308C36.4387 291.08 36.3073 290.892 36.2149 290.743H36.0658V292H34.8513ZM36.0871 287.909C36.0871 288.527 36.1776 289.072 36.3588 289.544C36.5399 290.013 36.8044 290.381 37.1524 290.647C37.5004 290.91 37.9266 291.041 38.4308 291.041C38.9564 291.041 39.395 290.903 39.7465 290.626C40.1017 290.345 40.368 289.969 40.5455 289.496C40.7267 289.021 40.8172 288.491 40.8172 287.909C40.8172 287.334 40.7284 286.815 40.5509 286.354C40.3769 285.888 40.1123 285.521 39.7572 285.251C39.4056 284.978 38.9635 284.841 38.4308 284.841C37.9195 284.841 37.4898 284.971 37.1418 285.23C36.7938 285.485 36.531 285.844 36.3534 286.306C36.1759 286.764 36.0871 287.298 36.0871 287.909ZM46.4049 292.192C45.8865 292.192 45.4159 292.094 44.9933 291.899C44.5708 291.7 44.2352 291.414 43.9866 291.041C43.738 290.665 43.6137 290.21 43.6137 289.678C43.6137 289.209 43.7061 288.829 43.8907 288.538C44.0754 288.243 44.3222 288.012 44.6311 287.845C44.9401 287.678 45.281 287.554 45.6539 287.472C46.0303 287.387 46.4085 287.32 46.7884 287.27C47.2856 287.206 47.6887 287.158 47.9976 287.126C48.3101 287.091 48.5374 287.032 48.6794 286.95C48.825 286.869 48.8978 286.727 48.8978 286.524V286.482C48.8978 285.956 48.754 285.548 48.4664 285.256C48.1823 284.965 47.7508 284.82 47.172 284.82C46.5718 284.82 46.1013 284.951 45.7604 285.214C45.4195 285.477 45.1798 285.757 45.0413 286.055L43.8481 285.629C44.0612 285.132 44.3453 284.745 44.7004 284.468C45.059 284.187 45.4497 283.992 45.8722 283.882C46.2984 283.768 46.7174 283.712 47.1294 283.712C47.3921 283.712 47.694 283.744 48.0349 283.808C48.3794 283.868 48.7114 283.994 49.031 284.186C49.3541 284.377 49.6222 284.667 49.8353 285.054C50.0484 285.441 50.1549 285.96 50.1549 286.609V292H48.8978V290.892H48.8339C48.7487 291.07 48.6066 291.26 48.4078 291.462C48.2089 291.664 47.9443 291.837 47.6141 291.979C47.2838 292.121 46.8808 292.192 46.4049 292.192ZM46.5967 291.062C47.0938 291.062 47.5129 290.965 47.8538 290.77C48.1982 290.574 48.4575 290.322 48.6315 290.013C48.809 289.704 48.8978 289.379 48.8978 289.038V287.888C48.8445 287.952 48.7274 288.01 48.5463 288.064C48.3687 288.113 48.1627 288.158 47.9284 288.197C47.6975 288.232 47.472 288.264 47.2519 288.293C47.0352 288.317 46.8595 288.339 46.7245 288.357C46.3978 288.399 46.0924 288.468 45.8083 288.564C45.5278 288.657 45.3005 288.797 45.1265 288.985C44.9561 289.17 44.8708 289.422 44.8708 289.741C44.8708 290.178 45.0324 290.509 45.3556 290.732C45.6823 290.952 46.096 291.062 46.5967 291.062ZM55.7733 292.17C55.0062 292.17 54.3457 291.989 53.7917 291.627C53.2377 291.265 52.8116 290.766 52.5133 290.13C52.215 289.495 52.0659 288.768 52.0659 287.952C52.0659 287.121 52.2186 286.387 52.524 285.752C52.8329 285.113 53.2626 284.614 53.813 284.255C54.367 283.893 55.0133 283.712 55.752 283.712C56.3272 283.712 56.8457 283.818 57.3074 284.031C57.769 284.244 58.1472 284.543 58.4419 284.926C58.7367 285.31 58.9196 285.757 58.9906 286.268H57.7335C57.6376 285.896 57.4245 285.565 57.0943 285.278C56.7676 284.987 56.3272 284.841 55.7733 284.841C55.2832 284.841 54.8535 284.969 54.4842 285.224C54.1184 285.477 53.8326 285.833 53.6266 286.295C53.4242 286.753 53.323 287.291 53.323 287.909C53.323 288.541 53.4224 289.092 53.6213 289.56C53.8237 290.029 54.1078 290.393 54.4735 290.652C54.8429 290.912 55.2761 291.041 55.7733 291.041C56.1 291.041 56.3965 290.984 56.6628 290.871C56.9292 290.757 57.1547 290.594 57.3393 290.381C57.524 290.168 57.6554 289.912 57.7335 289.614H58.9906C58.9196 290.097 58.7438 290.532 58.4632 290.919C58.1863 291.302 57.8187 291.608 57.3606 291.835C56.9061 292.059 56.377 292.17 55.7733 292.17ZM62.0002 289.017L61.9789 287.462H62.2346L65.8141 283.818H67.3695L63.5556 287.675H63.449L62.0002 289.017ZM60.8283 292V281.091H62.0854V292H60.8283ZM66.0272 292L62.8311 287.952L63.726 287.078L67.6252 292H66.0272Z" fill="#DDD5D5" fill-opacity="0.7"/>
<path d="M563.099 614.5H561.778C561.7 614.12 561.564 613.786 561.368 613.499C561.176 613.211 560.942 612.969 560.665 612.774C560.392 612.575 560.088 612.426 559.754 612.327C559.42 612.227 559.072 612.178 558.71 612.178C558.05 612.178 557.451 612.344 556.915 612.678C556.382 613.012 555.958 613.504 555.642 614.154C555.33 614.804 555.173 615.601 555.173 616.545C555.173 617.49 555.33 618.287 555.642 618.937C555.958 619.587 556.382 620.079 556.915 620.413C557.451 620.746 558.05 620.913 558.71 620.913C559.072 620.913 559.42 620.864 559.754 620.764C560.088 620.665 560.392 620.517 560.665 620.322C560.942 620.123 561.176 619.88 561.368 619.592C561.564 619.301 561.7 618.967 561.778 618.591H563.099C563 619.148 562.819 619.647 562.556 620.088C562.293 620.528 561.967 620.903 561.576 621.212C561.185 621.517 560.747 621.75 560.26 621.909C559.777 622.069 559.261 622.149 558.71 622.149C557.78 622.149 556.952 621.922 556.228 621.467C555.504 621.013 554.934 620.366 554.518 619.528C554.103 618.69 553.895 617.696 553.895 616.545C553.895 615.395 554.103 614.401 554.518 613.562C554.934 612.724 555.504 612.078 556.228 611.624C556.952 611.169 557.78 610.942 558.71 610.942C559.261 610.942 559.777 611.022 560.26 611.181C560.747 611.341 561.185 611.576 561.576 611.885C561.967 612.19 562.293 612.563 562.556 613.003C562.819 613.44 563 613.939 563.099 614.5ZM568.388 622.17C567.649 622.17 567.001 621.995 566.443 621.643C565.889 621.292 565.456 620.8 565.144 620.168C564.835 619.536 564.68 618.797 564.68 617.952C564.68 617.099 564.835 616.355 565.144 615.72C565.456 615.084 565.889 614.591 566.443 614.239C567.001 613.887 567.649 613.712 568.388 613.712C569.126 613.712 569.772 613.887 570.326 614.239C570.884 614.591 571.317 615.084 571.626 615.72C571.939 616.355 572.095 617.099 572.095 617.952C572.095 618.797 571.939 619.536 571.626 620.168C571.317 620.8 570.884 621.292 570.326 621.643C569.772 621.995 569.126 622.17 568.388 622.17ZM568.388 621.041C568.949 621.041 569.41 620.897 569.772 620.61C570.135 620.322 570.403 619.944 570.577 619.475C570.751 619.006 570.838 618.499 570.838 617.952C570.838 617.405 570.751 616.895 570.577 616.423C570.403 615.951 570.135 615.569 569.772 615.278C569.41 614.987 568.949 614.841 568.388 614.841C567.826 614.841 567.365 614.987 567.003 615.278C566.64 615.569 566.372 615.951 566.198 616.423C566.024 616.895 565.937 617.405 565.937 617.952C565.937 618.499 566.024 619.006 566.198 619.475C566.372 619.944 566.64 620.322 567.003 620.61C567.365 620.897 567.826 621.041 568.388 621.041ZM575.271 617.078V622H574.014V613.818H575.228V615.097H575.335C575.527 614.681 575.818 614.347 576.208 614.095C576.599 613.839 577.103 613.712 577.721 613.712C578.275 613.712 578.76 613.825 579.175 614.053C579.591 614.276 579.914 614.617 580.145 615.075C580.376 615.53 580.491 616.105 580.491 616.801V622H579.234V616.886C579.234 616.244 579.067 615.743 578.733 615.384C578.4 615.022 577.941 614.841 577.359 614.841C576.958 614.841 576.599 614.928 576.283 615.102C575.971 615.276 575.724 615.53 575.543 615.864C575.362 616.197 575.271 616.602 575.271 617.078ZM586.347 613.818V614.884H582.106V613.818H586.347ZM583.342 611.858H584.599V619.656C584.599 620.011 584.651 620.278 584.754 620.455C584.86 620.629 584.995 620.746 585.159 620.807C585.326 620.864 585.501 620.892 585.686 620.892C585.824 620.892 585.938 620.885 586.027 620.871C586.116 620.853 586.187 620.839 586.24 620.828L586.496 621.957C586.41 621.989 586.291 622.021 586.139 622.053C585.986 622.089 585.793 622.107 585.558 622.107C585.203 622.107 584.855 622.03 584.514 621.877C584.177 621.725 583.896 621.492 583.672 621.18C583.452 620.867 583.342 620.473 583.342 619.997V611.858ZM590.645 622.192C590.127 622.192 589.656 622.094 589.234 621.899C588.811 621.7 588.475 621.414 588.227 621.041C587.978 620.665 587.854 620.21 587.854 619.678C587.854 619.209 587.946 618.829 588.131 618.538C588.316 618.243 588.562 618.012 588.871 617.845C589.18 617.678 589.521 617.554 589.894 617.472C590.271 617.387 590.649 617.32 591.029 617.27C591.526 617.206 591.929 617.158 592.238 617.126C592.55 617.091 592.778 617.032 592.92 616.95C593.065 616.869 593.138 616.727 593.138 616.524V616.482C593.138 615.956 592.994 615.548 592.707 615.256C592.422 614.965 591.991 614.82 591.412 614.82C590.812 614.82 590.342 614.951 590.001 615.214C589.66 615.477 589.42 615.757 589.282 616.055L588.088 615.629C588.301 615.132 588.585 614.745 588.941 614.468C589.299 614.187 589.69 613.992 590.112 613.882C590.539 613.768 590.958 613.712 591.37 613.712C591.632 613.712 591.934 613.744 592.275 613.808C592.62 613.868 592.952 613.994 593.271 614.186C593.594 614.377 593.862 614.667 594.076 615.054C594.289 615.441 594.395 615.96 594.395 616.609V622H593.138V620.892H593.074C592.989 621.07 592.847 621.26 592.648 621.462C592.449 621.664 592.185 621.837 591.854 621.979C591.524 622.121 591.121 622.192 590.645 622.192ZM590.837 621.062C591.334 621.062 591.753 620.965 592.094 620.77C592.438 620.574 592.698 620.322 592.872 620.013C593.049 619.704 593.138 619.379 593.138 619.038V617.888C593.085 617.952 592.968 618.01 592.786 618.064C592.609 618.113 592.403 618.158 592.169 618.197C591.938 618.232 591.712 618.264 591.492 618.293C591.275 618.317 591.1 618.339 590.965 618.357C590.638 618.399 590.333 618.468 590.049 618.564C589.768 618.657 589.541 618.797 589.367 618.985C589.196 619.17 589.111 619.422 589.111 619.741C589.111 620.178 589.273 620.509 589.596 620.732C589.922 620.952 590.336 621.062 590.837 621.062ZM557.474 640.17C556.707 640.17 556.047 639.989 555.493 639.627C554.939 639.265 554.513 638.766 554.214 638.13C553.916 637.495 553.767 636.768 553.767 635.952C553.767 635.121 553.92 634.387 554.225 633.752C554.534 633.113 554.964 632.614 555.514 632.255C556.068 631.893 556.714 631.712 557.453 631.712C558.028 631.712 558.547 631.818 559.009 632.031C559.47 632.244 559.848 632.543 560.143 632.926C560.438 633.31 560.621 633.757 560.692 634.268H559.435C559.339 633.896 559.126 633.565 558.795 633.278C558.469 632.987 558.028 632.841 557.474 632.841C556.984 632.841 556.555 632.969 556.185 633.224C555.82 633.477 555.534 633.833 555.328 634.295C555.125 634.753 555.024 635.291 555.024 635.909C555.024 636.541 555.124 637.092 555.322 637.56C555.525 638.029 555.809 638.393 556.175 638.652C556.544 638.912 556.977 639.041 557.474 639.041C557.801 639.041 558.098 638.984 558.364 638.871C558.63 638.757 558.856 638.594 559.04 638.381C559.225 638.168 559.357 637.912 559.435 637.614H560.692C560.621 638.097 560.445 638.532 560.164 638.919C559.887 639.302 559.52 639.608 559.062 639.835C558.607 640.059 558.078 640.17 557.474 640.17ZM565.853 640.17C565.115 640.17 564.467 639.995 563.909 639.643C563.355 639.292 562.922 638.8 562.609 638.168C562.3 637.536 562.146 636.797 562.146 635.952C562.146 635.099 562.3 634.355 562.609 633.72C562.922 633.084 563.355 632.591 563.909 632.239C564.467 631.887 565.115 631.712 565.853 631.712C566.592 631.712 567.238 631.887 567.792 632.239C568.35 632.591 568.783 633.084 569.092 633.72C569.404 634.355 569.561 635.099 569.561 635.952C569.561 636.797 569.404 637.536 569.092 638.168C568.783 638.8 568.35 639.292 567.792 639.643C567.238 639.995 566.592 640.17 565.853 640.17ZM565.853 639.041C566.414 639.041 566.876 638.897 567.238 638.61C567.6 638.322 567.869 637.944 568.043 637.475C568.217 637.006 568.304 636.499 568.304 635.952C568.304 635.405 568.217 634.895 568.043 634.423C567.869 633.951 567.6 633.569 567.238 633.278C566.876 632.987 566.414 632.841 565.853 632.841C565.292 632.841 564.831 632.987 564.468 633.278C564.106 633.569 563.838 633.951 563.664 634.423C563.49 634.895 563.403 635.405 563.403 635.952C563.403 636.499 563.49 637.006 563.664 637.475C563.838 637.944 564.106 638.322 564.468 638.61C564.831 638.897 565.292 639.041 565.853 639.041ZM571.48 640V631.818H572.694V633.054H572.779C572.929 632.649 573.198 632.321 573.589 632.069C573.98 631.816 574.42 631.69 574.91 631.69C575.002 631.69 575.118 631.692 575.256 631.696C575.395 631.699 575.5 631.705 575.571 631.712V632.99C575.528 632.979 575.43 632.963 575.278 632.942C575.128 632.917 574.97 632.905 574.804 632.905C574.406 632.905 574.051 632.988 573.738 633.155C573.429 633.319 573.184 633.546 573.003 633.837C572.826 634.125 572.737 634.453 572.737 634.822V640H571.48ZM577.061 640V631.818H578.275V633.054H578.36C578.51 632.649 578.779 632.321 579.17 632.069C579.561 631.816 580.001 631.69 580.491 631.69C580.583 631.69 580.699 631.692 580.837 631.696C580.976 631.699 581.081 631.705 581.152 631.712V632.99C581.109 632.979 581.011 632.963 580.859 632.942C580.71 632.917 580.551 632.905 580.385 632.905C579.987 632.905 579.632 632.988 579.319 633.155C579.01 633.319 578.765 633.546 578.584 633.837C578.407 634.125 578.318 634.453 578.318 634.822V640H577.061ZM585.823 640.17C585.035 640.17 584.355 639.996 583.783 639.648C583.215 639.297 582.776 638.807 582.467 638.178C582.162 637.546 582.009 636.811 582.009 635.973C582.009 635.135 582.162 634.396 582.467 633.757C582.776 633.114 583.206 632.614 583.756 632.255C584.31 631.893 584.957 631.712 585.695 631.712C586.121 631.712 586.542 631.783 586.958 631.925C587.373 632.067 587.751 632.298 588.092 632.617C588.433 632.933 588.705 633.352 588.907 633.874C589.11 634.396 589.211 635.039 589.211 635.803V636.335H582.904V635.249H587.933C587.933 634.787 587.84 634.375 587.656 634.013C587.474 633.651 587.215 633.365 586.878 633.155C586.544 632.946 586.15 632.841 585.695 632.841C585.195 632.841 584.761 632.965 584.396 633.214C584.033 633.459 583.755 633.778 583.559 634.173C583.364 634.567 583.266 634.989 583.266 635.44V636.165C583.266 636.783 583.373 637.306 583.586 637.736C583.803 638.162 584.103 638.487 584.486 638.711C584.87 638.931 585.315 639.041 585.823 639.041C586.153 639.041 586.452 638.995 586.718 638.903C586.988 638.807 587.221 638.665 587.416 638.477C587.611 638.285 587.762 638.047 587.869 637.763L589.083 638.104C588.955 638.516 588.74 638.878 588.439 639.19C588.137 639.499 587.764 639.741 587.32 639.915C586.876 640.085 586.377 640.17 585.823 640.17ZM592.38 635.078V640H591.123V631.818H592.338V633.097H592.444C592.636 632.681 592.927 632.347 593.318 632.095C593.708 631.839 594.213 631.712 594.831 631.712C595.385 631.712 595.869 631.825 596.285 632.053C596.7 632.276 597.023 632.617 597.254 633.075C597.485 633.53 597.6 634.105 597.6 634.801V640H596.343V634.886C596.343 634.244 596.176 633.743 595.843 633.384C595.509 633.022 595.051 632.841 594.468 632.841C594.067 632.841 593.708 632.928 593.392 633.102C593.08 633.276 592.833 633.53 592.652 633.864C592.471 634.197 592.38 634.602 592.38 635.078ZM603.456 631.818V632.884H599.216V631.818H603.456ZM600.452 629.858H601.709V637.656C601.709 638.011 601.76 638.278 601.863 638.455C601.97 638.629 602.105 638.746 602.268 638.807C602.435 638.864 602.611 638.892 602.795 638.892C602.934 638.892 603.047 638.885 603.136 638.871C603.225 638.853 603.296 638.839 603.349 638.828L603.605 639.957C603.52 639.989 603.401 640.021 603.248 640.053C603.095 640.089 602.902 640.107 602.668 640.107C602.312 640.107 601.964 640.03 601.623 639.877C601.286 639.725 601.006 639.492 600.782 639.18C600.562 638.867 600.452 638.473 600.452 637.997V629.858ZM608.689 640.17C607.901 640.17 607.221 639.996 606.649 639.648C606.081 639.297 605.642 638.807 605.334 638.178C605.028 637.546 604.875 636.811 604.875 635.973C604.875 635.135 605.028 634.396 605.334 633.757C605.642 633.114 606.072 632.614 606.623 632.255C607.177 631.893 607.823 631.712 608.562 631.712C608.988 631.712 609.408 631.783 609.824 631.925C610.239 632.067 610.618 632.298 610.959 632.617C611.299 632.933 611.571 633.352 611.774 633.874C611.976 634.396 612.077 635.039 612.077 635.803V636.335H605.77V635.249H610.799C610.799 634.787 610.706 634.375 610.522 634.013C610.341 633.651 610.081 633.365 609.744 633.155C609.41 632.946 609.016 632.841 608.562 632.841C608.061 632.841 607.628 632.965 607.262 633.214C606.9 633.459 606.621 633.778 606.426 634.173C606.23 634.567 606.133 634.989 606.133 635.44V636.165C606.133 636.783 606.239 637.306 606.452 637.736C606.669 638.162 606.969 638.487 607.352 638.711C607.736 638.931 608.182 639.041 608.689 639.041C609.02 639.041 609.318 638.995 609.584 638.903C609.854 638.807 610.087 638.665 610.282 638.477C610.477 638.285 610.628 638.047 610.735 637.763L611.949 638.104C611.821 638.516 611.607 638.878 611.305 639.19C611.003 639.499 610.63 639.741 610.186 639.915C609.742 640.085 609.243 640.17 608.689 640.17ZM557.24 658.17C556.558 658.17 555.956 657.998 555.434 657.654C554.912 657.306 554.504 656.816 554.209 656.184C553.914 655.548 553.767 654.797 553.767 653.93C553.767 653.071 553.914 652.325 554.209 651.693C554.504 651.061 554.914 650.573 555.44 650.228C555.965 649.884 556.572 649.712 557.261 649.712C557.794 649.712 558.215 649.8 558.524 649.978C558.836 650.152 559.074 650.351 559.238 650.575C559.404 650.795 559.534 650.976 559.626 651.118H559.733V647.091H560.99V658H559.776V656.743H559.626C559.534 656.892 559.403 657.08 559.232 657.308C559.062 657.531 558.819 657.732 558.502 657.909C558.186 658.083 557.766 658.17 557.24 658.17ZM557.411 657.041C557.915 657.041 558.341 656.91 558.689 656.647C559.037 656.381 559.301 656.013 559.483 655.544C559.664 655.072 559.754 654.527 559.754 653.909C559.754 653.298 559.665 652.764 559.488 652.306C559.31 651.844 559.048 651.485 558.7 651.23C558.352 650.971 557.922 650.841 557.411 650.841C556.878 650.841 556.434 650.978 556.079 651.251C555.727 651.521 555.463 651.888 555.285 652.354C555.111 652.815 555.024 653.334 555.024 653.909C555.024 654.491 555.113 655.021 555.29 655.496C555.472 655.969 555.738 656.345 556.089 656.626C556.445 656.903 556.885 657.041 557.411 657.041ZM563.467 658V649.818H564.724V658H563.467ZM564.106 648.455C563.861 648.455 563.65 648.371 563.472 648.204C563.298 648.037 563.211 647.837 563.211 647.602C563.211 647.368 563.298 647.167 563.472 647C563.65 646.833 563.861 646.75 564.106 646.75C564.351 646.75 564.561 646.833 564.735 647C564.912 647.167 565.001 647.368 565.001 647.602C565.001 647.837 564.912 648.037 564.735 648.204C564.561 648.371 564.351 648.455 564.106 648.455ZM570.329 661.239C569.722 661.239 569.2 661.161 568.763 661.004C568.326 660.852 567.962 660.649 567.671 660.397C567.383 660.148 567.154 659.882 566.984 659.598L567.985 658.895C568.099 659.044 568.243 659.214 568.417 659.406C568.591 659.602 568.829 659.77 569.131 659.912C569.436 660.058 569.835 660.131 570.329 660.131C570.99 660.131 571.535 659.971 571.964 659.651C572.394 659.332 572.609 658.831 572.609 658.149V656.487H572.502C572.41 656.636 572.279 656.821 572.108 657.041C571.941 657.258 571.7 657.451 571.384 657.622C571.071 657.789 570.649 657.872 570.116 657.872C569.456 657.872 568.862 657.716 568.337 657.403C567.815 657.091 567.401 656.636 567.096 656.04C566.794 655.443 566.643 654.719 566.643 653.866C566.643 653.028 566.79 652.299 567.085 651.677C567.38 651.052 567.79 650.569 568.316 650.228C568.841 649.884 569.448 649.712 570.137 649.712C570.67 649.712 571.093 649.8 571.405 649.978C571.721 650.152 571.963 650.351 572.13 650.575C572.3 650.795 572.431 650.976 572.524 651.118H572.652V649.818H573.866V658.234C573.866 658.938 573.706 659.509 573.387 659.95C573.071 660.393 572.644 660.718 572.108 660.924C571.576 661.134 570.983 661.239 570.329 661.239ZM570.286 656.743C570.791 656.743 571.217 656.627 571.565 656.397C571.913 656.166 572.177 655.834 572.359 655.401C572.54 654.967 572.63 654.449 572.63 653.845C572.63 653.256 572.541 652.735 572.364 652.284C572.186 651.833 571.924 651.48 571.576 651.224C571.228 650.969 570.798 650.841 570.286 650.841C569.754 650.841 569.31 650.976 568.955 651.246C568.603 651.516 568.339 651.878 568.161 652.332C567.987 652.787 567.9 653.291 567.9 653.845C567.9 654.413 567.989 654.916 568.166 655.353C568.348 655.786 568.614 656.127 568.965 656.375C569.321 656.62 569.761 656.743 570.286 656.743ZM576.167 658V649.818H577.424V658H576.167ZM576.806 648.455C576.561 648.455 576.35 648.371 576.172 648.204C575.998 648.037 575.911 647.837 575.911 647.602C575.911 647.368 575.998 647.167 576.172 647C576.35 646.833 576.561 646.75 576.806 646.75C577.051 646.75 577.261 646.833 577.435 647C577.612 647.167 577.701 647.368 577.701 647.602C577.701 647.837 577.612 648.037 577.435 648.204C577.261 648.371 577.051 648.455 576.806 648.455ZM583.285 649.818V650.884H579.045V649.818H583.285ZM580.281 647.858H581.538V655.656C581.538 656.011 581.589 656.278 581.692 656.455C581.799 656.629 581.934 656.746 582.097 656.807C582.264 656.864 582.44 656.892 582.624 656.892C582.763 656.892 582.877 656.885 582.965 656.871C583.054 656.853 583.125 656.839 583.178 656.828L583.434 657.957C583.349 657.989 583.23 658.021 583.077 658.053C582.925 658.089 582.731 658.107 582.497 658.107C582.142 658.107 581.794 658.03 581.453 657.877C581.115 657.725 580.835 657.492 580.611 657.18C580.391 656.867 580.281 656.473 580.281 655.997V647.858ZM587.584 658.192C587.065 658.192 586.595 658.094 586.172 657.899C585.749 657.7 585.414 657.414 585.165 657.041C584.917 656.665 584.792 656.21 584.792 655.678C584.792 655.209 584.885 654.829 585.069 654.538C585.254 654.243 585.501 654.012 585.81 653.845C586.119 653.678 586.46 653.554 586.833 653.472C587.209 653.387 587.587 653.32 587.967 653.27C588.464 653.206 588.867 653.158 589.176 653.126C589.489 653.091 589.716 653.032 589.858 652.95C590.004 652.869 590.077 652.727 590.077 652.524V652.482C590.077 651.956 589.933 651.548 589.645 651.256C589.361 650.965 588.93 650.82 588.351 650.82C587.751 650.82 587.28 650.951 586.939 651.214C586.598 651.477 586.358 651.757 586.22 652.055L585.027 651.629C585.24 651.132 585.524 650.745 585.879 650.468C586.238 650.187 586.628 649.992 587.051 649.882C587.477 649.768 587.896 649.712 588.308 649.712C588.571 649.712 588.873 649.744 589.214 649.808C589.558 649.868 589.89 649.994 590.21 650.186C590.533 650.377 590.801 650.667 591.014 651.054C591.227 651.441 591.334 651.96 591.334 652.609V658H590.077V656.892H590.013C589.927 657.07 589.785 657.26 589.586 657.462C589.388 657.664 589.123 657.837 588.793 657.979C588.463 658.121 588.059 658.192 587.584 658.192ZM587.775 657.062C588.273 657.062 588.692 656.965 589.032 656.77C589.377 656.574 589.636 656.322 589.81 656.013C589.988 655.704 590.077 655.379 590.077 655.038V653.888C590.023 653.952 589.906 654.01 589.725 654.064C589.547 654.113 589.341 654.158 589.107 654.197C588.876 654.232 588.651 654.264 588.431 654.293C588.214 654.317 588.038 654.339 587.903 654.357C587.577 654.399 587.271 654.468 586.987 654.564C586.706 654.657 586.479 654.797 586.305 654.985C586.135 655.17 586.05 655.422 586.05 655.741C586.05 656.178 586.211 656.509 586.534 656.732C586.861 656.952 587.275 657.062 587.775 657.062ZM594.885 647.091V658H593.628V647.091H594.885Z" fill="#DDD5D5" fill-opacity="0.7"/>
<path d="M40.7685 654H39.3835L43.3892 643.091H44.7528L48.7585 654H47.3736L44.1136 644.817H44.0284L40.7685 654ZM41.2798 649.739H46.8622V650.911H41.2798V649.739ZM55.4435 650.655V645.818H56.7006V654H55.4435V652.615H55.3583C55.1665 653.031 54.8683 653.384 54.4634 653.675C54.0586 653.963 53.5472 654.107 52.9293 654.107C52.418 654.107 51.9634 653.995 51.5657 653.771C51.168 653.544 50.8555 653.203 50.6282 652.748C50.4009 652.29 50.2873 651.713 50.2873 651.017V645.818H51.5444V650.932C51.5444 651.528 51.7113 652.004 52.0451 652.359C52.3825 652.714 52.8121 652.892 53.3342 652.892C53.6467 652.892 53.9645 652.812 54.2876 652.652C54.6143 652.493 54.8878 652.248 55.108 651.917C55.3317 651.587 55.4435 651.166 55.4435 650.655ZM64.7986 647.651L63.6693 647.97C63.5983 647.782 63.4935 647.599 63.355 647.422C63.2201 647.24 63.0354 647.091 62.801 646.974C62.5667 646.857 62.2666 646.798 61.9008 646.798C61.4001 646.798 60.9829 646.914 60.6491 647.145C60.3188 647.372 60.1537 647.661 60.1537 648.013C60.1537 648.325 60.2673 648.572 60.4946 648.753C60.7219 648.934 61.077 649.085 61.5599 649.206L62.7744 649.504C63.5059 649.682 64.051 649.953 64.4097 650.319C64.7684 650.681 64.9477 651.148 64.9477 651.72C64.9477 652.189 64.8128 652.608 64.5429 652.977C64.2765 653.347 63.9037 653.638 63.4243 653.851C62.9449 654.064 62.3873 654.17 61.7517 654.17C60.9172 654.17 60.2265 653.989 59.6796 653.627C59.1327 653.265 58.7865 652.736 58.6409 652.04L59.8341 651.741C59.9477 652.182 60.1626 652.512 60.4786 652.732C60.7982 652.952 61.2155 653.062 61.7304 653.062C62.3163 653.062 62.7815 652.938 63.126 652.69C63.474 652.437 63.648 652.136 63.648 651.784C63.648 651.5 63.5486 651.262 63.3497 651.07C63.1508 650.875 62.8454 650.729 62.4335 650.634L61.0699 650.314C60.3206 650.136 59.7702 649.861 59.4186 649.488C59.0706 649.112 58.8966 648.641 58.8966 648.077C58.8966 647.615 59.0262 647.207 59.2854 646.852C59.5482 646.496 59.9051 646.218 60.3561 646.015C60.8106 645.813 61.3256 645.712 61.9008 645.712C62.7105 645.712 63.3461 645.889 63.8078 646.244C64.273 646.599 64.6032 647.068 64.7986 647.651ZM70.2704 654.17C69.4821 654.17 68.802 653.996 68.2303 653.648C67.6621 653.297 67.2235 652.807 66.9146 652.178C66.6092 651.546 66.4565 650.811 66.4565 649.973C66.4565 649.135 66.6092 648.396 66.9146 647.757C67.2235 647.114 67.6532 646.614 68.2037 646.255C68.7576 645.893 69.4039 645.712 70.1426 645.712C70.5687 645.712 70.9895 645.783 71.405 645.925C71.8205 646.067 72.1987 646.298 72.5396 646.617C72.8805 646.933 73.1522 647.352 73.3546 647.874C73.557 648.396 73.6582 649.039 73.6582 649.803V650.335H67.3514V649.249H72.3798C72.3798 648.787 72.2875 648.375 72.1028 648.013C71.9217 647.651 71.6625 647.365 71.3251 647.155C70.9913 646.946 70.5971 646.841 70.1426 646.841C69.6419 646.841 69.2086 646.965 68.8429 647.214C68.4806 647.459 68.2019 647.778 68.0066 648.173C67.8113 648.567 67.7136 648.989 67.7136 649.44V650.165C67.7136 650.783 67.8201 651.306 68.0332 651.736C68.2498 652.162 68.5499 652.487 68.9334 652.711C69.3169 652.931 69.7626 653.041 70.2704 653.041C70.6007 653.041 70.899 652.995 71.1653 652.903C71.4352 652.807 71.6678 652.665 71.8631 652.477C72.0584 652.285 72.2093 652.047 72.3159 651.763L73.5304 652.104C73.4025 652.516 73.1877 652.878 72.8858 653.19C72.584 653.499 72.2111 653.741 71.7672 653.915C71.3233 654.085 70.8244 654.17 70.2704 654.17ZM71.1866 644.838L70.0787 643.347L68.9707 644.838H67.7775V644.753L69.5034 642.537H70.6539L72.3798 644.753V644.838H71.1866ZM76.8276 649.078V654H75.5705V645.818H76.785V647.097H76.8915C77.0833 646.681 77.3745 646.347 77.7651 646.095C78.1557 645.839 78.66 645.712 79.2779 645.712C79.8319 645.712 80.3166 645.825 80.7321 646.053C81.1475 646.276 81.4707 646.617 81.7015 647.075C81.9324 647.53 82.0478 648.105 82.0478 648.801V654H80.7907V648.886C80.7907 648.244 80.6238 647.743 80.29 647.384C79.9561 647.022 79.498 646.841 78.9157 646.841C78.5144 646.841 78.1557 646.928 77.8397 647.102C77.5272 647.276 77.2804 647.53 77.0993 647.864C76.9181 648.197 76.8276 648.602 76.8276 649.078ZM87.6688 654.17C86.9017 654.17 86.2412 653.989 85.6872 653.627C85.1333 653.265 84.7071 652.766 84.4088 652.13C84.1105 651.495 83.9614 650.768 83.9614 649.952C83.9614 649.121 84.1141 648.387 84.4195 647.752C84.7284 647.113 85.1581 646.614 85.7085 646.255C86.2625 645.893 86.9088 645.712 87.6475 645.712C88.2227 645.712 88.7412 645.818 89.2029 646.031C89.6645 646.244 90.0427 646.543 90.3374 646.926C90.6322 647.31 90.8151 647.757 90.8861 648.268H89.629C89.5331 647.896 89.32 647.565 88.9898 647.278C88.6631 646.987 88.2227 646.841 87.6688 646.841C87.1787 646.841 86.749 646.969 86.3797 647.224C86.0139 647.477 85.7281 647.833 85.5221 648.295C85.3197 648.753 85.2185 649.291 85.2185 649.909C85.2185 650.541 85.3179 651.092 85.5168 651.56C85.7192 652.029 86.0033 652.393 86.3691 652.652C86.7384 652.912 87.1716 653.041 87.6688 653.041C87.9955 653.041 88.292 652.984 88.5583 652.871C88.8247 652.757 89.0502 652.594 89.2348 652.381C89.4195 652.168 89.5509 651.912 89.629 651.614H90.8861C90.8151 652.097 90.6393 652.532 90.3588 652.919C90.0818 653.302 89.7142 653.608 89.2561 653.835C88.8016 654.059 88.2725 654.17 87.6688 654.17ZM92.7238 654V645.818H93.9809V654H92.7238ZM93.363 644.455C93.118 644.455 92.9067 644.371 92.7291 644.204C92.5551 644.037 92.4681 643.837 92.4681 643.602C92.4681 643.368 92.5551 643.167 92.7291 643C92.9067 642.833 93.118 642.75 93.363 642.75C93.608 642.75 93.8176 642.833 93.9916 643C94.1691 643.167 94.2579 643.368 94.2579 643.602C94.2579 643.837 94.1691 644.037 93.9916 644.204C93.8176 644.371 93.608 644.455 93.363 644.455ZM98.6911 654.192C98.1726 654.192 97.7021 654.094 97.2795 653.899C96.8569 653.7 96.5213 653.414 96.2727 653.041C96.0241 652.665 95.8999 652.21 95.8999 651.678C95.8999 651.209 95.9922 650.829 96.1768 650.538C96.3615 650.243 96.6083 650.012 96.9173 649.845C97.2262 649.678 97.5671 649.554 97.94 649.472C98.3164 649.387 98.6946 649.32 99.0746 649.27C99.5717 649.206 99.9748 649.158 100.284 649.126C100.596 649.091 100.824 649.032 100.966 648.95C101.111 648.869 101.184 648.727 101.184 648.524V648.482C101.184 647.956 101.04 647.548 100.752 647.256C100.468 646.965 100.037 646.82 99.4581 646.82C98.858 646.82 98.3874 646.951 98.0465 647.214C97.7056 647.477 97.4659 647.757 97.3274 648.055L96.1342 647.629C96.3473 647.132 96.6314 646.745 96.9865 646.468C97.3452 646.187 97.7358 645.992 98.1584 645.882C98.5845 645.768 99.0036 645.712 99.4155 645.712C99.6783 645.712 99.9801 645.744 100.321 645.808C100.665 645.868 100.998 645.994 101.317 646.186C101.64 646.377 101.908 646.667 102.121 647.054C102.335 647.441 102.441 647.96 102.441 648.609V654H101.184V652.892H101.12C101.035 653.07 100.893 653.26 100.694 653.462C100.495 653.664 100.23 653.837 99.9002 653.979C99.57 654.121 99.1669 654.192 98.6911 654.192ZM98.8828 653.062C99.38 653.062 99.799 652.965 100.14 652.77C100.484 652.574 100.744 652.322 100.918 652.013C101.095 651.704 101.184 651.379 101.184 651.038V649.888C101.131 649.952 101.013 650.01 100.832 650.064C100.655 650.113 100.449 650.158 100.214 650.197C99.9837 650.232 99.7582 650.264 99.538 650.293C99.3214 650.317 99.1456 650.339 99.0107 650.357C98.6839 650.399 98.3786 650.468 98.0945 650.564C97.8139 650.657 97.5866 650.797 97.4126 650.985C97.2422 651.17 97.157 651.422 97.157 651.741C97.157 652.178 97.3185 652.509 97.6417 652.732C97.9684 652.952 98.3821 653.062 98.8828 653.062ZM112.044 654.17C111.362 654.17 110.76 653.998 110.238 653.654C109.716 653.306 109.308 652.816 109.013 652.184C108.718 651.548 108.571 650.797 108.571 649.93C108.571 649.071 108.718 648.325 109.013 647.693C109.308 647.061 109.718 646.573 110.243 646.228C110.769 645.884 111.376 645.712 112.065 645.712C112.598 645.712 113.019 645.8 113.328 645.978C113.64 646.152 113.878 646.351 114.041 646.575C114.208 646.795 114.338 646.976 114.43 647.118H114.537V643.091H115.794V654H114.579V652.743H114.43C114.338 652.892 114.206 653.08 114.036 653.308C113.866 653.531 113.622 653.732 113.306 653.909C112.99 654.083 112.569 654.17 112.044 654.17ZM112.214 653.041C112.718 653.041 113.145 652.91 113.493 652.647C113.841 652.381 114.105 652.013 114.286 651.544C114.467 651.072 114.558 650.527 114.558 649.909C114.558 649.298 114.469 648.764 114.292 648.306C114.114 647.844 113.851 647.485 113.503 647.23C113.155 646.971 112.726 646.841 112.214 646.841C111.682 646.841 111.238 646.978 110.883 647.251C110.531 647.521 110.266 647.888 110.089 648.354C109.915 648.815 109.828 649.334 109.828 649.909C109.828 650.491 109.917 651.021 110.094 651.496C110.275 651.969 110.542 652.345 110.893 652.626C111.248 652.903 111.689 653.041 112.214 653.041ZM121.701 654.17C120.913 654.17 120.233 653.996 119.661 653.648C119.093 653.297 118.654 652.807 118.345 652.178C118.04 651.546 117.887 650.811 117.887 649.973C117.887 649.135 118.04 648.396 118.345 647.757C118.654 647.114 119.084 646.614 119.634 646.255C120.188 645.893 120.835 645.712 121.573 645.712C121.999 645.712 122.42 645.783 122.836 645.925C123.251 646.067 123.629 646.298 123.97 646.617C124.311 646.933 124.583 647.352 124.785 647.874C124.988 648.396 125.089 649.039 125.089 649.803V650.335H118.782V649.249H123.81C123.81 648.787 123.718 648.375 123.533 648.013C123.352 647.651 123.093 647.365 122.756 647.155C122.422 646.946 122.028 646.841 121.573 646.841C121.073 646.841 120.639 646.965 120.274 647.214C119.911 647.459 119.633 647.778 119.437 648.173C119.242 648.567 119.144 648.989 119.144 649.44V650.165C119.144 650.783 119.251 651.306 119.464 651.736C119.68 652.162 119.981 652.487 120.364 652.711C120.748 652.931 121.193 653.041 121.701 653.041C122.031 653.041 122.33 652.995 122.596 652.903C122.866 652.807 123.098 652.665 123.294 652.477C123.489 652.285 123.64 652.047 123.747 651.763L124.961 652.104C124.833 652.516 124.618 652.878 124.316 653.19C124.015 653.499 123.642 653.741 123.198 653.915C122.754 654.085 122.255 654.17 121.701 654.17ZM43.7088 663.818V664.884H39.4688V663.818H43.7088ZM40.7045 661.858H41.9616V669.656C41.9616 670.011 42.0131 670.278 42.1161 670.455C42.2227 670.629 42.3576 670.746 42.521 670.807C42.6879 670.864 42.8636 670.892 43.0483 670.892C43.1868 670.892 43.3004 670.885 43.3892 670.871C43.478 670.853 43.549 670.839 43.6023 670.828L43.858 671.957C43.7727 671.989 43.6538 672.021 43.5011 672.053C43.3484 672.089 43.1548 672.107 42.9205 672.107C42.5653 672.107 42.2173 672.03 41.8764 671.877C41.5391 671.725 41.2585 671.492 41.0348 671.18C40.8146 670.867 40.7045 670.473 40.7045 669.997V661.858ZM48.0075 672.192C47.489 672.192 47.0185 672.094 46.5959 671.899C46.1733 671.7 45.8377 671.414 45.5891 671.041C45.3406 670.665 45.2163 670.21 45.2163 669.678C45.2163 669.209 45.3086 668.829 45.4933 668.538C45.6779 668.243 45.9247 668.012 46.2337 667.845C46.5426 667.678 46.8835 667.554 47.2564 667.472C47.6328 667.387 48.011 667.32 48.391 667.27C48.8881 667.206 49.2912 667.158 49.6001 667.126C49.9126 667.091 50.1399 667.032 50.282 666.95C50.4276 666.869 50.5004 666.727 50.5004 666.524V666.482C50.5004 665.956 50.3565 665.548 50.0689 665.256C49.7848 664.965 49.3533 664.82 48.7745 664.82C48.1744 664.82 47.7038 664.951 47.3629 665.214C47.022 665.477 46.7823 665.757 46.6438 666.055L45.4506 665.629C45.6637 665.132 45.9478 664.745 46.3029 664.468C46.6616 664.187 47.0522 663.992 47.4748 663.882C47.9009 663.768 48.32 663.712 48.7319 663.712C48.9947 663.712 49.2965 663.744 49.6374 663.808C49.9819 663.868 50.3139 663.994 50.6335 664.186C50.9567 664.377 51.2248 664.667 51.4379 665.054C51.6509 665.441 51.7575 665.96 51.7575 666.609V672H50.5004V670.892H50.4364C50.3512 671.07 50.2092 671.26 50.0103 671.462C49.8114 671.664 49.5469 671.837 49.2166 671.979C48.8864 672.121 48.4833 672.192 48.0075 672.192ZM48.1992 671.062C48.6964 671.062 49.1154 670.965 49.4563 670.77C49.8008 670.574 50.06 670.322 50.234 670.013C50.4116 669.704 50.5004 669.379 50.5004 669.038V667.888C50.4471 667.952 50.3299 668.01 50.1488 668.064C49.9712 668.113 49.7653 668.158 49.5309 668.197C49.3001 668.232 49.0746 668.264 48.8544 668.293C48.6378 668.317 48.462 668.339 48.3271 668.357C48.0004 668.399 47.695 668.468 47.4109 668.564C47.1303 668.657 46.9031 668.797 46.729 668.985C46.5586 669.17 46.4734 669.422 46.4734 669.741C46.4734 670.178 46.6349 670.509 46.9581 670.732C47.2848 670.952 47.6985 671.062 48.1992 671.062ZM54.9894 663.818L56.9497 667.163L58.9099 663.818H60.3588L57.7167 667.909L60.3588 672H58.9099L56.9497 668.825L54.9894 672H53.5406L56.14 667.909L53.5406 663.818H54.9894ZM64.5602 672.192C64.0417 672.192 63.5712 672.094 63.1486 671.899C62.726 671.7 62.3904 671.414 62.1419 671.041C61.8933 670.665 61.769 670.21 61.769 669.678C61.769 669.209 61.8613 668.829 62.046 668.538C62.2306 668.243 62.4775 668.012 62.7864 667.845C63.0953 667.678 63.4363 667.554 63.8091 667.472C64.1855 667.387 64.5637 667.32 64.9437 667.27C65.4409 667.206 65.8439 667.158 66.1529 667.126C66.4654 667.091 66.6926 667.032 66.8347 666.95C66.9803 666.869 67.0531 666.727 67.0531 666.524V666.482C67.0531 665.956 66.9093 665.548 66.6216 665.256C66.3375 664.965 65.9061 664.82 65.3272 664.82C64.7271 664.82 64.2566 664.951 63.9157 665.214C63.5748 665.477 63.335 665.757 63.1966 666.055L62.0034 665.629C62.2164 665.132 62.5005 664.745 62.8556 664.468C63.2143 664.187 63.6049 663.992 64.0275 663.882C64.4537 663.768 64.8727 663.712 65.2846 663.712C65.5474 663.712 65.8493 663.744 66.1902 663.808C66.5346 663.868 66.8667 663.994 67.1863 664.186C67.5094 664.377 67.7775 664.667 67.9906 665.054C68.2037 665.441 68.3102 665.96 68.3102 666.609V672H67.0531V670.892H66.9892C66.9039 671.07 66.7619 671.26 66.563 671.462C66.3642 671.664 66.0996 671.837 65.7694 671.979C65.4391 672.121 65.036 672.192 64.5602 672.192ZM64.752 671.062C65.2491 671.062 65.6681 670.965 66.0091 670.77C66.3535 670.574 66.6127 670.322 66.7868 670.013C66.9643 669.704 67.0531 669.379 67.0531 669.038V667.888C66.9998 667.952 66.8826 668.01 66.7015 668.064C66.524 668.113 66.318 668.158 66.0836 668.197C65.8528 668.232 65.6273 668.264 65.4071 668.293C65.1905 668.317 65.0147 668.339 64.8798 668.357C64.5531 668.399 64.2477 668.468 63.9636 668.564C63.6831 668.657 63.4558 668.797 63.2818 668.985C63.1113 669.17 63.0261 669.422 63.0261 669.741C63.0261 670.178 63.1877 670.509 63.5108 670.732C63.8375 670.952 64.2512 671.062 64.752 671.062ZM76.4001 665.651L75.2709 665.97C75.1998 665.782 75.0951 665.599 74.9566 665.422C74.8216 665.24 74.637 665.091 74.4026 664.974C74.1682 664.857 73.8682 664.798 73.5024 664.798C73.0017 664.798 72.5844 664.914 72.2506 665.145C71.9204 665.372 71.7552 665.661 71.7552 666.013C71.7552 666.325 71.8689 666.572 72.0961 666.753C72.3234 666.934 72.6785 667.085 73.1615 667.206L74.376 667.504C75.1075 667.682 75.6526 667.953 76.0113 668.319C76.3699 668.681 76.5493 669.148 76.5493 669.72C76.5493 670.189 76.4143 670.608 76.1444 670.977C75.8781 671.347 75.5052 671.638 75.0258 671.851C74.5464 672.064 73.9889 672.17 73.3532 672.17C72.5187 672.17 71.828 671.989 71.2812 671.627C70.7343 671.265 70.3881 670.736 70.2425 670.04L71.4356 669.741C71.5493 670.182 71.7641 670.512 72.0802 670.732C72.3998 670.952 72.817 671.062 73.3319 671.062C73.9179 671.062 74.3831 670.938 74.7275 670.69C75.0756 670.437 75.2496 670.136 75.2496 669.784C75.2496 669.5 75.1501 669.262 74.9513 669.07C74.7524 668.875 74.447 668.729 74.0351 668.634L72.6714 668.314C71.9221 668.136 71.3717 667.861 71.0202 667.488C70.6721 667.112 70.4981 666.641 70.4981 666.077C70.4981 665.615 70.6278 665.207 70.887 664.852C71.1498 664.496 71.5067 664.218 71.9577 664.015C72.4122 663.813 72.9271 663.712 73.5024 663.712C74.3121 663.712 74.9477 663.889 75.4094 664.244C75.8746 664.599 76.2048 665.068 76.4001 665.651Z" fill="#DDD5D5" fill-opacity="0.69"/>
<path d="M567.972 3.09091V14H566.693L560.749 5.43466H560.642V14H559.321V3.09091H560.599L566.565 11.6776H566.672V3.09091H567.972ZM573.875 14.1705C573.087 14.1705 572.407 13.9964 571.835 13.6484C571.267 13.2969 570.828 12.8068 570.519 12.1783C570.214 11.5462 570.061 10.8111 570.061 9.97301C570.061 9.13494 570.214 8.39631 570.519 7.7571C570.828 7.11435 571.258 6.61364 571.808 6.25497C572.362 5.89276 573.008 5.71165 573.747 5.71165C574.173 5.71165 574.594 5.78267 575.009 5.92472C575.425 6.06676 575.803 6.29759 576.144 6.61719C576.485 6.93324 576.757 7.35227 576.959 7.87429C577.161 8.39631 577.263 9.03906 577.263 9.80256V10.3352H570.956V9.24858H575.984C575.984 8.78693 575.892 8.375 575.707 8.01278C575.526 7.65057 575.267 7.3647 574.93 7.15518C574.596 6.94567 574.202 6.84091 573.747 6.84091C573.246 6.84091 572.813 6.9652 572.447 7.21378C572.085 7.45881 571.806 7.77841 571.611 8.17258C571.416 8.56676 571.318 8.98935 571.318 9.44034V10.1648C571.318 10.7827 571.425 11.3065 571.638 11.7362C571.854 12.1623 572.154 12.4872 572.538 12.7109C572.921 12.9311 573.367 13.0412 573.875 13.0412C574.205 13.0412 574.503 12.995 574.77 12.9027C575.04 12.8068 575.272 12.6648 575.468 12.4766C575.663 12.2848 575.814 12.0469 575.92 11.7628L577.135 12.1037C577.007 12.5156 576.792 12.8778 576.49 13.1903C576.188 13.4993 575.816 13.7408 575.372 13.9148C574.928 14.0852 574.429 14.1705 573.875 14.1705ZM581.029 14L578.536 5.81818H579.857L581.625 12.0824H581.71L583.458 5.81818H584.8L586.526 12.0611H586.611L588.38 5.81818H589.701L587.208 14H585.972L584.182 7.71449H584.054L582.264 14H581.029ZM597.158 7.65057L596.029 7.97017C595.958 7.78196 595.853 7.59908 595.714 7.42152C595.579 7.24041 595.395 7.09126 595.16 6.97408C594.926 6.85689 594.626 6.7983 594.26 6.7983C593.759 6.7983 593.342 6.91371 593.008 7.14453C592.678 7.3718 592.513 7.66122 592.513 8.01278C592.513 8.32528 592.627 8.57209 592.854 8.7532C593.081 8.9343 593.436 9.08523 593.919 9.20597L595.134 9.50426C595.865 9.68182 596.41 9.95348 596.769 10.3192C597.128 10.6815 597.307 11.1484 597.307 11.7202C597.307 12.1889 597.172 12.608 596.902 12.9773C596.636 13.3466 596.263 13.6378 595.784 13.8509C595.304 14.0639 594.747 14.1705 594.111 14.1705C593.277 14.1705 592.586 13.9893 592.039 13.6271C591.492 13.2649 591.146 12.7358 591 12.0398L592.193 11.7415C592.307 12.1818 592.522 12.5121 592.838 12.7322C593.158 12.9524 593.575 13.0625 594.09 13.0625C594.676 13.0625 595.141 12.9382 595.485 12.6896C595.833 12.4375 596.007 12.1357 596.007 11.7841C596.007 11.5 595.908 11.2621 595.709 11.0703C595.51 10.875 595.205 10.7294 594.793 10.6335L593.429 10.3139C592.68 10.1364 592.13 9.86115 591.778 9.48828C591.43 9.11186 591.256 8.64134 591.256 8.0767C591.256 7.61506 591.386 7.20668 591.645 6.85156C591.908 6.49645 592.264 6.21768 592.715 6.01527C593.17 5.81286 593.685 5.71165 594.26 5.71165C595.07 5.71165 595.706 5.8892 596.167 6.24432C596.632 6.59943 596.963 7.06818 597.158 7.65057ZM600.456 3.09091V14H599.199V3.09091H600.456ZM606.189 14.1705C605.401 14.1705 604.721 13.9964 604.149 13.6484C603.581 13.2969 603.142 12.8068 602.834 12.1783C602.528 11.5462 602.375 10.8111 602.375 9.97301C602.375 9.13494 602.528 8.39631 602.834 7.7571C603.142 7.11435 603.572 6.61364 604.123 6.25497C604.677 5.89276 605.323 5.71165 606.062 5.71165C606.488 5.71165 606.908 5.78267 607.324 5.92472C607.739 6.06676 608.118 6.29759 608.459 6.61719C608.799 6.93324 609.071 7.35227 609.274 7.87429C609.476 8.39631 609.577 9.03906 609.577 9.80256V10.3352H603.27V9.24858H608.299C608.299 8.78693 608.206 8.375 608.022 8.01278C607.841 7.65057 607.581 7.3647 607.244 7.15518C606.91 6.94567 606.516 6.84091 606.062 6.84091C605.561 6.84091 605.128 6.9652 604.762 7.21378C604.4 7.45881 604.121 7.77841 603.926 8.17258C603.73 8.56676 603.633 8.98935 603.633 9.44034V10.1648C603.633 10.7827 603.739 11.3065 603.952 11.7362C604.169 12.1623 604.469 12.4872 604.852 12.7109C605.236 12.9311 605.682 13.0412 606.189 13.0412C606.52 13.0412 606.818 12.995 607.084 12.9027C607.354 12.8068 607.587 12.6648 607.782 12.4766C607.977 12.2848 608.128 12.0469 608.235 11.7628L609.449 12.1037C609.321 12.5156 609.107 12.8778 608.805 13.1903C608.503 13.4993 608.13 13.7408 607.686 13.9148C607.242 14.0852 606.743 14.1705 606.189 14.1705ZM615.048 5.81818V6.88352H610.808V5.81818H615.048ZM612.043 3.85795H613.301V11.6562C613.301 12.0114 613.352 12.2777 613.455 12.4553C613.562 12.6293 613.696 12.7464 613.86 12.8068C614.027 12.8636 614.203 12.892 614.387 12.892C614.526 12.892 614.639 12.8849 614.728 12.8707C614.817 12.853 614.888 12.8388 614.941 12.8281L615.197 13.9574C615.112 13.9893 614.993 14.0213 614.84 14.0533C614.687 14.0888 614.494 14.1065 614.259 14.1065C613.904 14.1065 613.556 14.0302 613.215 13.8775C612.878 13.7248 612.597 13.4922 612.374 13.1797C612.153 12.8672 612.043 12.473 612.043 11.9972V3.85795ZM620.497 5.81818V6.88352H616.257V5.81818H620.497ZM617.493 3.85795H618.75V11.6562C618.75 12.0114 618.801 12.2777 618.904 12.4553C619.011 12.6293 619.146 12.7464 619.309 12.8068C619.476 12.8636 619.652 12.892 619.836 12.892C619.975 12.892 620.089 12.8849 620.177 12.8707C620.266 12.853 620.337 12.8388 620.39 12.8281L620.646 13.9574C620.561 13.9893 620.442 14.0213 620.289 14.0533C620.136 14.0888 619.943 14.1065 619.709 14.1065C619.353 14.1065 619.005 14.0302 618.665 13.8775C618.327 13.7248 618.047 13.4922 617.823 13.1797C617.603 12.8672 617.493 12.473 617.493 11.9972V3.85795ZM625.73 14.1705C624.942 14.1705 624.262 13.9964 623.69 13.6484C623.122 13.2969 622.684 12.8068 622.375 12.1783C622.069 11.5462 621.916 10.8111 621.916 9.97301C621.916 9.13494 622.069 8.39631 622.375 7.7571C622.684 7.11435 623.113 6.61364 623.664 6.25497C624.218 5.89276 624.864 5.71165 625.603 5.71165C626.029 5.71165 626.449 5.78267 626.865 5.92472C627.28 6.06676 627.659 6.29759 628 6.61719C628.34 6.93324 628.612 7.35227 628.815 7.87429C629.017 8.39631 629.118 9.03906 629.118 9.80256V10.3352H622.811V9.24858H627.84C627.84 8.78693 627.747 8.375 627.563 8.01278C627.382 7.65057 627.122 7.3647 626.785 7.15518C626.451 6.94567 626.057 6.84091 625.603 6.84091C625.102 6.84091 624.669 6.9652 624.303 7.21378C623.941 7.45881 623.662 7.77841 623.467 8.17258C623.271 8.56676 623.174 8.98935 623.174 9.44034V10.1648C623.174 10.7827 623.28 11.3065 623.493 11.7362C623.71 12.1623 624.01 12.4872 624.393 12.7109C624.777 12.9311 625.223 13.0412 625.73 13.0412C626.061 13.0412 626.359 12.995 626.625 12.9027C626.895 12.8068 627.128 12.6648 627.323 12.4766C627.518 12.2848 627.669 12.0469 627.776 11.7628L628.99 12.1037C628.862 12.5156 628.648 12.8778 628.346 13.1903C628.044 13.4993 627.671 13.7408 627.227 13.9148C626.783 14.0852 626.284 14.1705 625.73 14.1705ZM631.03 14V5.81818H632.245V7.05398H632.33C632.479 6.64915 632.749 6.32067 633.14 6.06854C633.53 5.81641 633.971 5.69034 634.461 5.69034C634.553 5.69034 634.669 5.69212 634.807 5.69567C634.946 5.69922 635.05 5.70455 635.121 5.71165V6.99006C635.079 6.9794 634.981 6.96342 634.828 6.94212C634.679 6.91726 634.521 6.90483 634.354 6.90483C633.957 6.90483 633.601 6.98828 633.289 7.15518C632.98 7.31854 632.735 7.54581 632.554 7.837C632.376 8.12464 632.288 8.45312 632.288 8.82244V14H631.03Z" fill="#DDD5D5" fill-opacity="0.7"/>
</svg>
