<svg width="185" height="157" viewBox="0 0 185 157" fill="none" xmlns="http://www.w3.org/2000/svg">
<path d="M23.5534 42.0396C52.3534 174.11 58.8903 111.138 89.764 68.6345C107.966 43.5753 134.629 25.6312 179.3 58.9688" stroke="white" stroke-width="2"/>
<path d="M144.07 23.4385C144.07 128.935 41.3977 140.886 41.3977 50.2253" stroke="white" stroke-width="2"/>
<line x1="1" y1="157" x2="1" y2="4.61765" stroke="#DDD5D5" stroke-opacity="0.5" stroke-width="2"/>
<path d="M30.7268 42.0206C30.7268 45.3359 27.6306 48.0235 23.8111 48.0235C19.9917 48.0235 16.8954 45.3359 16.8954 42.0206C16.8954 38.7052 19.9917 36.0176 23.8111 36.0176C27.6306 36.0176 30.7268 38.7052 30.7268 42.0206Z" fill="#078A83"/>
<path d="M48.8139 48.4853C48.8139 51.8006 45.7176 54.4882 41.8982 54.4882C38.0787 54.4882 34.9825 51.8006 34.9825 48.4853C34.9825 45.1699 38.0787 42.4823 41.8982 42.4823C45.7176 42.4823 48.8139 45.1699 48.8139 48.4853Z" fill="#FF7A00"/>
</svg>
