<svg width="184" height="128" viewBox="0 0 184 128" fill="none" xmlns="http://www.w3.org/2000/svg">
<path d="M18.1708 34.2741C39.7783 141.949 44.6827 90.609 67.8461 55.9566C81.5028 35.5262 101.506 20.8966 135.022 48.0763" stroke="white" stroke-width="2"/>
<path d="M108.59 19.109C108.59 105.119 31.5587 114.863 31.5587 40.948" stroke="white" stroke-width="2"/>
<line x1="1" y1="128" x2="1" y2="3.76472" stroke="#DDD5D5" stroke-opacity="0.1" stroke-width="2"/>
<path d="M112.175 91.4963V98.0588H110.499V87.1497H112.118V88.8543H112.26C112.516 88.3003 112.904 87.8552 113.425 87.5191C113.946 87.1782 114.618 87.0077 115.442 87.0077C116.181 87.0077 116.827 87.1592 117.381 87.4622C117.935 87.7605 118.366 88.2151 118.674 88.8259C118.982 89.4319 119.135 90.199 119.135 91.127V98.0588H117.459V91.2407C117.459 90.3836 117.237 89.716 116.792 89.2378C116.347 88.7549 115.736 88.5134 114.959 88.5134C114.424 88.5134 113.946 88.6294 113.525 88.8614C113.108 89.0934 112.779 89.4319 112.537 89.877C112.296 90.3221 112.175 90.8619 112.175 91.4963ZM126.63 98.2861C125.645 98.2861 124.781 98.0517 124.038 97.583C123.299 97.1142 122.721 96.4585 122.305 95.6157C121.893 94.7729 121.687 93.788 121.687 92.6611C121.687 91.5247 121.893 90.5328 122.305 89.6853C122.721 88.8377 123.299 88.1796 124.038 87.7108C124.781 87.2421 125.645 87.0077 126.63 87.0077C127.615 87.0077 128.477 87.2421 129.215 87.7108C129.959 88.1796 130.536 88.8377 130.948 89.6853C131.365 90.5328 131.573 91.5247 131.573 92.6611C131.573 93.788 131.365 94.7729 130.948 95.6157C130.536 96.4585 129.959 97.1142 129.215 97.583C128.477 98.0517 127.615 98.2861 126.63 98.2861ZM126.63 96.7804C127.378 96.7804 127.994 96.5887 128.477 96.2051C128.96 95.8216 129.317 95.3174 129.549 94.6924C129.781 94.0674 129.897 93.3903 129.897 92.6611C129.897 91.9319 129.781 91.2525 129.549 90.6228C129.317 89.993 128.96 89.484 128.477 89.0958C127.994 88.7075 127.378 88.5134 126.63 88.5134C125.882 88.5134 125.266 88.7075 124.783 89.0958C124.301 89.484 123.943 89.993 123.711 90.6228C123.479 91.2525 123.363 91.9319 123.363 92.6611C123.363 93.3903 123.479 94.0674 123.711 94.6924C123.943 95.3174 124.301 95.8216 124.783 96.2051C125.266 96.5887 125.882 96.7804 126.63 96.7804ZM138.251 98.2861C137.342 98.2861 136.54 98.0565 135.843 97.5972C135.147 97.1332 134.603 96.4798 134.21 95.637C133.817 94.7894 133.62 93.788 133.62 92.6327C133.62 91.4869 133.817 90.4925 134.21 89.6497C134.603 88.8069 135.15 88.1559 135.851 87.6966C136.551 87.2373 137.361 87.0077 138.28 87.0077C138.99 87.0077 139.551 87.1261 139.963 87.3628C140.379 87.5948 140.697 87.86 140.915 88.1583C141.137 88.4518 141.31 88.6933 141.433 88.8827H141.575V83.5134H143.251V98.0588H141.632V96.3827H141.433C141.31 96.5816 141.135 96.8325 140.907 97.1355C140.68 97.4338 140.356 97.7014 139.934 97.9381C139.513 98.1701 138.952 98.2861 138.251 98.2861ZM138.478 96.7804C139.151 96.7804 139.719 96.6052 140.183 96.2549C140.647 95.8997 141 95.4097 141.241 94.7847C141.483 94.155 141.603 93.4282 141.603 92.6043C141.603 91.7899 141.485 91.0773 141.248 90.4665C141.012 89.851 140.661 89.3728 140.197 89.0318C139.733 88.6862 139.16 88.5134 138.478 88.5134C137.768 88.5134 137.176 88.6957 136.703 89.0603C136.234 89.4201 135.881 89.9102 135.645 90.5304C135.413 91.146 135.297 91.8372 135.297 92.6043C135.297 93.3808 135.415 94.0863 135.652 94.7208C135.893 95.3505 136.248 95.8524 136.717 96.2265C137.191 96.5958 137.778 96.7804 138.478 96.7804ZM151.128 98.2861C150.076 98.2861 149.17 98.0541 148.407 97.5901C147.65 97.1213 147.065 96.4679 146.653 95.6299C146.246 94.7871 146.042 93.8069 146.042 92.6895C146.042 91.5721 146.246 90.5872 146.653 89.735C147.065 88.878 147.638 88.2104 148.372 87.7321C149.111 87.2492 149.972 87.0077 150.957 87.0077C151.525 87.0077 152.086 87.1024 152.64 87.2918C153.194 87.4812 153.699 87.789 154.153 88.2151C154.608 88.6365 154.97 89.1952 155.24 89.8912C155.51 90.5872 155.645 91.4443 155.645 92.4622V93.1725H147.236V91.7236H153.94C153.94 91.1081 153.817 90.5588 153.571 90.0759C153.329 89.5929 152.984 89.2118 152.534 88.9324C152.089 88.6531 151.563 88.5134 150.957 88.5134C150.29 88.5134 149.712 88.6791 149.224 89.0105C148.741 89.3372 148.37 89.7634 148.109 90.289C147.849 90.8145 147.718 91.378 147.718 91.9793V92.9452C147.718 93.7691 147.861 94.4675 148.145 95.0404C148.433 95.6086 148.834 96.0418 149.345 96.3401C149.856 96.6336 150.45 96.7804 151.128 96.7804C151.568 96.7804 151.966 96.7189 152.321 96.5958C152.681 96.4679 152.991 96.2785 153.251 96.0276C153.512 95.7719 153.713 95.4547 153.855 95.0759L155.474 95.5304C155.304 96.0797 155.017 96.5626 154.615 96.9793C154.212 97.3912 153.715 97.7132 153.123 97.9452C152.531 98.1725 151.866 98.2861 151.128 98.2861ZM110.726 122.059V107.513H112.402V112.883H112.544C112.668 112.693 112.838 112.452 113.056 112.158C113.278 111.86 113.596 111.595 114.008 111.363C114.424 111.126 114.988 111.008 115.698 111.008C116.616 111.008 117.426 111.237 118.127 111.697C118.828 112.156 119.375 112.807 119.767 113.65C120.16 114.493 120.357 115.487 120.357 116.633C120.357 117.788 120.16 118.789 119.767 119.637C119.375 120.48 118.83 121.133 118.134 121.597C117.438 122.056 116.635 122.286 115.726 122.286C115.026 122.286 114.464 122.17 114.043 121.938C113.622 121.701 113.297 121.434 113.07 121.136C112.843 120.833 112.668 120.582 112.544 120.383H112.346V122.059H110.726ZM112.374 116.604C112.374 117.428 112.495 118.155 112.736 118.785C112.978 119.41 113.33 119.9 113.794 120.255C114.258 120.605 114.827 120.78 115.499 120.78C116.2 120.78 116.785 120.596 117.253 120.226C117.727 119.852 118.082 119.351 118.319 118.721C118.56 118.086 118.681 117.381 118.681 116.604C118.681 115.837 118.562 115.146 118.326 114.53C118.094 113.91 117.741 113.42 117.267 113.06C116.799 112.696 116.209 112.513 115.499 112.513C114.817 112.513 114.244 112.686 113.78 113.032C113.316 113.373 112.966 113.851 112.729 114.467C112.492 115.077 112.374 115.79 112.374 116.604ZM127.353 122.286C126.368 122.286 125.504 122.052 124.76 121.583C124.022 121.114 123.444 120.458 123.027 119.616C122.616 118.773 122.41 117.788 122.41 116.661C122.41 115.525 122.616 114.533 123.027 113.685C123.444 112.838 124.022 112.18 124.76 111.711C125.504 111.242 126.368 111.008 127.353 111.008C128.338 111.008 129.199 111.242 129.938 111.711C130.681 112.18 131.259 112.838 131.671 113.685C132.088 114.533 132.296 115.525 132.296 116.661C132.296 117.788 132.088 118.773 131.671 119.616C131.259 120.458 130.681 121.114 129.938 121.583C129.199 122.052 128.338 122.286 127.353 122.286ZM127.353 120.78C128.101 120.78 128.716 120.589 129.199 120.205C129.682 119.822 130.04 119.317 130.272 118.692C130.504 118.067 130.62 117.39 130.62 116.661C130.62 115.932 130.504 115.252 130.272 114.623C130.04 113.993 129.682 113.484 129.199 113.096C128.716 112.708 128.101 112.513 127.353 112.513C126.605 112.513 125.989 112.708 125.506 113.096C125.023 113.484 124.666 113.993 124.434 114.623C124.202 115.252 124.086 115.932 124.086 116.661C124.086 117.39 124.202 118.067 124.434 118.692C124.666 119.317 125.023 119.822 125.506 120.205C125.989 120.589 126.605 120.78 127.353 120.78ZM141.729 117.599V111.15H143.406V122.059H141.729V120.212H141.616C141.36 120.766 140.962 121.237 140.423 121.626C139.883 122.009 139.201 122.201 138.377 122.201C137.695 122.201 137.089 122.052 136.559 121.753C136.029 121.45 135.612 120.996 135.309 120.39C135.006 119.779 134.854 119.01 134.854 118.082V111.15H136.531V117.968C136.531 118.763 136.753 119.398 137.198 119.871C137.648 120.345 138.221 120.582 138.917 120.582C139.334 120.582 139.757 120.475 140.188 120.262C140.624 120.049 140.988 119.722 141.282 119.282C141.58 118.842 141.729 118.28 141.729 117.599ZM148.152 115.496V122.059H146.476V111.15H148.095V112.854H148.237C148.493 112.3 148.881 111.855 149.402 111.519C149.923 111.178 150.595 111.008 151.419 111.008C152.157 111.008 152.804 111.159 153.358 111.462C153.912 111.761 154.343 112.215 154.65 112.826C154.958 113.432 155.112 114.199 155.112 115.127V122.059H153.436V115.241C153.436 114.384 153.213 113.716 152.768 113.238C152.323 112.755 151.712 112.513 150.936 112.513C150.401 112.513 149.923 112.629 149.501 112.861C149.084 113.093 148.755 113.432 148.514 113.877C148.272 114.322 148.152 114.862 148.152 115.496ZM162.919 111.15V112.57H157.266V111.15H162.919ZM158.913 108.536H160.59V118.934C160.59 119.407 160.658 119.762 160.796 119.999C160.938 120.231 161.118 120.387 161.335 120.468C161.558 120.544 161.792 120.582 162.038 120.582C162.223 120.582 162.375 120.572 162.493 120.553C162.611 120.529 162.706 120.511 162.777 120.496L163.118 122.002C163.004 122.045 162.846 122.087 162.642 122.13C162.439 122.177 162.18 122.201 161.868 122.201C161.395 122.201 160.93 122.099 160.476 121.895C160.026 121.692 159.652 121.382 159.354 120.965C159.06 120.548 158.913 120.023 158.913 119.388V108.536ZM166.52 126.15C166.236 126.15 165.983 126.126 165.76 126.079C165.537 126.036 165.384 125.993 165.298 125.951L165.725 124.474C166.132 124.578 166.492 124.616 166.804 124.587C167.117 124.559 167.394 124.419 167.635 124.168C167.881 123.922 168.106 123.522 168.31 122.968L168.622 122.116L164.588 111.15H166.406L169.418 119.843H169.531L172.543 111.15H174.361L169.73 123.65C169.522 124.213 169.264 124.68 168.956 125.049C168.648 125.423 168.291 125.7 167.884 125.88C167.481 126.06 167.027 126.15 166.52 126.15Z" fill="white"/>
<path d="M23.5527 34.2589C23.5527 36.9618 21.2297 39.153 18.3641 39.153C15.4985 39.153 13.1755 36.9618 13.1755 34.2589C13.1755 31.5559 15.4985 29.3647 18.3641 29.3647C21.2297 29.3647 23.5527 31.5559 23.5527 34.2589Z" fill="#078A83"/>
<path d="M37.1228 39.5294C37.1228 42.2323 34.7998 44.4235 31.9342 44.4235C29.0686 44.4235 26.7456 42.2323 26.7456 39.5294C26.7456 36.8264 29.0686 34.6353 31.9342 34.6353C34.7998 34.6353 37.1228 36.8264 37.1228 39.5294Z" fill="#FF7A00"/>
</svg>
