<svg width="212" height="150" viewBox="0 0 212 150" fill="none" xmlns="http://www.w3.org/2000/svg">
<path d="M26.7335 40.1652C59.7826 166.347 67.284 106.183 102.713 65.5743C123.601 41.6325 154.197 24.4884 205.459 56.3396" stroke="white" stroke-opacity="0.5" stroke-width="2"/>
<path d="M165.031 22.3934C165.031 123.186 47.2105 134.605 47.2105 47.986" stroke="white" stroke-opacity="0.5" stroke-width="2"/>
<line x1="1" y1="150" x2="1" y2="4.41176" stroke="#DDD5D5" stroke-opacity="0.5" stroke-width="2"/>
<path d="M34.9652 40.147C34.9652 43.3146 31.4121 45.8823 27.0292 45.8823C22.6462 45.8823 19.0931 43.3146 19.0931 40.147C19.0931 36.9795 22.6462 34.4117 27.0292 34.4117C31.4121 34.4117 34.9652 36.9795 34.9652 40.147Z" fill="#078A83"/>
<path d="M55.7208 46.3235C55.7208 49.491 52.1678 52.0588 47.7848 52.0588C43.4018 52.0588 39.8488 49.491 39.8488 46.3235C39.8488 43.156 43.4018 40.5882 47.7848 40.5882C52.1678 40.5882 55.7208 43.156 55.7208 46.3235Z" fill="#FF7A00"/>
</svg>
