<svg width="170" height="120" viewBox="0 0 170 120" fill="none" xmlns="http://www.w3.org/2000/svg">
<path d="M15.3275 29.4545C33.1359 121.988 37.1781 77.8673 56.2688 48.0878C67.5243 30.5305 84.0107 17.9582 111.633 41.3157" stroke="white" stroke-width="2"/>
<path d="M89.8486 16.4219C89.8486 90.3365 26.3615 98.7102 26.3615 35.1897" stroke="white" stroke-width="2"/>
<line x1="1" y1="110" x2="1" y2="3.2353" stroke="#DDD5D5" stroke-opacity="0.1" stroke-width="2"/>
<path d="M92.5656 77.0193V81.9412H91.3085V73.7594H92.523V75.0378H92.6295C92.8213 74.6223 93.1124 74.2885 93.5031 74.0363C93.8937 73.7807 94.398 73.6528 95.0159 73.6528C95.5698 73.6528 96.0546 73.7665 96.47 73.9937C96.8855 74.2175 97.2087 74.5584 97.4395 75.0165C97.6703 75.471 97.7857 76.0463 97.7857 76.7423V81.9412H96.5286V76.8275C96.5286 76.1848 96.3617 75.6841 96.0279 75.3254C95.6941 74.9632 95.236 74.7821 94.6536 74.7821C94.2524 74.7821 93.8937 74.8691 93.5776 75.0431C93.2651 75.2171 93.0183 75.471 92.8372 75.8048C92.6561 76.1386 92.5656 76.5434 92.5656 77.0193ZM103.407 82.1116C102.668 82.1116 102.02 81.9359 101.462 81.5843C100.909 81.2327 100.475 80.7409 100.163 80.1088C99.8538 79.4767 99.6994 78.7381 99.6994 77.8929C99.6994 77.0406 99.8538 76.2966 100.163 75.661C100.475 75.0253 100.909 74.5317 101.462 74.1802C102.02 73.8286 102.668 73.6528 103.407 73.6528C104.145 73.6528 104.792 73.8286 105.346 74.1802C105.903 74.5317 106.336 75.0253 106.645 75.661C106.958 76.2966 107.114 77.0406 107.114 77.8929C107.114 78.7381 106.958 79.4767 106.645 80.1088C106.336 80.7409 105.903 81.2327 105.346 81.5843C104.792 81.9359 104.145 82.1116 103.407 82.1116ZM103.407 80.9824C103.968 80.9824 104.429 80.8385 104.792 80.5509C105.154 80.2633 105.422 79.8851 105.596 79.4163C105.77 78.9476 105.857 78.4398 105.857 77.8929C105.857 77.346 105.77 76.8364 105.596 76.3641C105.422 75.8918 105.154 75.5101 104.792 75.2189C104.429 74.9277 103.968 74.7821 103.407 74.7821C102.846 74.7821 102.384 74.9277 102.022 75.2189C101.66 75.5101 101.391 75.8918 101.217 76.3641C101.043 76.8364 100.956 77.346 100.956 77.8929C100.956 78.4398 101.043 78.9476 101.217 79.4163C101.391 79.8851 101.66 80.2633 102.022 80.5509C102.384 80.8385 102.846 80.9824 103.407 80.9824ZM112.123 82.1116C111.441 82.1116 110.839 81.9394 110.317 81.5949C109.795 81.2469 109.386 80.7569 109.092 80.1248C108.797 79.4891 108.65 78.7381 108.65 77.8716C108.65 77.0122 108.797 76.2665 109.092 75.6344C109.386 75.0023 109.797 74.514 110.322 74.1695C110.848 73.8251 111.455 73.6528 112.144 73.6528C112.677 73.6528 113.097 73.7416 113.406 73.9192C113.719 74.0932 113.957 74.292 114.12 74.5158C114.287 74.7359 114.417 74.917 114.509 75.0591H114.615V71.0321H115.873V81.9412H114.658V80.6841H114.509C114.417 80.8332 114.285 81.0214 114.115 81.2487C113.944 81.4724 113.701 81.6731 113.385 81.8506C113.069 82.0246 112.648 82.1116 112.123 82.1116ZM112.293 80.9824C112.797 80.9824 113.223 80.851 113.571 80.5882C113.919 80.3219 114.184 79.9543 114.365 79.4856C114.546 79.0133 114.637 78.4682 114.637 77.8503C114.637 77.2395 114.548 76.705 114.37 76.2469C114.193 75.7853 113.93 75.4266 113.582 75.1709C113.234 74.9117 112.804 74.7821 112.293 74.7821C111.76 74.7821 111.316 74.9188 110.961 75.1922C110.61 75.4621 110.345 75.8297 110.168 76.2949C109.994 76.7565 109.907 77.275 109.907 77.8503C109.907 78.4327 109.995 78.9618 110.173 79.4376C110.354 79.9099 110.62 80.2863 110.972 80.5669C111.327 80.8439 111.767 80.9824 112.293 80.9824ZM121.78 82.1116C120.992 82.1116 120.311 81.9376 119.74 81.5896C119.172 81.2381 118.733 80.748 118.424 80.1194C118.119 79.4873 117.966 78.7523 117.966 77.9142C117.966 77.0761 118.119 76.3375 118.424 75.6983C118.733 75.0555 119.163 74.5548 119.713 74.1961C120.267 73.8339 120.913 73.6528 121.652 73.6528C122.078 73.6528 122.499 73.7238 122.914 73.8659C123.33 74.0079 123.708 74.2388 124.049 74.5584C124.39 74.8744 124.662 75.2934 124.864 75.8155C125.066 76.3375 125.168 76.9802 125.168 77.7437V78.2764H118.861V77.1898H123.889C123.889 76.7281 123.797 76.3162 123.612 75.954C123.431 75.5917 123.172 75.3059 122.835 75.0964C122.501 74.8868 122.107 74.7821 121.652 74.7821C121.151 74.7821 120.718 74.9064 120.352 75.155C119.99 75.4 119.711 75.7196 119.516 76.1138C119.321 76.5079 119.223 76.9305 119.223 77.3815V78.106C119.223 78.7238 119.33 79.2476 119.543 79.6773C119.759 80.1035 120.059 80.4284 120.443 80.6521C120.826 80.8723 121.272 80.9824 121.78 80.9824C122.11 80.9824 122.408 80.9362 122.675 80.8439C122.945 80.748 123.177 80.606 123.373 80.4177C123.568 80.226 123.719 79.9881 123.825 79.704L125.04 80.0449C124.912 80.4568 124.697 80.819 124.395 81.1315C124.093 81.4405 123.721 81.6819 123.277 81.856C122.833 82.0264 122.334 82.1116 121.78 82.1116ZM91.4789 99.9412V89.0321H92.736V93.0591H92.8426C92.9349 92.917 93.0627 92.7359 93.2261 92.5158C93.393 92.292 93.6309 92.0932 93.9399 91.9192C94.2524 91.7416 94.6749 91.6528 95.2076 91.6528C95.8965 91.6528 96.5038 91.8251 97.0293 92.1695C97.5549 92.514 97.9651 93.0023 98.2598 93.6344C98.5546 94.2665 98.7019 95.0122 98.7019 95.8716C98.7019 96.7381 98.5546 97.4891 98.2598 98.1248C97.9651 98.7569 97.5567 99.2469 97.0347 99.5949C96.5127 99.9394 95.9107 100.112 95.2289 100.112C94.7034 100.112 94.2825 100.025 93.9665 99.8506C93.6504 99.6731 93.4072 99.4724 93.2367 99.2487C93.0663 99.0214 92.9349 98.8332 92.8426 98.6841H92.6934V99.9412H91.4789ZM92.7147 95.8503C92.7147 96.4682 92.8053 97.0133 92.9864 97.4856C93.1675 97.9543 93.432 98.3219 93.7801 98.5882C94.1281 98.851 94.5542 98.9824 95.0585 98.9824C95.584 98.9824 96.0226 98.8439 96.3742 98.5669C96.7293 98.2863 96.9956 97.9099 97.1732 97.4376C97.3543 96.9618 97.4448 96.4327 97.4448 95.8503C97.4448 95.275 97.3561 94.7565 97.1785 94.2949C97.0045 93.8297 96.7399 93.4621 96.3848 93.1922C96.0333 92.9188 95.5911 92.7821 95.0585 92.7821C94.5471 92.7821 94.1174 92.9117 93.7694 93.1709C93.4214 93.4266 93.1586 93.7853 92.9811 94.2469C92.8035 94.705 92.7147 95.2395 92.7147 95.8503ZM103.949 100.112C103.21 100.112 102.562 99.9359 102.004 99.5843C101.451 99.2327 101.017 98.7409 100.705 98.1088C100.396 97.4767 100.241 96.7381 100.241 95.8929C100.241 95.0406 100.396 94.2966 100.705 93.661C101.017 93.0253 101.451 92.5317 102.004 92.1802C102.562 91.8286 103.21 91.6528 103.949 91.6528C104.687 91.6528 105.334 91.8286 105.888 92.1802C106.445 92.5317 106.878 93.0253 107.187 93.661C107.5 94.2966 107.656 95.0406 107.656 95.8929C107.656 96.7381 107.5 97.4767 107.187 98.1088C106.878 98.7409 106.445 99.2327 105.888 99.5843C105.334 99.9359 104.687 100.112 103.949 100.112ZM103.949 98.9824C104.51 98.9824 104.971 98.8385 105.334 98.5509C105.696 98.2633 105.964 97.8851 106.138 97.4163C106.312 96.9476 106.399 96.4398 106.399 95.8929C106.399 95.346 106.312 94.8364 106.138 94.3641C105.964 93.8918 105.696 93.5101 105.334 93.2189C104.971 92.9277 104.51 92.7821 103.949 92.7821C103.388 92.7821 102.926 92.9277 102.564 93.2189C102.202 93.5101 101.933 93.8918 101.759 94.3641C101.585 94.8364 101.498 95.346 101.498 95.8929C101.498 96.4398 101.585 96.9476 101.759 97.4163C101.933 97.8851 102.202 98.2633 102.564 98.5509C102.926 98.8385 103.388 98.9824 103.949 98.9824ZM114.731 96.596V91.7594H115.988V99.9412H114.731V98.5562H114.646C114.454 98.9717 114.156 99.3251 113.751 99.6162C113.346 99.9039 112.835 100.048 112.217 100.048C111.706 100.048 111.251 99.9359 110.853 99.7121C110.456 99.4849 110.143 99.1439 109.916 98.6894C109.689 98.2313 109.575 97.6542 109.575 96.9582V91.7594H110.832V96.873C110.832 97.4696 110.999 97.9454 111.333 98.3006C111.67 98.6557 112.1 98.8332 112.622 98.8332C112.934 98.8332 113.252 98.7533 113.575 98.5935C113.902 98.4337 114.176 98.1887 114.396 97.8584C114.619 97.5282 114.731 97.1074 114.731 96.596ZM119.548 95.0193V99.9412H118.291V91.7594H119.505V93.0378H119.612C119.804 92.6223 120.095 92.2885 120.485 92.0363C120.876 91.7807 121.38 91.6528 121.998 91.6528C122.552 91.6528 123.037 91.7665 123.452 91.9937C123.868 92.2175 124.191 92.5584 124.422 93.0165C124.653 93.471 124.768 94.0463 124.768 94.7423V99.9412H123.511V94.8275C123.511 94.1848 123.344 93.6841 123.01 93.3254C122.677 92.9632 122.218 92.7821 121.636 92.7821C121.235 92.7821 120.876 92.8691 120.56 93.0431C120.248 93.2171 120.001 93.471 119.82 93.8048C119.639 94.1386 119.548 94.5434 119.548 95.0193ZM130.624 91.7594V92.8247H126.383V91.7594H130.624ZM127.619 89.7991H128.876V97.5974C128.876 97.9525 128.928 98.2189 129.031 98.3964C129.137 98.5704 129.272 98.6876 129.436 98.748C129.603 98.8048 129.778 98.8332 129.963 98.8332C130.102 98.8332 130.215 98.8261 130.304 98.8119C130.393 98.7942 130.464 98.78 130.517 98.7693L130.773 99.8986C130.687 99.9305 130.568 99.9625 130.416 99.9944C130.263 100.03 130.07 100.048 129.835 100.048C129.48 100.048 129.132 99.9714 128.791 99.8187C128.454 99.666 128.173 99.4334 127.95 99.1209C127.729 98.8084 127.619 98.4142 127.619 97.9383V89.7991ZM133.324 103.009C133.111 103.009 132.921 102.992 132.754 102.956C132.587 102.924 132.472 102.892 132.408 102.86L132.728 101.752C133.033 101.83 133.303 101.859 133.537 101.837C133.772 101.816 133.979 101.711 134.16 101.523C134.345 101.339 134.514 101.038 134.667 100.623L134.901 99.9838L131.875 91.7594H133.239L135.497 98.2792H135.583L137.841 91.7594H139.205L135.732 101.134C135.576 101.557 135.382 101.907 135.151 102.184C134.92 102.464 134.652 102.672 134.347 102.807C134.045 102.942 133.704 103.009 133.324 103.009Z" fill="white"/>
<path d="M19.7632 29.4412C19.7632 31.764 17.8486 33.6471 15.4869 33.6471C13.1251 33.6471 11.2105 31.764 11.2105 29.4412C11.2105 27.1183 13.1251 25.2353 15.4869 25.2353C17.8486 25.2353 19.7632 27.1183 19.7632 29.4412Z" fill="#078A83"/>
<path d="M30.9473 33.9706C30.9473 36.2934 29.0328 38.1765 26.671 38.1765C24.3093 38.1765 22.3947 36.2934 22.3947 33.9706C22.3947 31.6477 24.3093 29.7647 26.671 29.7647C29.0328 29.7647 30.9473 31.6477 30.9473 33.9706Z" fill="#FF7A00"/>
</svg>
